{"glyphs":{"0":{"ha":743,"x_min":35,"x_max":706,"o":"m 422 983 q 631 881 557 983 q 706 592 706 778 q 656 272 706 408 q 517 62 606 135 q 318 -11 429 -11 q 109 90 183 -11 q 35 376 35 192 q 85 699 35 561 q 222 910 135 836 q 422 983 310 983 m 406 821 q 325 767 363 821 q 265 607 288 713 q 242 356 242 501 q 265 203 242 254 q 335 151 289 151 q 415 205 378 151 q 476 363 453 258 q 499 613 499 468 q 475 768 499 715 q 406 821 451 821 z "},"1":{"ha":743,"x_min":44,"x_max":672,"o":"m 515 978 q 551 967 533 978 q 569 944 569 957 l 488 163 l 636 163 q 664 151 656 163 q 672 113 672 139 q 619 0 672 0 l 81 0 q 53 12 61 0 q 44 50 44 24 q 97 163 44 163 l 282 163 l 347 786 l 156 758 q 122 840 122 758 q 129 893 122 876 q 164 914 136 910 l 515 978 z "},"2":{"ha":743,"x_min":8,"x_max":686,"o":"m 400 983 q 551 951 486 983 q 651 865 617 919 q 686 746 686 811 q 649 601 686 669 q 511 419 613 533 l 272 163 l 603 163 q 631 151 622 163 q 639 113 639 139 q 585 0 639 0 l 47 0 q 20 41 32 0 q 8 118 8 82 q 13 143 8 135 l 410 574 q 458 644 439 604 q 476 719 476 685 q 444 794 476 768 q 358 819 413 819 q 285 807 317 819 q 224 775 254 794 q 190 760 199 760 q 142 790 163 760 q 121 849 121 819 q 166 922 121 892 q 276 968 211 953 q 400 983 340 983 z "},"3":{"ha":743,"x_min":57,"x_max":661,"o":"m 400 983 q 592 926 522 983 q 661 769 661 868 q 619 627 661 689 q 508 538 578 565 l 508 532 q 610 450 576 504 q 644 321 644 396 q 599 144 644 219 q 475 29 554 69 q 299 -11 396 -11 q 134 7 211 -11 q 57 76 57 25 q 67 176 57 144 q 90 207 76 207 q 125 191 96 207 q 193 163 154 175 q 283 151 232 151 q 394 194 353 151 q 436 311 436 236 q 288 429 436 429 l 247 429 q 219 441 228 429 q 211 479 211 453 q 265 592 211 592 l 292 592 q 407 628 365 592 q 449 725 449 665 q 423 794 449 769 q 347 819 397 819 q 269 810 301 819 q 208 788 238 801 q 178 776 189 776 q 139 812 158 776 q 119 878 119 847 q 203 956 119 929 q 400 983 286 983 z "},"4":{"ha":743,"x_min":-1,"x_max":713,"o":"m 603 975 q 664 964 646 975 q 682 931 682 953 l 622 360 l 676 360 q 704 348 696 360 q 713 310 713 336 q 658 197 713 197 l 606 197 l 589 42 q 501 -3 585 -3 l 463 -3 q 401 8 419 -3 q 383 42 383 19 l 400 197 l 36 197 q 10 239 21 197 q -1 317 -1 281 q 3 342 -1 338 l 478 949 q 510 970 490 965 q 565 975 531 975 l 603 975 m 444 679 l 208 360 l 417 360 l 450 678 l 444 679 z "},"5":{"ha":743,"x_min":49,"x_max":678,"o":"m 642 972 q 669 960 661 972 q 678 922 678 949 q 624 810 678 810 l 343 810 l 308 611 l 344 611 q 582 553 500 611 q 664 354 664 494 q 606 142 664 224 q 460 24 549 60 q 272 -11 372 -11 q 119 7 190 -11 q 49 76 49 25 q 58 176 49 144 q 82 207 68 207 q 117 191 88 207 q 188 163 146 175 q 289 151 229 151 q 409 197 365 151 q 453 324 453 243 q 415 417 453 385 q 294 449 378 449 l 143 449 q 106 457 117 449 q 96 489 96 465 q 167 917 96 496 q 187 959 172 946 q 232 972 201 972 l 642 972 z "},"6":{"ha":743,"x_min":28,"x_max":683,"o":"m 589 978 q 632 942 618 978 q 646 871 646 906 q 642 844 646 851 q 625 833 638 836 q 426 728 514 800 q 294 560 338 656 q 438 594 363 594 q 549 569 492 594 q 644 488 606 544 q 683 342 683 431 q 629 142 683 221 q 492 26 575 63 q 321 -11 408 -11 q 177 19 243 -11 q 69 117 111 50 q 28 290 28 185 q 145 684 28 531 q 400 908 263 838 q 589 978 538 978 m 361 432 q 247 399 311 432 q 236 290 236 326 q 264 185 236 218 q 339 151 292 151 q 434 199 394 151 q 474 318 474 246 q 444 402 474 372 q 361 432 415 432 z "},"7":{"ha":743,"x_min":57,"x_max":724,"o":"m 694 972 q 714 934 704 972 q 724 861 724 896 q 719 829 724 840 l 276 25 q 247 3 268 10 q 193 -3 226 -3 l 135 -3 q 78 1 99 -3 q 57 24 57 6 q 67 50 57 35 l 490 810 l 128 810 q 99 822 108 810 q 90 860 90 833 q 144 972 90 972 l 694 972 z "},"8":{"ha":743,"x_min":15,"x_max":699,"o":"m 435 983 q 576 955 517 983 q 667 877 636 926 q 699 767 699 828 q 659 622 699 676 q 554 535 619 568 q 682 314 682 475 q 647 163 682 238 q 531 39 611 89 q 324 -11 450 -11 q 92 60 168 -11 q 15 242 15 131 q 59 410 15 332 q 183 521 103 489 q 122 590 143 550 q 100 689 100 631 q 138 833 100 765 q 252 942 176 900 q 435 983 328 983 m 411 821 q 336 792 368 821 q 304 713 304 764 q 331 646 304 671 q 407 600 357 621 q 473 663 450 626 q 496 739 496 699 q 472 799 496 776 q 411 821 447 821 m 319 453 q 225 268 225 390 q 255 183 225 214 q 338 151 285 151 q 402 169 371 151 q 453 220 433 188 q 472 294 472 253 q 438 388 472 356 q 319 453 403 419 z "},"9":{"ha":743,"x_min":56,"x_max":711,"o":"m 418 983 q 562 953 496 983 q 669 855 628 922 q 711 682 711 788 q 594 288 711 442 q 339 65 476 135 q 150 -6 201 -6 q 107 31 121 -6 q 93 101 93 67 q 97 128 93 121 q 114 139 101 136 q 313 244 225 172 q 444 413 401 317 q 301 378 376 378 q 190 403 247 378 q 94 485 133 428 q 56 631 56 542 q 110 831 56 751 q 247 947 164 910 q 418 983 331 983 m 400 821 q 305 774 344 821 q 265 654 265 726 q 294 570 265 600 q 378 540 324 540 q 492 574 428 540 q 503 682 503 646 q 475 788 503 754 q 400 821 447 821 z "},"\u0000":{"ha":0,"x_min":0,"x_max":0,"o":""},"\r":{"ha":333,"x_min":0,"x_max":0,"o":""}," ":{"ha":333,"x_min":0,"x_max":0,"o":""},"A":{"ha":851,"x_min":-51,"x_max":815,"o":"m 515 975 q 592 946 585 975 l 811 53 q 815 29 815 40 q 796 6 815 14 q 740 -3 776 -3 l 679 -3 q 604 26 611 -3 l 564 196 l 228 196 l 151 26 q 85 -3 138 -3 l 29 -3 q -51 25 -51 -3 q -43 53 -51 36 l 361 946 q 443 975 374 975 l 515 975 m 449 715 q 418 626 432 658 l 307 379 l 521 379 l 465 626 q 454 715 457 663 l 449 715 z "},"Á":{"ha":851,"x_min":-51,"x_max":815,"o":"m 0 0 m 515 975 q 592 946 585 975 l 811 53 q 815 29 815 40 q 796 6 815 14 q 740 -3 776 -3 l 679 -3 q 604 26 611 -3 l 564 196 l 228 196 l 151 26 q 85 -3 138 -3 l 29 -3 q -51 25 -51 -3 q -43 53 -51 36 l 361 946 q 443 975 374 975 l 515 975 m 449 715 q 418 626 432 658 l 307 379 l 521 379 l 465 626 q 454 715 457 663 l 449 715 m 629 1265 q 690 1261 671 1265 q 710 1247 710 1257 q 702 1228 710 1238 q 654 1182 694 1219 l 549 1079 q 509 1054 533 1064 q 440 1044 485 1044 q 408 1049 417 1044 q 400 1063 400 1053 q 409 1084 400 1069 q 435 1122 418 1099 q 507 1228 476 1181 q 629 1265 532 1265 z "},"Ă":{"ha":851,"x_min":-51,"x_max":815,"o":"m 0 0 m 515 975 q 592 946 585 975 l 811 53 q 815 29 815 40 q 796 6 815 14 q 740 -3 776 -3 l 679 -3 q 604 26 611 -3 l 564 196 l 228 196 l 151 26 q 85 -3 138 -3 l 29 -3 q -51 25 -51 -3 q -43 53 -51 36 l 361 946 q 443 975 374 975 l 515 975 m 449 715 q 418 626 432 658 l 307 379 l 521 379 l 465 626 q 454 715 457 663 l 449 715 m 660 1239 q 692 1230 681 1239 q 704 1206 704 1221 q 674 1128 704 1165 q 592 1067 643 1090 q 483 1044 542 1044 q 385 1064 428 1044 q 318 1117 342 1083 q 294 1188 294 1150 q 349 1239 294 1239 q 372 1233 364 1239 q 392 1214 381 1228 q 428 1182 407 1193 q 497 1171 450 1171 q 567 1182 543 1171 q 603 1205 590 1193 q 619 1221 615 1217 q 660 1239 638 1239 z "},"Ắ":{"ha":851,"x_min":-51,"x_max":815,"o":"m 617 1397 q 657 1390 644 1397 q 669 1365 669 1383 q 647 1326 669 1354 q 550 1225 624 1297 q 469 1204 526 1204 q 449 1208 454 1204 q 443 1222 443 1213 q 452 1249 443 1229 q 479 1303 461 1269 l 508 1360 q 617 1397 528 1397 m 663 1226 q 695 1217 683 1226 q 707 1193 707 1208 q 676 1122 707 1157 q 595 1065 646 1088 q 486 1043 544 1043 q 388 1062 431 1043 q 321 1111 344 1081 q 297 1175 297 1142 q 351 1226 297 1226 q 375 1221 367 1226 q 394 1201 383 1215 q 431 1169 410 1181 q 500 1158 453 1158 q 577 1171 554 1158 q 622 1208 600 1183 q 663 1226 640 1226 m 515 975 q 592 946 585 975 l 811 53 q 815 29 815 40 q 796 6 815 14 q 740 -3 776 -3 l 679 -3 q 604 26 611 -3 l 564 196 l 228 196 l 151 26 q 85 -3 138 -3 l 29 -3 q -51 25 -51 -3 q -43 53 -51 36 l 361 946 q 443 975 374 975 l 515 975 m 449 715 q 418 626 432 658 l 307 379 l 521 379 l 465 626 q 454 715 457 663 l 449 715 z "},"Ặ":{"ha":851,"x_min":-51,"x_max":815,"o":"m 0 0 m 515 975 q 592 946 585 975 l 811 53 q 815 29 815 40 q 796 6 815 14 q 740 -3 776 -3 l 679 -3 q 604 26 611 -3 l 564 196 l 228 196 l 151 26 q 85 -3 138 -3 l 29 -3 q -51 25 -51 -3 q -43 53 -51 36 l 361 946 q 443 975 374 975 l 515 975 m 449 715 q 418 626 432 658 l 307 379 l 521 379 l 465 626 q 454 715 457 663 l 449 715 m 660 1239 q 692 1230 681 1239 q 704 1206 704 1221 q 674 1128 704 1165 q 592 1067 643 1090 q 483 1044 542 1044 q 385 1064 428 1044 q 318 1117 342 1083 q 294 1188 294 1150 q 349 1239 294 1239 q 372 1233 364 1239 q 392 1214 381 1228 q 428 1182 407 1193 q 497 1171 450 1171 q 567 1182 543 1171 q 603 1205 590 1193 q 619 1221 615 1217 q 660 1239 638 1239 m 403 -111 q 464 -122 446 -111 q 482 -156 482 -133 l 472 -239 q 385 -283 465 -283 q 324 -272 342 -283 q 306 -239 306 -261 l 315 -156 q 403 -111 319 -111 z "},"Ằ":{"ha":851,"x_min":-51,"x_max":815,"o":"m 414 1399 q 528 1361 515 1399 l 547 1299 q 567 1228 567 1239 q 556 1210 567 1215 q 521 1206 546 1206 q 469 1215 486 1206 q 439 1240 451 1224 l 390 1307 q 356 1355 367 1339 q 346 1376 346 1371 q 362 1394 346 1389 q 414 1399 378 1399 m 663 1226 q 695 1217 683 1226 q 707 1193 707 1208 q 676 1122 707 1157 q 595 1065 646 1088 q 486 1043 544 1043 q 388 1062 431 1043 q 321 1111 344 1081 q 297 1175 297 1142 q 351 1226 297 1226 q 375 1221 367 1226 q 394 1201 383 1215 q 431 1169 410 1181 q 500 1158 453 1158 q 577 1171 554 1158 q 622 1208 600 1183 q 663 1226 640 1226 m 515 975 q 592 946 585 975 l 811 53 q 815 29 815 40 q 796 6 815 14 q 740 -3 776 -3 l 679 -3 q 604 26 611 -3 l 564 196 l 228 196 l 151 26 q 85 -3 138 -3 l 29 -3 q -51 25 -51 -3 q -43 53 -51 36 l 361 946 q 443 975 374 975 l 515 975 m 449 715 q 418 626 432 658 l 307 379 l 521 379 l 465 626 q 454 715 457 663 l 449 715 z "},"Ẳ":{"ha":851,"x_min":-51,"x_max":815,"o":"m 526 1304 q 518 1322 526 1315 q 497 1328 510 1328 q 450 1316 471 1328 q 425 1304 429 1304 q 403 1326 417 1304 q 390 1363 390 1347 q 429 1389 390 1376 q 506 1401 468 1401 q 594 1377 564 1401 q 624 1310 624 1353 q 609 1269 624 1288 q 568 1236 594 1251 q 533 1217 553 1226 q 507 1207 514 1207 q 465 1215 481 1207 q 450 1236 450 1224 q 459 1252 450 1244 q 479 1264 468 1260 q 517 1283 507 1276 q 526 1304 526 1290 m 663 1226 q 695 1217 683 1226 q 707 1193 707 1208 q 676 1122 707 1157 q 595 1065 646 1088 q 486 1043 544 1043 q 388 1062 431 1043 q 321 1111 344 1081 q 297 1175 297 1142 q 351 1226 297 1226 q 375 1221 367 1226 q 394 1201 383 1215 q 431 1169 410 1181 q 500 1158 453 1158 q 577 1171 554 1158 q 622 1208 600 1183 q 663 1226 640 1226 m 515 975 q 592 946 585 975 l 811 53 q 815 29 815 40 q 796 6 815 14 q 740 -3 776 -3 l 679 -3 q 604 26 611 -3 l 564 196 l 228 196 l 151 26 q 85 -3 138 -3 l 29 -3 q -51 25 -51 -3 q -43 53 -51 36 l 361 946 q 443 975 374 975 l 515 975 m 449 715 q 418 626 432 658 l 307 379 l 521 379 l 465 626 q 454 715 457 663 l 449 715 z "},"Ẵ":{"ha":851,"x_min":-51,"x_max":815,"o":"m 428 1411 q 483 1401 449 1411 q 525 1390 518 1392 q 606 1371 581 1372 q 647 1393 629 1371 q 682 1417 665 1417 q 699 1414 688 1417 l 713 1410 q 740 1372 740 1400 q 738 1353 740 1358 q 688 1284 724 1313 q 600 1256 651 1256 q 544 1265 579 1256 q 503 1276 510 1275 q 422 1296 447 1294 q 381 1274 399 1296 q 346 1250 363 1250 q 329 1253 340 1250 l 315 1257 q 288 1294 288 1267 q 290 1314 288 1308 q 340 1383 304 1354 q 428 1411 376 1411 m 663 1226 q 695 1217 683 1226 q 707 1193 707 1208 q 676 1122 707 1157 q 595 1065 646 1088 q 486 1043 544 1043 q 388 1062 431 1043 q 321 1111 344 1081 q 297 1175 297 1142 q 351 1226 297 1226 q 375 1221 367 1226 q 394 1201 383 1215 q 431 1169 410 1181 q 500 1158 453 1158 q 577 1171 554 1158 q 622 1208 600 1183 q 663 1226 640 1226 m 515 975 q 592 946 585 975 l 811 53 q 815 29 815 40 q 796 6 815 14 q 740 -3 776 -3 l 679 -3 q 604 26 611 -3 l 564 196 l 228 196 l 151 26 q 85 -3 138 -3 l 29 -3 q -51 25 -51 -3 q -43 53 -51 36 l 361 946 q 443 975 374 975 l 515 975 m 449 715 q 418 626 432 658 l 307 379 l 521 379 l 465 626 q 454 715 457 663 l 449 715 z "},"Â":{"ha":851,"x_min":-51,"x_max":815,"o":"m 0 0 m 515 975 q 592 946 585 975 l 811 53 q 815 29 815 40 q 796 6 815 14 q 740 -3 776 -3 l 679 -3 q 604 26 611 -3 l 564 196 l 228 196 l 151 26 q 85 -3 138 -3 l 29 -3 q -51 25 -51 -3 q -43 53 -51 36 l 361 946 q 443 975 374 975 l 515 975 m 449 715 q 418 626 432 658 l 307 379 l 521 379 l 465 626 q 454 715 457 663 l 449 715 m 507 1243 q 561 1238 543 1243 q 589 1217 579 1233 l 664 1075 q 668 1058 668 1065 q 642 1040 668 1040 l 611 1040 q 556 1048 578 1040 q 522 1074 535 1056 l 488 1129 l 444 1075 q 406 1047 428 1054 q 349 1040 383 1040 l 315 1040 q 289 1054 289 1040 q 299 1075 289 1064 l 404 1217 q 436 1238 417 1233 q 492 1243 456 1243 l 507 1243 z "},"Ấ":{"ha":851,"x_min":-51,"x_max":846,"o":"m 793 1338 q 833 1331 821 1338 q 846 1306 846 1324 q 823 1266 846 1294 q 726 1165 800 1238 q 646 1144 703 1144 q 625 1149 631 1144 q 619 1163 619 1153 q 628 1190 619 1169 q 656 1243 638 1210 l 685 1300 q 793 1338 704 1338 m 504 1243 q 549 1238 533 1243 q 572 1217 564 1233 l 640 1075 q 644 1058 644 1065 q 618 1040 644 1040 l 588 1040 q 526 1047 549 1040 q 499 1074 503 1053 l 485 1129 l 442 1075 q 403 1047 425 1054 q 346 1040 381 1040 l 313 1040 q 286 1054 286 1040 q 296 1075 286 1064 l 401 1217 q 433 1238 414 1233 q 489 1243 453 1243 l 504 1243 m 515 975 q 592 946 585 975 l 811 53 q 815 29 815 40 q 796 6 815 14 q 740 -3 776 -3 l 679 -3 q 604 26 611 -3 l 564 196 l 228 196 l 151 26 q 85 -3 138 -3 l 29 -3 q -51 25 -51 -3 q -43 53 -51 36 l 361 946 q 443 975 374 975 l 515 975 m 449 715 q 418 626 432 658 l 307 379 l 521 379 l 465 626 q 454 715 457 663 l 449 715 z "},"Ậ":{"ha":851,"x_min":-51,"x_max":815,"o":"m 0 0 m 515 975 q 592 946 585 975 l 811 53 q 815 29 815 40 q 796 6 815 14 q 740 -3 776 -3 l 679 -3 q 604 26 611 -3 l 564 196 l 228 196 l 151 26 q 85 -3 138 -3 l 29 -3 q -51 25 -51 -3 q -43 53 -51 36 l 361 946 q 443 975 374 975 l 515 975 m 449 715 q 418 626 432 658 l 307 379 l 521 379 l 465 626 q 454 715 457 663 l 449 715 m 507 1243 q 561 1238 543 1243 q 589 1217 579 1233 l 664 1075 q 668 1058 668 1065 q 642 1040 668 1040 l 611 1040 q 556 1048 578 1040 q 522 1074 535 1056 l 488 1129 l 444 1075 q 406 1047 428 1054 q 349 1040 383 1040 l 315 1040 q 289 1054 289 1040 q 299 1075 289 1064 l 404 1217 q 436 1238 417 1233 q 492 1243 456 1243 l 507 1243 m 403 -111 q 464 -122 446 -111 q 482 -156 482 -133 l 472 -239 q 385 -283 465 -283 q 324 -272 342 -283 q 306 -239 306 -261 l 315 -156 q 403 -111 319 -111 z "},"Ầ":{"ha":851,"x_min":-51,"x_max":815,"o":"m 590 1339 q 704 1301 692 1339 l 724 1239 q 743 1168 743 1179 q 733 1151 743 1156 q 697 1146 722 1146 q 645 1155 663 1146 q 615 1181 628 1164 l 567 1247 q 533 1295 543 1279 q 522 1317 522 1311 q 538 1334 522 1329 q 590 1339 554 1339 m 504 1243 q 549 1238 533 1243 q 572 1217 564 1233 l 640 1075 q 644 1058 644 1065 q 618 1040 644 1040 l 588 1040 q 526 1047 549 1040 q 499 1074 503 1053 l 485 1129 l 442 1075 q 403 1047 425 1054 q 346 1040 381 1040 l 313 1040 q 286 1054 286 1040 q 296 1075 286 1064 l 401 1217 q 433 1238 414 1233 q 489 1243 453 1243 l 504 1243 m 515 975 q 592 946 585 975 l 811 53 q 815 29 815 40 q 796 6 815 14 q 740 -3 776 -3 l 679 -3 q 604 26 611 -3 l 564 196 l 228 196 l 151 26 q 85 -3 138 -3 l 29 -3 q -51 25 -51 -3 q -43 53 -51 36 l 361 946 q 443 975 374 975 l 515 975 m 449 715 q 418 626 432 658 l 307 379 l 521 379 l 465 626 q 454 715 457 663 l 449 715 z "},"Ẩ":{"ha":851,"x_min":-51,"x_max":815,"o":"m 703 1244 q 694 1262 703 1256 q 674 1268 686 1268 q 626 1256 647 1268 q 601 1244 606 1244 q 580 1266 593 1244 q 567 1303 567 1288 q 606 1329 567 1317 q 682 1342 644 1342 q 770 1317 740 1342 q 800 1250 800 1293 q 785 1210 800 1228 q 744 1176 771 1192 q 710 1157 729 1167 q 683 1147 690 1147 q 642 1156 657 1147 q 626 1176 626 1164 q 635 1192 626 1185 q 656 1204 644 1200 q 693 1224 683 1217 q 703 1244 703 1231 m 504 1243 q 549 1238 533 1243 q 572 1217 564 1233 l 640 1075 q 644 1058 644 1065 q 618 1040 644 1040 l 588 1040 q 526 1047 549 1040 q 499 1074 503 1053 l 485 1129 l 442 1075 q 403 1047 425 1054 q 346 1040 381 1040 l 313 1040 q 286 1054 286 1040 q 296 1075 286 1064 l 401 1217 q 433 1238 414 1233 q 489 1243 453 1243 l 504 1243 m 515 975 q 592 946 585 975 l 811 53 q 815 29 815 40 q 796 6 815 14 q 740 -3 776 -3 l 679 -3 q 604 26 611 -3 l 564 196 l 228 196 l 151 26 q 85 -3 138 -3 l 29 -3 q -51 25 -51 -3 q -43 53 -51 36 l 361 946 q 443 975 374 975 l 515 975 m 449 715 q 418 626 432 658 l 307 379 l 521 379 l 465 626 q 454 715 457 663 l 449 715 z "},"Ẫ":{"ha":851,"x_min":-51,"x_max":815,"o":"m 428 1411 q 483 1401 449 1411 q 525 1390 518 1392 q 606 1371 581 1372 q 647 1393 629 1371 q 682 1417 665 1417 q 699 1414 688 1417 l 713 1410 q 740 1372 740 1400 q 738 1353 740 1358 q 688 1284 724 1313 q 600 1256 651 1256 q 544 1265 579 1256 q 503 1276 510 1275 q 422 1296 447 1294 q 381 1274 399 1296 q 346 1250 363 1250 q 329 1253 340 1250 l 315 1257 q 288 1294 288 1267 q 290 1314 288 1308 q 340 1383 304 1354 q 428 1411 376 1411 m 514 1210 q 565 1205 547 1210 q 596 1183 583 1200 l 671 1075 q 675 1058 675 1065 q 649 1040 675 1040 l 618 1040 q 574 1047 590 1040 q 529 1074 558 1054 l 494 1110 l 451 1075 l 426 1063 q 390 1045 404 1050 q 356 1040 375 1040 l 322 1040 q 296 1054 296 1040 q 306 1075 296 1064 l 411 1183 q 447 1204 428 1199 q 499 1210 467 1210 l 514 1210 m 515 975 q 592 946 585 975 l 811 53 q 815 29 815 40 q 796 6 815 14 q 740 -3 776 -3 l 679 -3 q 604 26 611 -3 l 564 196 l 228 196 l 151 26 q 85 -3 138 -3 l 29 -3 q -51 25 -51 -3 q -43 53 -51 36 l 361 946 q 443 975 374 975 l 515 975 m 449 715 q 418 626 432 658 l 307 379 l 521 379 l 465 626 q 454 715 457 663 l 449 715 z "},"Ä":{"ha":851,"x_min":-51,"x_max":815,"o":"m 0 0 m 515 975 q 592 946 585 975 l 811 53 q 815 29 815 40 q 796 6 815 14 q 740 -3 776 -3 l 679 -3 q 604 26 611 -3 l 564 196 l 228 196 l 151 26 q 85 -3 138 -3 l 29 -3 q -51 25 -51 -3 q -43 53 -51 36 l 361 946 q 443 975 374 975 l 515 975 m 449 715 q 418 626 432 658 l 307 379 l 521 379 l 465 626 q 454 715 457 663 l 449 715 m 382 1221 q 443 1210 425 1221 q 461 1176 461 1199 l 451 1093 q 364 1049 444 1049 q 303 1060 321 1049 q 285 1093 285 1071 l 294 1176 q 382 1221 299 1221 m 632 1221 q 693 1210 675 1221 q 711 1176 711 1199 l 701 1093 q 614 1049 694 1049 q 553 1060 571 1049 q 535 1093 535 1071 l 544 1176 q 632 1221 549 1221 z "},"Ạ":{"ha":851,"x_min":-51,"x_max":815,"o":"m 0 0 m 515 975 q 592 946 585 975 l 811 53 q 815 29 815 40 q 796 6 815 14 q 740 -3 776 -3 l 679 -3 q 604 26 611 -3 l 564 196 l 228 196 l 151 26 q 85 -3 138 -3 l 29 -3 q -51 25 -51 -3 q -43 53 -51 36 l 361 946 q 443 975 374 975 l 515 975 m 449 715 q 418 626 432 658 l 307 379 l 521 379 l 465 626 q 454 715 457 663 l 449 715 m 403 -111 q 464 -122 446 -111 q 482 -156 482 -133 l 472 -239 q 385 -283 465 -283 q 324 -272 342 -283 q 306 -239 306 -261 l 315 -156 q 403 -111 319 -111 z "},"À":{"ha":851,"x_min":-51,"x_max":815,"o":"m 0 0 m 515 975 q 592 946 585 975 l 811 53 q 815 29 815 40 q 796 6 815 14 q 740 -3 776 -3 l 679 -3 q 604 26 611 -3 l 564 196 l 228 196 l 151 26 q 85 -3 138 -3 l 29 -3 q -51 25 -51 -3 q -43 53 -51 36 l 361 946 q 443 975 374 975 l 515 975 m 449 715 q 418 626 432 658 l 307 379 l 521 379 l 465 626 q 454 715 457 663 l 449 715 m 382 1265 q 496 1228 478 1265 l 542 1133 q 569 1067 569 1078 q 559 1049 569 1054 q 524 1044 549 1044 q 458 1053 479 1044 q 424 1079 438 1063 q 349 1169 389 1124 q 308 1219 321 1203 q 296 1243 296 1236 q 316 1260 296 1256 q 382 1265 336 1265 z "},"Ả":{"ha":851,"x_min":-51,"x_max":815,"o":"m 0 0 m 515 975 q 592 946 585 975 l 811 53 q 815 29 815 40 q 796 6 815 14 q 740 -3 776 -3 l 679 -3 q 604 26 611 -3 l 564 196 l 228 196 l 151 26 q 85 -3 138 -3 l 29 -3 q -51 25 -51 -3 q -43 53 -51 36 l 361 946 q 443 975 374 975 l 515 975 m 449 715 q 418 626 432 658 l 307 379 l 521 379 l 465 626 q 454 715 457 663 l 449 715 m 539 1174 q 527 1196 539 1188 q 494 1204 515 1204 q 458 1196 476 1204 q 433 1188 439 1188 q 412 1209 425 1188 q 399 1246 399 1231 q 438 1274 399 1260 q 514 1289 478 1289 q 621 1259 582 1289 q 660 1182 660 1229 q 631 1116 660 1149 q 567 1060 603 1083 q 518 1038 531 1038 q 460 1047 481 1038 q 439 1067 439 1056 q 449 1085 439 1076 q 481 1108 458 1093 q 524 1141 508 1126 q 539 1174 539 1156 z "},"Ā":{"ha":851,"x_min":-51,"x_max":815,"o":"m 0 0 m 515 975 q 592 946 585 975 l 811 53 q 815 29 815 40 q 796 6 815 14 q 740 -3 776 -3 l 679 -3 q 604 26 611 -3 l 564 196 l 228 196 l 151 26 q 85 -3 138 -3 l 29 -3 q -51 25 -51 -3 q -43 53 -51 36 l 361 946 q 443 975 374 975 l 515 975 m 449 715 q 418 626 432 658 l 307 379 l 521 379 l 465 626 q 454 715 457 663 l 449 715 m 660 1207 q 696 1165 696 1207 q 685 1103 696 1132 q 644 1075 675 1075 l 344 1075 q 317 1085 325 1075 q 308 1117 308 1094 q 360 1207 308 1207 l 660 1207 z "},"Ą":{"ha":851,"x_min":-51,"x_max":918,"o":"m 903 -137 q 915 -147 913 -137 q 918 -179 918 -156 q 882 -237 918 -219 q 796 -254 846 -254 q 678 -217 710 -254 q 646 -131 646 -179 q 657 -62 646 -100 q 690 -3 668 -25 l 679 -3 q 604 26 611 -3 l 564 196 l 228 196 l 151 26 q 85 -3 138 -3 l 29 -3 q -51 25 -51 -3 q -43 53 -51 36 l 361 946 q 443 975 374 975 l 515 975 q 592 946 585 975 l 811 53 q 815 29 815 40 q 767 -1 815 6 l 767 -4 q 757 -33 767 -14 q 742 -97 742 -67 q 765 -145 742 -133 q 822 -157 789 -157 q 874 -147 849 -157 q 903 -137 899 -137 m 521 379 l 465 626 q 454 715 457 663 l 449 715 q 418 626 432 658 l 307 379 l 521 379 z "},"Å":{"ha":851,"x_min":-51,"x_max":815,"o":"m 0 0 m 515 975 q 592 946 585 975 l 811 53 q 815 29 815 40 q 796 6 815 14 q 740 -3 776 -3 l 679 -3 q 604 26 611 -3 l 564 196 l 228 196 l 151 26 q 85 -3 138 -3 l 29 -3 q -51 25 -51 -3 q -43 53 -51 36 l 361 946 q 443 975 374 975 l 515 975 m 449 715 q 418 626 432 658 l 307 379 l 521 379 l 465 626 q 454 715 457 663 l 449 715 m 513 1286 q 601 1251 567 1286 q 636 1163 636 1215 q 595 1053 636 1097 q 483 1010 554 1010 q 394 1045 429 1010 q 358 1133 358 1081 q 401 1242 358 1199 q 513 1286 443 1286 m 503 1197 q 464 1180 481 1197 q 447 1140 447 1163 q 460 1108 447 1121 q 493 1096 474 1096 q 532 1112 515 1096 q 549 1150 549 1128 q 535 1183 549 1169 q 503 1197 522 1197 z "},"Ǻ":{"ha":851,"x_min":-51,"x_max":815,"o":"m 475 1128 q 441 1133 450 1128 q 433 1149 432 1138 q 501 1256 464 1204 q 624 1293 528 1293 q 688 1289 668 1293 q 706 1274 707 1285 q 691 1255 704 1267 q 646 1217 678 1243 l 582 1163 q 543 1138 567 1147 q 475 1128 519 1128 m 811 53 q 815 29 815 40 q 796 6 815 14 q 740 -3 776 -3 l 679 -3 q 604 26 611 -3 l 564 196 l 228 196 l 151 26 q 85 -3 138 -3 l 29 -3 q -51 25 -51 -3 q -43 53 -51 36 l 346 913 q 340 953 340 929 q 383 1062 340 1018 q 494 1106 425 1106 q 583 1070 549 1106 q 618 982 618 1035 q 601 907 618 940 l 811 53 m 485 1017 q 446 999 463 1017 q 429 960 429 982 q 442 928 429 940 q 475 915 456 915 q 514 931 497 915 q 531 969 531 947 q 517 1003 531 989 q 485 1017 504 1017 m 521 379 l 465 626 q 454 715 457 663 l 449 715 q 418 626 432 658 l 307 379 l 521 379 z "},"Ã":{"ha":851,"x_min":-51,"x_max":815,"o":"m 0 0 m 515 975 q 592 946 585 975 l 811 53 q 815 29 815 40 q 796 6 815 14 q 740 -3 776 -3 l 679 -3 q 604 26 611 -3 l 564 196 l 228 196 l 151 26 q 85 -3 138 -3 l 29 -3 q -51 25 -51 -3 q -43 53 -51 36 l 361 946 q 443 975 374 975 l 515 975 m 449 715 q 418 626 432 658 l 307 379 l 521 379 l 465 626 q 454 715 457 663 l 449 715 m 389 1210 q 449 1200 411 1210 q 496 1189 488 1190 q 585 1169 560 1171 q 631 1192 611 1169 q 668 1215 649 1215 q 686 1213 675 1215 l 701 1208 q 733 1171 733 1199 q 729 1151 733 1160 q 674 1083 714 1111 q 578 1054 635 1054 q 531 1061 561 1054 q 472 1075 501 1068 q 383 1094 408 1093 q 338 1072 357 1094 q 299 1049 318 1049 q 281 1051 292 1049 l 265 1056 q 235 1094 235 1064 q 238 1113 235 1101 q 293 1181 253 1153 q 389 1210 333 1210 z "},"Æ":{"ha":1271,"x_min":-49,"x_max":1247,"o":"m 1211 972 q 1239 959 1231 972 q 1247 917 1247 946 q 1194 790 1247 790 l 750 790 l 767 589 l 1133 589 q 1161 576 1153 589 q 1169 533 1169 563 q 1117 407 1169 407 l 785 407 l 804 182 l 1129 182 q 1157 169 1149 182 q 1165 126 1165 156 q 1113 0 1165 0 l 649 0 q 617 10 626 0 q 604 42 607 19 l 592 196 l 254 196 l 153 26 q 86 -3 135 -3 l 35 -3 q -49 28 -49 -3 q -37 53 -49 38 l 500 935 q 527 963 513 954 q 564 972 542 972 l 1211 972 m 569 746 l 564 746 l 514 632 l 364 379 l 578 379 l 558 631 l 569 746 z "},"Ǽ":{"ha":1271,"x_min":-49,"x_max":1247,"o":"m 0 0 m 1211 972 q 1239 959 1231 972 q 1247 917 1247 946 q 1194 790 1247 790 l 750 790 l 767 589 l 1133 589 q 1161 576 1153 589 q 1169 533 1169 563 q 1117 407 1169 407 l 785 407 l 804 182 l 1129 182 q 1157 169 1149 182 q 1165 126 1165 156 q 1113 0 1165 0 l 649 0 q 617 10 626 0 q 604 42 607 19 l 592 196 l 254 196 l 153 26 q 86 -3 135 -3 l 35 -3 q -49 28 -49 -3 q -37 53 -49 38 l 500 935 q 527 963 513 954 q 564 972 542 972 l 1211 972 m 569 746 l 564 746 l 514 632 l 364 379 l 578 379 l 558 631 l 569 746 m 786 1265 q 847 1261 828 1265 q 867 1247 867 1257 q 859 1228 867 1238 q 811 1182 851 1219 l 706 1079 q 666 1054 690 1064 q 597 1044 642 1044 q 565 1049 574 1044 q 557 1063 557 1053 q 566 1084 557 1069 q 592 1122 575 1099 q 664 1228 633 1181 q 786 1265 689 1265 z "},"B":{"ha":824,"x_min":56,"x_max":786,"o":"m 482 972 q 713 915 639 972 q 786 758 786 858 q 738 612 786 678 q 613 515 689 546 l 613 510 q 733 437 688 494 q 778 306 778 379 q 678 80 778 160 q 400 0 578 0 l 106 0 q 67 10 78 0 q 56 44 56 19 l 67 160 q 146 917 81 276 q 163 959 149 946 q 207 972 178 972 l 482 972 m 347 792 l 325 585 l 421 585 q 524 619 486 585 q 561 704 561 653 q 446 792 561 792 l 347 792 m 306 403 l 282 182 l 418 182 q 520 215 482 182 q 558 307 558 247 q 419 403 558 403 l 306 403 z "},"C":{"ha":860,"x_min":58,"x_max":860,"o":"m 579 983 q 706 972 640 983 q 816 938 772 960 q 860 889 860 915 q 841 838 860 871 q 797 781 822 806 q 756 756 772 756 q 724 768 751 756 q 655 790 696 781 q 556 800 614 800 q 350 703 421 800 q 279 414 279 606 q 488 171 279 171 q 623 190 564 171 q 735 235 682 208 q 752 242 742 238 q 767 247 763 247 q 783 226 783 247 q 769 94 783 168 q 706 32 763 56 q 583 -1 650 8 q 468 -11 515 -11 q 159 85 260 -11 q 58 383 58 182 q 181 817 58 650 q 579 983 303 983 z "},"Ć":{"ha":860,"x_min":58,"x_max":860,"o":"m 58 0 m 579 983 q 706 972 640 983 q 816 938 772 960 q 860 889 860 915 q 841 838 860 871 q 797 781 822 806 q 756 756 772 756 q 724 768 751 756 q 655 790 696 781 q 556 800 614 800 q 350 703 421 800 q 279 414 279 606 q 488 171 279 171 q 623 190 564 171 q 735 235 682 208 q 752 242 742 238 q 767 247 763 247 q 783 226 783 247 q 769 94 783 168 q 706 32 763 56 q 583 -1 650 8 q 468 -11 515 -11 q 159 85 260 -11 q 58 383 58 182 q 181 817 58 650 q 579 983 303 983 m 704 1265 q 765 1261 746 1265 q 785 1247 785 1257 q 777 1228 785 1238 q 729 1182 769 1219 l 624 1079 q 584 1054 608 1064 q 515 1044 560 1044 q 483 1049 492 1044 q 475 1063 475 1053 q 484 1084 475 1069 q 510 1122 493 1099 q 582 1228 551 1181 q 704 1265 607 1265 z "},"Č":{"ha":860,"x_min":58,"x_max":860,"o":"m 58 0 m 579 983 q 706 972 640 983 q 816 938 772 960 q 860 889 860 915 q 841 838 860 871 q 797 781 822 806 q 756 756 772 756 q 724 768 751 756 q 655 790 696 781 q 556 800 614 800 q 350 703 421 800 q 279 414 279 606 q 488 171 279 171 q 623 190 564 171 q 735 235 682 208 q 752 242 742 238 q 767 247 763 247 q 783 226 783 247 q 769 94 783 168 q 706 32 763 56 q 583 -1 650 8 q 468 -11 515 -11 q 159 85 260 -11 q 58 383 58 182 q 181 817 58 650 q 579 983 303 983 m 740 1243 q 767 1229 767 1243 q 757 1208 767 1219 l 651 1067 q 619 1045 639 1050 q 564 1040 600 1040 l 549 1040 q 494 1045 513 1040 q 467 1067 476 1050 l 392 1208 q 388 1225 388 1219 q 414 1243 388 1243 l 444 1243 q 533 1210 511 1243 l 568 1154 l 611 1208 q 649 1235 628 1229 q 707 1243 671 1242 l 740 1243 z "},"Ç":{"ha":860,"x_min":58,"x_max":860,"o":"m 556 800 q 350 703 421 800 q 279 414 279 606 q 488 171 279 171 q 623 190 564 171 q 735 235 682 208 q 752 242 742 238 q 767 247 763 247 q 783 226 783 247 q 769 94 783 168 q 660 15 758 40 q 474 -11 563 -10 l 458 -49 q 526 -82 497 -56 q 556 -153 556 -108 q 508 -258 556 -222 q 376 -294 461 -294 q 280 -280 326 -294 q 233 -222 233 -265 q 253 -156 233 -156 q 281 -167 258 -156 q 326 -185 303 -178 q 376 -193 349 -193 q 402 -187 394 -193 q 411 -169 410 -182 q 403 -151 411 -158 q 378 -136 394 -144 q 353 -121 361 -128 q 344 -103 344 -114 q 382 -7 344 -93 q 138 108 217 13 q 58 383 58 203 q 181 817 58 650 q 579 983 303 983 q 706 972 640 983 q 816 938 772 960 q 860 889 860 915 q 841 838 860 871 q 797 781 822 806 q 756 756 772 756 q 724 768 751 756 q 655 790 696 781 q 556 800 614 800 z "},"Ĉ":{"ha":860,"x_min":58,"x_max":860,"o":"m 58 0 m 579 983 q 706 972 640 983 q 816 938 772 960 q 860 889 860 915 q 841 838 860 871 q 797 781 822 806 q 756 756 772 756 q 724 768 751 756 q 655 790 696 781 q 556 800 614 800 q 350 703 421 800 q 279 414 279 606 q 488 171 279 171 q 623 190 564 171 q 735 235 682 208 q 752 242 742 238 q 767 247 763 247 q 783 226 783 247 q 769 94 783 168 q 706 32 763 56 q 583 -1 650 8 q 468 -11 515 -11 q 159 85 260 -11 q 58 383 58 182 q 181 817 58 650 q 579 983 303 983 m 582 1243 q 636 1238 618 1243 q 664 1217 654 1233 l 739 1075 q 743 1058 743 1065 q 717 1040 743 1040 l 686 1040 q 631 1048 653 1040 q 597 1074 610 1056 l 563 1129 l 519 1075 q 481 1047 503 1054 q 424 1040 458 1040 l 390 1040 q 364 1054 364 1040 q 374 1075 364 1064 l 479 1217 q 511 1238 492 1233 q 567 1243 531 1243 l 582 1243 z "},"Ċ":{"ha":860,"x_min":58,"x_max":860,"o":"m 58 0 m 579 983 q 706 972 640 983 q 816 938 772 960 q 860 889 860 915 q 841 838 860 871 q 797 781 822 806 q 756 756 772 756 q 724 768 751 756 q 655 790 696 781 q 556 800 614 800 q 350 703 421 800 q 279 414 279 606 q 488 171 279 171 q 623 190 564 171 q 735 235 682 208 q 752 242 742 238 q 767 247 763 247 q 783 226 783 247 q 769 94 783 168 q 706 32 763 56 q 583 -1 650 8 q 468 -11 515 -11 q 159 85 260 -11 q 58 383 58 182 q 181 817 58 650 q 579 983 303 983 m 563 1221 q 624 1210 606 1221 q 642 1176 642 1199 l 632 1093 q 544 1049 625 1049 q 483 1060 501 1049 q 465 1093 465 1071 l 475 1176 q 563 1221 479 1221 z "},"D":{"ha":965,"x_min":56,"x_max":917,"o":"m 518 972 q 815 869 713 972 q 917 571 917 765 q 856 261 917 389 q 682 67 794 133 q 417 0 569 0 l 106 0 q 67 10 78 0 q 56 46 56 21 q 132 783 56 63 l 146 917 q 163 959 149 946 q 207 972 178 972 l 518 972 m 349 790 l 283 182 l 435 182 q 626 278 556 182 q 696 551 696 375 q 647 730 696 669 q 500 790 597 790 l 349 790 z "},"Ǳ":{"ha":1821,"x_min":56,"x_max":1804,"o":"m 56 0 m 518 972 q 815 869 713 972 q 917 571 917 765 q 856 261 917 389 q 682 67 794 133 q 417 0 569 0 l 106 0 q 67 10 78 0 q 56 46 56 21 q 132 783 56 63 l 146 917 q 163 959 149 946 q 207 972 178 972 l 518 972 m 349 790 l 283 182 l 435 182 q 626 278 556 182 q 696 551 696 375 q 647 730 696 669 q 500 790 597 790 l 349 790 m 1760 972 q 1791 929 1778 972 q 1804 851 1804 886 q 1800 831 1804 835 l 1269 182 l 1693 182 q 1721 169 1713 182 q 1729 126 1729 156 q 1676 0 1729 0 l 1011 0 q 980 43 993 0 q 967 121 967 86 q 971 142 967 138 l 1500 790 l 1114 790 q 1086 803 1094 790 q 1078 846 1078 817 q 1131 972 1078 972 l 1760 972 z "},"Ǆ":{"ha":1821,"x_min":56,"x_max":1804,"o":"m 56 0 m 518 972 q 815 869 713 972 q 917 571 917 765 q 856 261 917 389 q 682 67 794 133 q 417 0 569 0 l 106 0 q 67 10 78 0 q 56 46 56 21 q 132 783 56 63 l 146 917 q 163 959 149 946 q 207 972 178 972 l 518 972 m 349 790 l 283 182 l 435 182 q 626 278 556 182 q 696 551 696 375 q 647 730 696 669 q 500 790 597 790 l 349 790 m 1760 972 q 1791 929 1778 972 q 1804 851 1804 886 q 1800 831 1804 835 l 1269 182 l 1693 182 q 1721 169 1713 182 q 1729 126 1729 156 q 1676 0 1729 0 l 1011 0 q 980 43 993 0 q 967 121 967 86 q 971 142 967 138 l 1500 790 l 1114 790 q 1086 803 1094 790 q 1078 846 1078 817 q 1131 972 1078 972 l 1760 972 m 1613 1243 q 1639 1229 1639 1243 q 1629 1208 1639 1219 l 1524 1067 q 1492 1045 1511 1050 q 1436 1040 1472 1040 l 1421 1040 q 1367 1045 1385 1040 q 1339 1067 1349 1050 l 1264 1208 q 1260 1225 1260 1219 q 1286 1243 1260 1243 l 1317 1243 q 1406 1210 1383 1243 l 1440 1154 l 1483 1208 q 1522 1235 1500 1229 q 1579 1243 1543 1242 l 1613 1243 z "},"Ð":{"ha":967,"x_min":13,"x_max":917,"o":"m 518 972 q 815 869 713 972 q 917 571 917 765 q 856 261 917 389 q 682 67 794 133 q 417 0 569 0 l 106 0 q 67 10 78 0 q 56 46 56 21 l 75 246 l 92 403 l 49 403 q 21 416 29 403 q 13 458 13 429 q 65 585 13 585 l 111 585 l 146 917 q 163 959 149 946 q 207 972 178 972 l 518 972 m 435 182 q 626 278 556 182 q 696 551 696 375 q 647 730 696 669 q 500 790 597 790 l 349 790 l 326 585 l 406 585 q 433 572 425 585 q 442 529 442 558 q 389 403 442 403 l 307 403 l 283 182 l 435 182 z "},"Ď":{"ha":965,"x_min":56,"x_max":917,"o":"m 56 0 m 518 972 q 815 869 713 972 q 917 571 917 765 q 856 261 917 389 q 682 67 794 133 q 417 0 569 0 l 106 0 q 67 10 78 0 q 56 46 56 21 q 132 783 56 63 l 146 917 q 163 959 149 946 q 207 972 178 972 l 518 972 m 349 790 l 283 182 l 435 182 q 626 278 556 182 q 696 551 696 375 q 647 730 696 669 q 500 790 597 790 l 349 790 m 669 1243 q 696 1229 696 1243 q 686 1208 696 1219 l 581 1067 q 549 1045 568 1050 q 493 1040 529 1040 l 478 1040 q 424 1045 442 1040 q 396 1067 406 1050 l 321 1208 q 317 1225 317 1219 q 343 1243 317 1243 l 374 1243 q 463 1210 440 1243 l 497 1154 l 540 1208 q 578 1235 557 1229 q 636 1243 600 1242 l 669 1243 z "},"Đ":{"ha":967,"x_min":13,"x_max":917,"o":"m 13 0 m 518 972 q 815 869 713 972 q 917 571 917 765 q 856 261 917 389 q 682 67 794 133 q 417 0 569 0 l 106 0 q 67 10 78 0 q 56 46 56 21 l 75 246 l 92 403 l 49 403 q 21 416 29 403 q 13 458 13 429 q 65 585 13 585 l 111 585 l 146 917 q 163 959 149 946 q 207 972 178 972 l 518 972 m 435 182 q 626 278 556 182 q 696 551 696 375 q 647 730 696 669 q 500 790 597 790 l 349 790 l 326 585 l 406 585 q 433 572 425 585 q 442 529 442 558 q 389 403 442 403 l 307 403 l 283 182 l 435 182 z "},"Ḍ":{"ha":965,"x_min":56,"x_max":917,"o":"m 56 0 m 518 972 q 815 869 713 972 q 917 571 917 765 q 856 261 917 389 q 682 67 794 133 q 417 0 569 0 l 106 0 q 67 10 78 0 q 56 46 56 21 q 132 783 56 63 l 146 917 q 163 959 149 946 q 207 972 178 972 l 518 972 m 349 790 l 283 182 l 435 182 q 626 278 556 182 q 696 551 696 375 q 647 730 696 669 q 500 790 597 790 l 349 790 m 389 -111 q 450 -122 432 -111 q 468 -156 468 -133 l 458 -239 q 371 -283 451 -283 q 310 -272 328 -283 q 292 -239 292 -261 l 301 -156 q 389 -111 306 -111 z "},"ǲ":{"ha":1644,"x_min":56,"x_max":1621,"o":"m 56 0 m 518 972 q 815 869 713 972 q 917 571 917 765 q 856 261 917 389 q 682 67 794 133 q 417 0 569 0 l 106 0 q 67 10 78 0 q 56 46 56 21 q 132 783 56 63 l 146 917 q 163 959 149 946 q 207 972 178 972 l 518 972 m 349 790 l 283 182 l 435 182 q 626 278 556 182 q 696 551 696 375 q 647 730 696 669 q 500 790 597 790 l 349 790 m 1588 726 q 1610 691 1600 726 q 1621 625 1621 656 q 1615 599 1621 604 l 1253 163 l 1540 163 q 1568 151 1560 163 q 1576 113 1576 139 q 1524 0 1576 0 l 1008 0 q 985 35 996 0 q 975 101 975 71 q 981 128 975 122 l 1343 564 l 1082 564 q 1054 576 1063 564 q 1046 614 1046 588 q 1099 726 1046 726 l 1588 726 z "},"ǅ":{"ha":1644,"x_min":56,"x_max":1621,"o":"m 56 0 m 518 972 q 815 869 713 972 q 917 571 917 765 q 856 261 917 389 q 682 67 794 133 q 417 0 569 0 l 106 0 q 67 10 78 0 q 56 46 56 21 q 132 783 56 63 l 146 917 q 163 959 149 946 q 207 972 178 972 l 518 972 m 349 790 l 283 182 l 435 182 q 626 278 556 182 q 696 551 696 375 q 647 730 696 669 q 500 790 597 790 l 349 790 m 1588 726 q 1610 691 1600 726 q 1621 625 1621 656 q 1615 599 1621 604 l 1253 163 l 1540 163 q 1568 151 1560 163 q 1576 113 1576 139 q 1524 0 1576 0 l 1008 0 q 985 35 996 0 q 975 101 975 71 q 981 128 975 122 l 1343 564 l 1082 564 q 1054 576 1063 564 q 1046 614 1046 588 q 1099 726 1046 726 l 1588 726 m 1547 997 q 1574 983 1574 997 q 1564 963 1574 974 l 1458 821 q 1426 799 1446 804 q 1371 794 1407 794 l 1356 794 q 1301 799 1319 794 q 1274 821 1283 804 l 1199 963 q 1194 979 1194 974 q 1221 997 1194 997 l 1251 997 q 1340 964 1318 997 l 1375 908 l 1418 963 q 1456 990 1435 983 q 1514 997 1478 996 l 1547 997 z "},"E":{"ha":758,"x_min":56,"x_max":751,"o":"m 715 972 q 743 959 735 972 q 751 917 751 946 q 699 790 751 790 l 349 790 l 326 589 l 638 589 q 665 576 657 589 q 674 533 674 563 q 621 407 674 407 l 308 407 l 283 182 l 633 182 q 661 169 653 182 q 669 126 669 156 q 617 0 669 0 l 106 0 q 67 10 78 0 q 56 44 56 19 q 101 483 69 185 q 146 917 132 782 q 163 959 149 946 q 207 972 178 972 l 715 972 z "},"É":{"ha":758,"x_min":56,"x_max":751,"o":"m 56 0 m 715 972 q 743 959 735 972 q 751 917 751 946 q 699 790 751 790 l 349 790 l 326 589 l 638 589 q 665 576 657 589 q 674 533 674 563 q 621 407 674 407 l 308 407 l 283 182 l 633 182 q 661 169 653 182 q 669 126 669 156 q 617 0 669 0 l 106 0 q 67 10 78 0 q 56 44 56 19 q 101 483 69 185 q 146 917 132 782 q 163 959 149 946 q 207 972 178 972 l 715 972 m 606 1265 q 667 1261 647 1265 q 686 1247 686 1257 q 678 1228 686 1238 q 631 1182 671 1219 l 525 1079 q 485 1054 510 1064 q 417 1044 461 1044 q 385 1049 393 1044 q 376 1063 376 1053 q 385 1084 376 1069 q 411 1122 394 1099 q 483 1228 453 1181 q 606 1265 508 1265 z "},"Ĕ":{"ha":758,"x_min":56,"x_max":751,"o":"m 56 0 m 715 972 q 743 959 735 972 q 751 917 751 946 q 699 790 751 790 l 349 790 l 326 589 l 638 589 q 665 576 657 589 q 674 533 674 563 q 621 407 674 407 l 308 407 l 283 182 l 633 182 q 661 169 653 182 q 669 126 669 156 q 617 0 669 0 l 106 0 q 67 10 78 0 q 56 44 56 19 q 101 483 69 185 q 146 917 132 782 q 163 959 149 946 q 207 972 178 972 l 715 972 m 636 1239 q 669 1230 657 1239 q 681 1206 681 1221 q 650 1128 681 1165 q 569 1067 619 1090 q 460 1044 518 1044 q 361 1064 404 1044 q 294 1117 318 1083 q 271 1188 271 1150 q 325 1239 271 1239 q 349 1233 340 1239 q 368 1214 357 1228 q 405 1182 383 1193 q 474 1171 426 1171 q 543 1182 519 1171 q 579 1205 567 1193 q 596 1221 592 1217 q 636 1239 614 1239 z "},"Ě":{"ha":758,"x_min":56,"x_max":751,"o":"m 56 0 m 715 972 q 743 959 735 972 q 751 917 751 946 q 699 790 751 790 l 349 790 l 326 589 l 638 589 q 665 576 657 589 q 674 533 674 563 q 621 407 674 407 l 308 407 l 283 182 l 633 182 q 661 169 653 182 q 669 126 669 156 q 617 0 669 0 l 106 0 q 67 10 78 0 q 56 44 56 19 q 101 483 69 185 q 146 917 132 782 q 163 959 149 946 q 207 972 178 972 l 715 972 m 642 1243 q 668 1229 668 1243 q 658 1208 668 1219 l 553 1067 q 521 1045 540 1050 q 465 1040 501 1040 l 450 1040 q 396 1045 414 1040 q 368 1067 378 1050 l 293 1208 q 289 1225 289 1219 q 315 1243 289 1243 l 346 1243 q 435 1210 413 1243 l 469 1154 l 513 1208 q 551 1235 529 1229 q 608 1243 572 1242 l 642 1243 z "},"Ê":{"ha":758,"x_min":56,"x_max":751,"o":"m 56 0 m 715 972 q 743 959 735 972 q 751 917 751 946 q 699 790 751 790 l 349 790 l 326 589 l 638 589 q 665 576 657 589 q 674 533 674 563 q 621 407 674 407 l 308 407 l 283 182 l 633 182 q 661 169 653 182 q 669 126 669 156 q 617 0 669 0 l 106 0 q 67 10 78 0 q 56 44 56 19 q 101 483 69 185 q 146 917 132 782 q 163 959 149 946 q 207 972 178 972 l 715 972 m 483 1243 q 538 1238 519 1243 q 565 1217 556 1233 l 640 1075 q 644 1058 644 1065 q 618 1040 644 1040 l 588 1040 q 533 1048 554 1040 q 499 1074 511 1056 l 464 1129 l 421 1075 q 382 1047 404 1054 q 325 1040 360 1040 l 292 1040 q 265 1054 265 1040 q 275 1075 265 1064 l 381 1217 q 413 1238 393 1233 q 468 1243 432 1243 l 483 1243 z "},"Ế":{"ha":758,"x_min":56,"x_max":822,"o":"m 769 1338 q 810 1331 797 1338 q 822 1306 822 1324 q 799 1266 822 1294 q 703 1165 776 1238 q 622 1144 679 1144 q 601 1149 607 1144 q 596 1163 596 1153 q 605 1190 596 1169 q 632 1243 614 1210 l 661 1300 q 769 1338 681 1338 m 481 1243 q 525 1238 510 1243 q 549 1217 540 1233 l 617 1075 q 621 1058 621 1065 q 594 1040 621 1040 l 564 1040 q 502 1047 525 1040 q 475 1074 479 1053 l 461 1129 l 418 1075 q 379 1047 401 1054 q 322 1040 357 1040 l 289 1040 q 263 1054 263 1040 q 272 1075 263 1064 l 378 1217 q 410 1238 390 1233 q 465 1243 429 1243 l 481 1243 m 715 972 q 743 959 735 972 q 751 917 751 946 q 699 790 751 790 l 349 790 l 326 589 l 638 589 q 665 576 657 589 q 674 533 674 563 q 621 407 674 407 l 308 407 l 283 182 l 633 182 q 661 169 653 182 q 669 126 669 156 q 617 0 669 0 l 106 0 q 67 10 78 0 q 56 44 56 19 q 101 483 69 185 q 146 917 132 782 q 163 959 149 946 q 207 972 178 972 l 715 972 z "},"Ệ":{"ha":758,"x_min":56,"x_max":751,"o":"m 56 0 m 715 972 q 743 959 735 972 q 751 917 751 946 q 699 790 751 790 l 349 790 l 326 589 l 638 589 q 665 576 657 589 q 674 533 674 563 q 621 407 674 407 l 308 407 l 283 182 l 633 182 q 661 169 653 182 q 669 126 669 156 q 617 0 669 0 l 106 0 q 67 10 78 0 q 56 44 56 19 q 101 483 69 185 q 146 917 132 782 q 163 959 149 946 q 207 972 178 972 l 715 972 m 483 1243 q 538 1238 519 1243 q 565 1217 556 1233 l 640 1075 q 644 1058 644 1065 q 618 1040 644 1040 l 588 1040 q 533 1048 554 1040 q 499 1074 511 1056 l 464 1129 l 421 1075 q 382 1047 404 1054 q 325 1040 360 1040 l 292 1040 q 265 1054 265 1040 q 275 1075 265 1064 l 381 1217 q 413 1238 393 1233 q 468 1243 432 1243 l 483 1243 m 336 -111 q 397 -122 379 -111 q 415 -156 415 -133 l 406 -239 q 318 -283 399 -283 q 257 -272 275 -283 q 239 -239 239 -261 l 249 -156 q 336 -111 253 -111 z "},"Ề":{"ha":758,"x_min":56,"x_max":751,"o":"m 567 1339 q 681 1301 668 1339 l 700 1239 q 719 1168 719 1179 q 709 1151 719 1156 q 674 1146 699 1146 q 622 1155 639 1146 q 592 1181 604 1164 l 543 1247 q 509 1295 519 1279 q 499 1317 499 1311 q 515 1334 499 1329 q 567 1339 531 1339 m 481 1243 q 525 1238 510 1243 q 549 1217 540 1233 l 617 1075 q 621 1058 621 1065 q 594 1040 621 1040 l 564 1040 q 502 1047 525 1040 q 475 1074 479 1053 l 461 1129 l 418 1075 q 379 1047 401 1054 q 322 1040 357 1040 l 289 1040 q 263 1054 263 1040 q 272 1075 263 1064 l 378 1217 q 410 1238 390 1233 q 465 1243 429 1243 l 481 1243 m 715 972 q 743 959 735 972 q 751 917 751 946 q 699 790 751 790 l 349 790 l 326 589 l 638 589 q 665 576 657 589 q 674 533 674 563 q 621 407 674 407 l 308 407 l 283 182 l 633 182 q 661 169 653 182 q 669 126 669 156 q 617 0 669 0 l 106 0 q 67 10 78 0 q 56 44 56 19 q 101 483 69 185 q 146 917 132 782 q 163 959 149 946 q 207 972 178 972 l 715 972 z "},"Ể":{"ha":758,"x_min":56,"x_max":776,"o":"m 679 1244 q 671 1262 679 1256 q 650 1268 663 1268 q 603 1256 624 1268 q 578 1244 582 1244 q 556 1266 569 1244 q 543 1303 543 1288 q 582 1329 543 1317 q 658 1342 621 1342 q 747 1317 717 1342 q 776 1250 776 1293 q 762 1210 776 1228 q 721 1176 747 1192 q 686 1157 706 1167 q 660 1147 667 1147 q 618 1156 633 1147 q 603 1176 603 1164 q 612 1192 603 1185 q 632 1204 621 1200 q 669 1224 660 1217 q 679 1244 679 1231 m 481 1243 q 525 1238 510 1243 q 549 1217 540 1233 l 617 1075 q 621 1058 621 1065 q 594 1040 621 1040 l 564 1040 q 502 1047 525 1040 q 475 1074 479 1053 l 461 1129 l 418 1075 q 379 1047 401 1054 q 322 1040 357 1040 l 289 1040 q 263 1054 263 1040 q 272 1075 263 1064 l 378 1217 q 410 1238 390 1233 q 465 1243 429 1243 l 481 1243 m 715 972 q 743 959 735 972 q 751 917 751 946 q 699 790 751 790 l 349 790 l 326 589 l 638 589 q 665 576 657 589 q 674 533 674 563 q 621 407 674 407 l 308 407 l 283 182 l 633 182 q 661 169 653 182 q 669 126 669 156 q 617 0 669 0 l 106 0 q 67 10 78 0 q 56 44 56 19 q 101 483 69 185 q 146 917 132 782 q 163 959 149 946 q 207 972 178 972 l 715 972 z "},"Ễ":{"ha":758,"x_min":56,"x_max":751,"o":"m 404 1411 q 460 1401 425 1411 q 501 1390 494 1392 q 582 1371 557 1372 q 624 1393 606 1371 q 658 1417 642 1417 q 675 1414 664 1417 l 689 1410 q 717 1372 717 1400 q 714 1353 717 1358 q 664 1284 700 1313 q 576 1256 628 1256 q 521 1265 556 1256 q 479 1276 486 1275 q 399 1296 424 1294 q 357 1274 375 1296 q 322 1250 339 1250 q 306 1253 317 1250 l 292 1257 q 264 1294 264 1267 q 267 1314 264 1308 q 317 1383 281 1354 q 404 1411 353 1411 m 490 1210 q 542 1205 524 1210 q 572 1183 560 1200 l 647 1075 q 651 1058 651 1065 q 625 1040 651 1040 l 594 1040 q 551 1047 567 1040 q 506 1074 535 1054 l 471 1110 l 428 1075 l 403 1063 q 366 1045 381 1050 q 332 1040 351 1040 l 299 1040 q 272 1054 272 1040 q 282 1075 272 1064 l 388 1183 q 424 1204 404 1199 q 475 1210 443 1210 l 490 1210 m 715 972 q 743 959 735 972 q 751 917 751 946 q 699 790 751 790 l 349 790 l 326 589 l 638 589 q 665 576 657 589 q 674 533 674 563 q 621 407 674 407 l 308 407 l 283 182 l 633 182 q 661 169 653 182 q 669 126 669 156 q 617 0 669 0 l 106 0 q 67 10 78 0 q 56 44 56 19 q 101 483 69 185 q 146 917 132 782 q 163 959 149 946 q 207 972 178 972 l 715 972 z "},"Ë":{"ha":758,"x_min":56,"x_max":751,"o":"m 56 0 m 715 972 q 743 959 735 972 q 751 917 751 946 q 699 790 751 790 l 349 790 l 326 589 l 638 589 q 665 576 657 589 q 674 533 674 563 q 621 407 674 407 l 308 407 l 283 182 l 633 182 q 661 169 653 182 q 669 126 669 156 q 617 0 669 0 l 106 0 q 67 10 78 0 q 56 44 56 19 q 101 483 69 185 q 146 917 132 782 q 163 959 149 946 q 207 972 178 972 l 715 972 m 358 1221 q 419 1210 401 1221 q 438 1176 438 1199 l 428 1093 q 340 1049 421 1049 q 279 1060 297 1049 q 261 1093 261 1071 l 271 1176 q 358 1221 275 1221 m 608 1221 q 669 1210 651 1221 q 688 1176 688 1199 l 678 1093 q 590 1049 671 1049 q 529 1060 547 1049 q 511 1093 511 1071 l 521 1176 q 608 1221 525 1221 z "},"Ė":{"ha":758,"x_min":56,"x_max":751,"o":"m 56 0 m 715 972 q 743 959 735 972 q 751 917 751 946 q 699 790 751 790 l 349 790 l 326 589 l 638 589 q 665 576 657 589 q 674 533 674 563 q 621 407 674 407 l 308 407 l 283 182 l 633 182 q 661 169 653 182 q 669 126 669 156 q 617 0 669 0 l 106 0 q 67 10 78 0 q 56 44 56 19 q 101 483 69 185 q 146 917 132 782 q 163 959 149 946 q 207 972 178 972 l 715 972 m 464 1221 q 525 1210 507 1221 q 543 1176 543 1199 l 533 1093 q 446 1049 526 1049 q 385 1060 403 1049 q 367 1093 367 1071 l 376 1176 q 464 1221 381 1221 z "},"Ẹ":{"ha":758,"x_min":56,"x_max":751,"o":"m 56 0 m 715 972 q 743 959 735 972 q 751 917 751 946 q 699 790 751 790 l 349 790 l 326 589 l 638 589 q 665 576 657 589 q 674 533 674 563 q 621 407 674 407 l 308 407 l 283 182 l 633 182 q 661 169 653 182 q 669 126 669 156 q 617 0 669 0 l 106 0 q 67 10 78 0 q 56 44 56 19 q 101 483 69 185 q 146 917 132 782 q 163 959 149 946 q 207 972 178 972 l 715 972 m 336 -111 q 397 -122 379 -111 q 415 -156 415 -133 l 406 -239 q 318 -283 399 -283 q 257 -272 275 -283 q 239 -239 239 -261 l 249 -156 q 336 -111 253 -111 z "},"È":{"ha":758,"x_min":56,"x_max":751,"o":"m 56 0 m 715 972 q 743 959 735 972 q 751 917 751 946 q 699 790 751 790 l 349 790 l 326 589 l 638 589 q 665 576 657 589 q 674 533 674 563 q 621 407 674 407 l 308 407 l 283 182 l 633 182 q 661 169 653 182 q 669 126 669 156 q 617 0 669 0 l 106 0 q 67 10 78 0 q 56 44 56 19 q 101 483 69 185 q 146 917 132 782 q 163 959 149 946 q 207 972 178 972 l 715 972 m 358 1265 q 472 1228 454 1265 l 518 1133 q 546 1067 546 1078 q 535 1049 546 1054 q 500 1044 525 1044 q 435 1053 456 1044 q 400 1079 414 1063 q 325 1169 365 1124 q 285 1219 297 1203 q 272 1243 272 1236 q 292 1260 272 1256 q 358 1265 313 1265 z "},"Ẻ":{"ha":758,"x_min":56,"x_max":751,"o":"m 56 0 m 715 972 q 743 959 735 972 q 751 917 751 946 q 699 790 751 790 l 349 790 l 326 589 l 638 589 q 665 576 657 589 q 674 533 674 563 q 621 407 674 407 l 308 407 l 283 182 l 633 182 q 661 169 653 182 q 669 126 669 156 q 617 0 669 0 l 106 0 q 67 10 78 0 q 56 44 56 19 q 101 483 69 185 q 146 917 132 782 q 163 959 149 946 q 207 972 178 972 l 715 972 m 515 1174 q 503 1196 515 1188 q 471 1204 492 1204 q 434 1196 453 1204 q 410 1188 415 1188 q 388 1209 401 1188 q 375 1246 375 1231 q 415 1274 375 1260 q 490 1289 454 1289 q 597 1259 558 1289 q 636 1182 636 1229 q 608 1116 636 1149 q 543 1060 579 1083 q 494 1038 507 1038 q 436 1047 457 1038 q 415 1067 415 1056 q 425 1085 415 1076 q 457 1108 435 1093 q 500 1141 485 1126 q 515 1174 515 1156 z "},"Ē":{"ha":758,"x_min":56,"x_max":751,"o":"m 56 0 m 715 972 q 743 959 735 972 q 751 917 751 946 q 699 790 751 790 l 349 790 l 326 589 l 638 589 q 665 576 657 589 q 674 533 674 563 q 621 407 674 407 l 308 407 l 283 182 l 633 182 q 661 169 653 182 q 669 126 669 156 q 617 0 669 0 l 106 0 q 67 10 78 0 q 56 44 56 19 q 101 483 69 185 q 146 917 132 782 q 163 959 149 946 q 207 972 178 972 l 715 972 m 636 1207 q 672 1165 672 1207 q 662 1103 672 1132 q 621 1075 651 1075 l 321 1075 q 293 1085 301 1075 q 285 1117 285 1094 q 336 1207 285 1207 l 636 1207 z "},"Ę":{"ha":758,"x_min":56,"x_max":768,"o":"m 753 -137 q 765 -147 763 -137 q 768 -179 768 -156 q 732 -237 768 -219 q 646 -254 696 -254 q 528 -217 560 -254 q 496 -131 496 -179 q 508 -60 496 -99 q 543 0 519 -22 l 106 0 q 67 10 78 0 q 56 44 56 19 q 101 483 69 185 q 146 917 132 782 q 163 959 149 946 q 207 972 178 972 l 715 972 q 743 959 735 972 q 751 917 751 946 q 699 790 751 790 l 349 790 l 326 589 l 638 589 q 665 576 657 589 q 674 533 674 563 q 621 407 674 407 l 308 407 l 283 182 l 633 182 q 661 169 653 182 q 669 126 669 156 q 617 0 669 0 l 617 -4 q 607 -33 617 -14 q 592 -97 592 -67 q 615 -145 592 -133 q 672 -157 639 -157 q 724 -147 699 -157 q 753 -137 749 -137 z "},"Ẽ":{"ha":758,"x_min":56,"x_max":751,"o":"m 56 0 m 715 972 q 743 959 735 972 q 751 917 751 946 q 699 790 751 790 l 349 790 l 326 589 l 638 589 q 665 576 657 589 q 674 533 674 563 q 621 407 674 407 l 308 407 l 283 182 l 633 182 q 661 169 653 182 q 669 126 669 156 q 617 0 669 0 l 106 0 q 67 10 78 0 q 56 44 56 19 q 101 483 69 185 q 146 917 132 782 q 163 959 149 946 q 207 972 178 972 l 715 972 m 365 1210 q 426 1200 388 1210 q 472 1189 464 1190 q 561 1169 536 1171 q 607 1192 588 1169 q 644 1215 625 1215 q 663 1213 651 1215 l 678 1208 q 710 1171 710 1199 q 706 1151 710 1160 q 651 1083 690 1111 q 554 1054 611 1054 q 508 1061 538 1054 q 449 1075 478 1068 q 360 1094 385 1093 q 314 1072 333 1094 q 275 1049 294 1049 q 257 1051 268 1049 l 242 1056 q 211 1094 211 1064 q 214 1113 211 1101 q 269 1181 229 1153 q 365 1210 310 1210 z "},"F":{"ha":699,"x_min":58,"x_max":713,"o":"m 676 972 q 704 959 696 972 q 713 917 713 946 q 660 790 713 790 l 353 790 l 331 588 l 626 588 q 654 574 646 588 q 663 532 663 561 q 610 406 663 406 l 313 406 l 274 42 q 186 -3 269 -3 l 138 -3 q 58 40 58 -3 l 150 917 q 167 959 153 946 q 211 972 182 972 l 676 972 z "},"G":{"ha":933,"x_min":57,"x_max":860,"o":"m 578 983 q 706 972 639 983 q 816 938 772 960 q 860 889 860 915 q 841 838 860 871 q 797 781 822 806 q 756 756 772 756 q 724 768 751 756 q 654 790 696 781 q 554 800 613 800 q 349 703 419 800 q 278 414 278 606 q 486 171 278 171 q 594 181 542 171 l 614 358 l 493 358 q 465 372 474 358 q 457 414 457 385 q 510 540 457 540 l 793 540 q 833 531 821 540 q 844 497 844 521 l 826 322 q 811 189 817 246 q 801 99 806 132 q 688 13 794 36 q 467 -11 581 -11 q 158 85 258 -11 q 57 383 57 182 q 190 833 57 682 q 578 983 324 983 z "},"Ğ":{"ha":933,"x_min":57,"x_max":860,"o":"m 57 0 m 578 983 q 706 972 639 983 q 816 938 772 960 q 860 889 860 915 q 841 838 860 871 q 797 781 822 806 q 756 756 772 756 q 724 768 751 756 q 654 790 696 781 q 554 800 613 800 q 349 703 419 800 q 278 414 278 606 q 486 171 278 171 q 594 181 542 171 l 614 358 l 493 358 q 465 372 474 358 q 457 414 457 385 q 510 540 457 540 l 793 540 q 833 531 821 540 q 844 497 844 521 l 826 322 q 811 189 817 246 q 801 99 806 132 q 688 13 794 36 q 467 -11 581 -11 q 158 85 258 -11 q 57 383 57 182 q 190 833 57 682 q 578 983 324 983 m 732 1239 q 765 1230 753 1239 q 776 1206 776 1221 q 746 1128 776 1165 q 665 1067 715 1090 q 556 1044 614 1044 q 457 1064 500 1044 q 390 1117 414 1083 q 367 1188 367 1150 q 421 1239 367 1239 q 444 1233 436 1239 q 464 1214 453 1228 q 501 1182 479 1193 q 569 1171 522 1171 q 639 1182 615 1171 q 675 1205 663 1193 q 692 1221 688 1217 q 732 1239 710 1239 z "},"Ĝ":{"ha":933,"x_min":57,"x_max":860,"o":"m 57 0 m 578 983 q 706 972 639 983 q 816 938 772 960 q 860 889 860 915 q 841 838 860 871 q 797 781 822 806 q 756 756 772 756 q 724 768 751 756 q 654 790 696 781 q 554 800 613 800 q 349 703 419 800 q 278 414 278 606 q 486 171 278 171 q 594 181 542 171 l 614 358 l 493 358 q 465 372 474 358 q 457 414 457 385 q 510 540 457 540 l 793 540 q 833 531 821 540 q 844 497 844 521 l 826 322 q 811 189 817 246 q 801 99 806 132 q 688 13 794 36 q 467 -11 581 -11 q 158 85 258 -11 q 57 383 57 182 q 190 833 57 682 q 578 983 324 983 m 579 1243 q 633 1238 615 1243 q 661 1217 651 1233 l 736 1075 q 740 1058 740 1065 q 714 1040 740 1040 l 683 1040 q 628 1048 650 1040 q 594 1074 607 1056 l 560 1129 l 517 1075 q 478 1047 500 1054 q 421 1040 456 1040 l 388 1040 q 361 1054 361 1040 q 371 1075 361 1064 l 476 1217 q 508 1238 489 1233 q 564 1243 528 1243 l 579 1243 z "},"Ģ":{"ha":933,"x_min":57,"x_max":860,"o":"m 57 0 m 578 983 q 706 972 639 983 q 816 938 772 960 q 860 889 860 915 q 841 838 860 871 q 797 781 822 806 q 756 756 772 756 q 724 768 751 756 q 654 790 696 781 q 554 800 613 800 q 349 703 419 800 q 278 414 278 606 q 486 171 278 171 q 594 181 542 171 l 614 358 l 493 358 q 465 372 474 358 q 457 414 457 385 q 510 540 457 540 l 793 540 q 833 531 821 540 q 844 497 844 521 l 826 322 q 811 189 817 246 q 801 99 806 132 q 688 13 794 36 q 467 -11 581 -11 q 158 85 258 -11 q 57 383 57 182 q 190 833 57 682 q 578 983 324 983 m 478 -71 q 540 -132 540 -71 q 509 -222 540 -175 q 436 -301 478 -269 q 369 -333 394 -333 q 328 -326 347 -333 q 310 -303 308 -318 q 322 -276 311 -293 q 351 -215 340 -246 q 361 -132 361 -183 q 385 -87 361 -103 q 451 -71 408 -71 l 478 -71 z "},"Ġ":{"ha":933,"x_min":57,"x_max":860,"o":"m 57 0 m 578 983 q 706 972 639 983 q 816 938 772 960 q 860 889 860 915 q 841 838 860 871 q 797 781 822 806 q 756 756 772 756 q 724 768 751 756 q 654 790 696 781 q 554 800 613 800 q 349 703 419 800 q 278 414 278 606 q 486 171 278 171 q 594 181 542 171 l 614 358 l 493 358 q 465 372 474 358 q 457 414 457 385 q 510 540 457 540 l 793 540 q 833 531 821 540 q 844 497 844 521 l 826 322 q 811 189 817 246 q 801 99 806 132 q 688 13 794 36 q 467 -11 581 -11 q 158 85 258 -11 q 57 383 57 182 q 190 833 57 682 q 578 983 324 983 m 560 1221 q 621 1210 603 1221 q 639 1176 639 1199 l 629 1093 q 542 1049 622 1049 q 481 1060 499 1049 q 463 1093 463 1071 l 472 1176 q 560 1221 476 1221 z "},"H":{"ha":1018,"x_min":58,"x_max":957,"o":"m 878 975 q 957 932 957 975 l 864 42 q 776 -3 860 -3 l 728 -3 q 649 40 649 -3 l 686 404 l 311 404 l 274 42 q 186 -3 269 -3 l 138 -3 q 58 40 58 -3 l 151 931 q 239 975 156 975 l 288 975 q 367 932 367 975 l 331 588 l 706 588 l 742 931 q 829 975 746 975 l 878 975 z "},"Ħ":{"ha":1018,"x_min":50,"x_max":993,"o":"m 957 793 q 993 751 993 793 q 983 690 993 718 q 942 661 972 661 l 929 661 l 864 42 q 776 -3 860 -3 l 728 -3 q 649 40 649 -3 l 686 404 l 311 404 l 274 42 q 186 -3 269 -3 l 138 -3 q 58 40 58 -3 l 124 661 l 86 661 q 58 671 67 661 q 50 703 50 681 q 101 793 50 793 l 138 793 l 151 931 q 239 975 156 975 l 288 975 q 367 932 367 975 l 353 793 l 728 793 l 742 931 q 829 975 746 975 l 878 975 q 957 932 957 975 l 943 793 l 957 793 m 706 588 l 714 661 l 339 661 l 331 588 l 706 588 z "},"Ĥ":{"ha":1018,"x_min":58,"x_max":957,"o":"m 58 0 m 878 975 q 957 932 957 975 l 864 42 q 776 -3 860 -3 l 728 -3 q 649 40 649 -3 l 686 404 l 311 404 l 274 42 q 186 -3 269 -3 l 138 -3 q 58 40 58 -3 l 151 931 q 239 975 156 975 l 288 975 q 367 932 367 975 l 331 588 l 706 588 l 742 931 q 829 975 746 975 l 878 975 m 582 1243 q 636 1238 618 1243 q 664 1217 654 1233 l 739 1075 q 743 1058 743 1065 q 717 1040 743 1040 l 686 1040 q 631 1048 653 1040 q 597 1074 610 1056 l 563 1129 l 519 1075 q 481 1047 503 1054 q 424 1040 458 1040 l 390 1040 q 364 1054 364 1040 q 374 1075 364 1064 l 479 1217 q 511 1238 492 1233 q 567 1243 531 1243 l 582 1243 z "},"Ḥ":{"ha":1018,"x_min":58,"x_max":957,"o":"m 58 0 m 878 975 q 957 932 957 975 l 864 42 q 776 -3 860 -3 l 728 -3 q 649 40 649 -3 l 686 404 l 311 404 l 274 42 q 186 -3 269 -3 l 138 -3 q 58 40 58 -3 l 151 931 q 239 975 156 975 l 288 975 q 367 932 367 975 l 331 588 l 706 588 l 742 931 q 829 975 746 975 l 878 975 m 458 -111 q 519 -122 501 -111 q 538 -156 538 -133 l 528 -239 q 440 -283 521 -283 q 379 -272 397 -283 q 361 -239 361 -261 l 371 -156 q 458 -111 375 -111 z "},"I":{"ha":392,"x_min":42,"x_max":350,"o":"m 271 975 q 350 932 350 975 l 257 42 q 169 -3 253 -3 l 121 -3 q 42 40 42 -3 l 135 931 q 222 975 139 975 l 271 975 z "},"Ĳ":{"ha":950,"x_min":42,"x_max":896,"o":"m 42 0 m 271 975 q 350 932 350 975 l 257 42 q 169 -3 253 -3 l 121 -3 q 42 40 42 -3 l 135 931 q 222 975 139 975 l 271 975 m 817 975 q 896 932 896 975 l 826 281 q 731 66 811 143 q 501 -11 651 -11 q 368 49 368 -11 q 396 183 368 183 q 421 177 401 183 q 483 171 440 171 q 576 205 546 171 q 615 315 607 239 l 681 931 q 768 975 685 975 l 817 975 z "},"Í":{"ha":392,"x_min":42,"x_max":482,"o":"m 42 0 m 271 975 q 350 932 350 975 l 257 42 q 169 -3 253 -3 l 121 -3 q 42 40 42 -3 l 135 931 q 222 975 139 975 l 271 975 m 401 1265 q 463 1261 443 1265 q 482 1247 482 1257 q 474 1228 482 1238 q 426 1182 467 1219 l 321 1079 q 281 1054 306 1064 q 213 1044 257 1044 q 181 1049 189 1044 q 172 1063 172 1053 q 181 1084 172 1069 q 207 1122 190 1099 q 279 1228 249 1181 q 401 1265 304 1265 z "},"Ĭ":{"ha":392,"x_min":42,"x_max":476,"o":"m 42 0 m 271 975 q 350 932 350 975 l 257 42 q 169 -3 253 -3 l 121 -3 q 42 40 42 -3 l 135 931 q 222 975 139 975 l 271 975 m 432 1239 q 465 1230 453 1239 q 476 1206 476 1221 q 446 1128 476 1165 q 365 1067 415 1090 q 256 1044 314 1044 q 157 1064 200 1044 q 90 1117 114 1083 q 67 1188 67 1150 q 121 1239 67 1239 q 144 1233 136 1239 q 164 1214 153 1228 q 201 1182 179 1193 q 269 1171 222 1171 q 339 1182 315 1171 q 375 1205 363 1193 q 392 1221 388 1217 q 432 1239 410 1239 z "},"Î":{"ha":392,"x_min":42,"x_max":440,"o":"m 42 0 m 271 975 q 350 932 350 975 l 257 42 q 169 -3 253 -3 l 121 -3 q 42 40 42 -3 l 135 931 q 222 975 139 975 l 271 975 m 279 1243 q 333 1238 315 1243 q 361 1217 351 1233 l 436 1075 q 440 1058 440 1065 q 414 1040 440 1040 l 383 1040 q 328 1048 350 1040 q 294 1074 307 1056 l 260 1129 l 217 1075 q 178 1047 200 1054 q 121 1040 156 1040 l 88 1040 q 61 1054 61 1040 q 71 1075 61 1064 l 176 1217 q 208 1238 189 1233 q 264 1243 228 1243 l 279 1243 z "},"Ï":{"ha":392,"x_min":42,"x_max":483,"o":"m 42 0 m 271 975 q 350 932 350 975 l 257 42 q 169 -3 253 -3 l 121 -3 q 42 40 42 -3 l 135 931 q 222 975 139 975 l 271 975 m 154 1221 q 215 1210 197 1221 q 233 1176 233 1199 l 224 1093 q 136 1049 217 1049 q 75 1060 93 1049 q 57 1093 57 1071 l 67 1176 q 154 1221 71 1221 m 404 1221 q 465 1210 447 1221 q 483 1176 483 1199 l 474 1093 q 386 1049 467 1049 q 325 1060 343 1049 q 307 1093 307 1071 l 317 1176 q 404 1221 321 1221 z "},"İ":{"ha":392,"x_min":42,"x_max":350,"o":"m 42 0 m 271 975 q 350 932 350 975 l 257 42 q 169 -3 253 -3 l 121 -3 q 42 40 42 -3 l 135 931 q 222 975 139 975 l 271 975 m 260 1221 q 321 1210 303 1221 q 339 1176 339 1199 l 329 1093 q 242 1049 322 1049 q 181 1060 199 1049 q 163 1093 163 1071 l 172 1176 q 260 1221 176 1221 z "},"Ị":{"ha":392,"x_min":31,"x_max":350,"o":"m 31 0 m 271 975 q 350 932 350 975 l 257 42 q 169 -3 253 -3 l 121 -3 q 42 40 42 -3 l 135 931 q 222 975 139 975 l 271 975 m 128 -111 q 189 -122 171 -111 q 207 -156 207 -133 l 197 -239 q 110 -283 190 -283 q 49 -272 67 -283 q 31 -239 31 -261 l 40 -156 q 128 -111 44 -111 z "},"Ì":{"ha":392,"x_min":42,"x_max":350,"o":"m 42 0 m 271 975 q 350 932 350 975 l 257 42 q 169 -3 253 -3 l 121 -3 q 42 40 42 -3 l 135 931 q 222 975 139 975 l 271 975 m 154 1265 q 268 1228 250 1265 l 314 1133 q 342 1067 342 1078 q 331 1049 342 1054 q 296 1044 321 1044 q 231 1053 251 1044 q 196 1079 210 1063 q 121 1169 161 1124 q 81 1219 93 1203 q 68 1243 68 1236 q 88 1260 68 1256 q 154 1265 108 1265 z "},"Ỉ":{"ha":392,"x_min":42,"x_max":432,"o":"m 42 0 m 271 975 q 350 932 350 975 l 257 42 q 169 -3 253 -3 l 121 -3 q 42 40 42 -3 l 135 931 q 222 975 139 975 l 271 975 m 311 1174 q 299 1196 311 1188 q 267 1204 288 1204 q 230 1196 249 1204 q 206 1188 211 1188 q 184 1209 197 1188 q 171 1246 171 1231 q 210 1274 171 1260 q 286 1289 250 1289 q 393 1259 354 1289 q 432 1182 432 1229 q 403 1116 432 1149 q 339 1060 375 1083 q 290 1038 303 1038 q 232 1047 253 1038 q 211 1067 211 1056 q 221 1085 211 1076 q 253 1108 231 1093 q 296 1141 281 1126 q 311 1174 311 1156 z "},"Ī":{"ha":392,"x_min":42,"x_max":468,"o":"m 42 0 m 271 975 q 350 932 350 975 l 257 42 q 169 -3 253 -3 l 121 -3 q 42 40 42 -3 l 135 931 q 222 975 139 975 l 271 975 m 432 1207 q 468 1165 468 1207 q 458 1103 468 1132 q 417 1075 447 1075 l 117 1075 q 89 1085 97 1075 q 81 1117 81 1094 q 132 1207 81 1207 l 432 1207 z "},"Į":{"ha":392,"x_min":42,"x_max":350,"o":"m 333 -137 q 346 -147 343 -137 q 349 -179 349 -156 q 313 -237 349 -219 q 226 -254 276 -254 q 108 -217 140 -254 q 76 -131 76 -179 q 88 -62 76 -100 q 121 -3 99 -25 q 42 40 42 -3 l 135 931 q 222 975 139 975 l 271 975 q 350 932 350 975 l 257 42 q 197 -1 253 6 l 197 -4 q 188 -33 197 -14 q 172 -97 172 -67 q 196 -145 172 -133 q 253 -157 219 -157 q 304 -147 279 -157 q 333 -137 329 -137 z "},"Ĩ":{"ha":392,"x_min":31,"x_max":481,"o":"m 171 1210 q 225 1200 190 1210 q 267 1189 260 1190 q 346 1169 322 1171 q 388 1192 369 1169 q 422 1215 406 1215 q 438 1213 426 1215 l 451 1208 q 481 1172 481 1199 q 476 1151 481 1160 q 427 1083 463 1111 q 340 1054 392 1054 q 287 1063 321 1054 q 244 1075 253 1072 q 165 1094 189 1093 q 124 1072 142 1094 q 89 1049 106 1049 q 72 1051 83 1049 l 58 1056 q 31 1094 31 1065 q 33 1113 31 1101 q 83 1181 47 1153 q 171 1210 119 1210 m 271 975 q 350 932 350 975 l 257 42 q 169 -3 253 -3 l 121 -3 q 42 40 42 -3 l 135 931 q 222 975 139 975 l 271 975 z "},"J":{"ha":558,"x_min":-24,"x_max":504,"o":"m 425 975 q 504 932 504 975 l 435 281 q 340 66 419 143 q 110 -11 260 -11 q -24 49 -24 -11 q 4 183 -24 183 q 29 177 10 183 q 92 171 49 171 q 185 205 154 171 q 224 315 215 239 l 289 931 q 376 975 293 975 l 425 975 z "},"Ĵ":{"ha":558,"x_min":-24,"x_max":592,"o":"m 0 0 m 425 975 q 504 932 504 975 l 435 281 q 340 66 419 143 q 110 -11 260 -11 q -24 49 -24 -11 q 4 183 -24 183 q 29 177 10 183 q 92 171 49 171 q 185 205 154 171 q 224 315 215 239 l 289 931 q 376 975 293 975 l 425 975 m 431 1243 q 485 1238 467 1243 q 513 1217 503 1233 l 588 1075 q 592 1058 592 1065 q 565 1040 592 1040 l 535 1040 q 480 1048 501 1040 q 446 1074 458 1056 l 411 1129 l 368 1075 q 329 1047 351 1054 q 272 1040 307 1040 l 239 1040 q 213 1054 213 1040 q 222 1075 213 1064 l 328 1217 q 360 1238 340 1233 q 415 1243 379 1243 l 431 1243 z "},"K":{"ha":800,"x_min":49,"x_max":833,"o":"m 757 975 q 814 969 794 975 q 833 956 833 964 q 819 925 833 943 l 508 514 l 763 47 q 771 22 771 31 q 753 3 771 10 q 692 -3 735 -3 l 611 -3 q 556 3 575 -3 q 529 24 536 8 l 311 446 l 306 444 l 264 42 q 176 -3 260 -3 l 128 -3 q 67 8 85 -3 q 49 42 49 19 l 142 931 q 229 975 146 975 l 278 975 q 339 964 321 975 q 357 931 357 953 l 318 558 l 324 557 l 606 949 q 692 975 625 975 l 757 975 z "},"Ķ":{"ha":800,"x_min":49,"x_max":833,"o":"m 49 0 m 757 975 q 814 969 794 975 q 833 956 833 964 q 819 925 833 943 l 508 514 l 763 47 q 771 22 771 31 q 753 3 771 10 q 692 -3 735 -3 l 611 -3 q 556 3 575 -3 q 529 24 536 8 l 311 446 l 306 444 l 264 42 q 176 -3 260 -3 l 128 -3 q 67 8 85 -3 q 49 42 49 19 l 142 931 q 229 975 146 975 l 278 975 q 339 964 321 975 q 357 931 357 953 l 318 558 l 324 557 l 606 949 q 692 975 625 975 l 757 975 m 386 -71 q 449 -132 449 -71 q 417 -222 449 -175 q 344 -301 386 -269 q 278 -333 303 -333 q 236 -326 256 -333 q 218 -303 217 -318 q 231 -276 219 -293 q 259 -215 249 -246 q 269 -132 269 -183 q 293 -87 269 -103 q 360 -71 317 -71 l 386 -71 z "},"L":{"ha":672,"x_min":50,"x_max":625,"o":"m 279 975 q 358 932 358 975 l 279 182 l 589 182 q 617 169 608 182 q 625 126 625 156 q 572 0 625 0 l 100 0 q 61 10 72 0 q 50 44 50 19 l 143 931 q 231 975 147 975 l 279 975 z "},"Ǉ":{"ha":997,"x_min":50,"x_max":967,"o":"m 279 975 q 358 932 358 975 l 279 182 l 492 182 q 519 169 511 182 q 528 126 528 156 q 475 0 528 0 l 100 0 q 61 10 72 0 q 50 44 50 19 l 143 931 q 231 975 147 975 l 279 975 m 888 975 q 967 932 967 975 l 869 39 q 774 -176 854 -99 q 544 -253 694 -253 q 411 -193 411 -253 q 439 -58 411 -58 q 464 -65 444 -58 q 526 -71 483 -71 q 619 -37 589 -71 q 658 74 650 -3 l 751 931 q 839 975 756 975 l 888 975 z "},"Ĺ":{"ha":672,"x_min":50,"x_max":625,"o":"m 50 0 m 279 975 q 358 932 358 975 l 279 182 l 589 182 q 617 169 608 182 q 625 126 625 156 q 572 0 625 0 l 100 0 q 61 10 72 0 q 50 44 50 19 l 143 931 q 231 975 147 975 l 279 975 m 406 1265 q 467 1261 447 1265 q 486 1247 486 1257 q 478 1228 486 1238 q 431 1182 471 1219 l 325 1079 q 285 1054 310 1064 q 217 1044 261 1044 q 185 1049 193 1044 q 176 1063 176 1053 q 185 1084 176 1069 q 211 1122 194 1099 q 283 1228 253 1181 q 406 1265 308 1265 z "},"Ľ":{"ha":672,"x_min":50,"x_max":651,"o":"m 50 0 m 279 975 q 358 932 358 975 l 279 182 l 589 182 q 617 169 608 182 q 625 126 625 156 q 572 0 625 0 l 100 0 q 61 10 72 0 q 50 44 50 19 l 143 931 q 231 975 147 975 l 279 975 m 589 972 q 651 911 651 972 q 625 821 651 868 q 564 742 599 774 q 508 710 529 710 q 467 717 486 710 q 449 739 449 725 q 454 772 449 744 q 467 833 463 804 q 472 911 472 863 q 496 956 472 940 q 563 972 519 972 l 589 972 z "},"Ļ":{"ha":672,"x_min":50,"x_max":625,"o":"m 50 0 m 279 975 q 358 932 358 975 l 279 182 l 589 182 q 617 169 608 182 q 625 126 625 156 q 572 0 625 0 l 100 0 q 61 10 72 0 q 50 44 50 19 l 143 931 q 231 975 147 975 l 279 975 m 314 -71 q 376 -132 376 -71 q 345 -222 376 -175 q 272 -301 314 -269 q 206 -333 231 -333 q 164 -326 183 -333 q 146 -303 144 -318 q 158 -276 147 -293 q 187 -215 176 -246 q 197 -132 197 -183 q 221 -87 197 -103 q 288 -71 244 -71 l 314 -71 z "},"Ŀ":{"ha":672,"x_min":50,"x_max":625,"o":"m 50 0 m 279 975 q 358 932 358 975 l 279 182 l 589 182 q 617 169 608 182 q 625 126 625 156 q 572 0 625 0 l 100 0 q 61 10 72 0 q 50 44 50 19 l 143 931 q 231 975 147 975 l 279 975 m 469 596 q 532 571 507 596 q 557 508 557 546 q 526 433 557 464 q 449 401 496 401 q 386 426 411 401 q 361 486 361 450 q 390 563 361 529 q 469 596 419 596 z "},"ǈ":{"ha":1056,"x_min":50,"x_max":1024,"o":"m 50 0 m 279 975 q 358 932 358 975 l 279 182 l 589 182 q 617 169 608 182 q 625 126 625 156 q 572 0 625 0 l 100 0 q 61 10 72 0 q 50 44 50 19 l 143 931 q 231 975 147 975 l 279 975 m 944 1047 q 1003 1035 983 1047 q 1024 1004 1024 1022 l 1011 890 q 924 846 1007 846 l 885 846 q 826 858 846 846 q 806 889 806 871 l 818 1003 q 906 1047 822 1047 l 944 1047 m 911 729 q 970 717 950 729 q 990 686 990 704 l 911 -69 q 842 -235 900 -176 q 685 -294 783 -294 q 607 -285 638 -294 q 576 -240 576 -275 q 583 -152 576 -179 q 601 -125 590 -125 q 619 -128 606 -125 q 650 -132 632 -132 q 690 -118 676 -132 q 706 -72 703 -104 l 785 685 q 872 729 789 729 l 911 729 z "},"Ł":{"ha":675,"x_min":28,"x_max":626,"o":"m 281 975 q 360 932 360 975 l 331 660 l 458 733 q 481 742 474 742 q 493 714 493 742 q 481 655 493 675 q 447 622 469 635 l 319 549 l 281 182 l 590 182 q 618 169 610 182 q 626 126 626 156 q 574 0 626 0 l 101 0 q 63 10 74 0 q 51 44 51 19 l 90 417 l 63 401 q 40 393 49 393 q 28 421 28 393 q 40 479 28 460 q 74 513 51 499 l 101 529 l 144 931 q 232 975 149 975 l 281 975 z "},"M":{"ha":1171,"x_min":57,"x_max":1129,"o":"m 1050 975 q 1111 964 1093 975 q 1129 931 1129 953 l 1036 42 q 949 -3 1032 -3 l 908 -3 q 847 8 865 -3 q 829 42 829 19 l 889 617 l 883 618 l 644 258 q 586 232 622 232 l 546 232 q 493 258 511 232 l 329 618 l 324 617 l 264 42 q 176 -3 260 -3 l 136 -3 q 75 8 93 -3 q 57 42 57 19 l 150 931 q 238 975 154 975 l 311 975 q 396 938 379 975 l 594 503 l 624 547 l 888 938 q 978 975 913 975 l 1050 975 z "},"N":{"ha":999,"x_min":49,"x_max":949,"o":"m 869 975 q 931 964 913 975 q 949 931 949 953 l 856 42 q 768 -3 851 -3 l 715 -3 q 660 5 682 -3 q 626 35 639 13 l 332 572 l 314 604 l 256 42 q 168 -3 251 -3 l 128 -3 q 67 8 85 -3 q 49 42 49 19 l 142 931 q 229 975 146 975 l 289 975 q 344 967 322 975 q 378 938 365 960 l 661 417 l 683 375 l 742 931 q 829 975 746 975 l 869 975 z "},"Ǌ":{"ha":1557,"x_min":49,"x_max":1503,"o":"m 49 0 m 869 975 q 931 964 913 975 q 949 931 949 953 l 856 42 q 768 -3 851 -3 l 715 -3 q 660 5 682 -3 q 626 35 639 13 l 332 572 l 314 604 l 256 42 q 168 -3 251 -3 l 128 -3 q 67 8 85 -3 q 49 42 49 19 l 142 931 q 229 975 146 975 l 289 975 q 344 967 322 975 q 378 938 365 960 l 661 417 l 683 375 l 742 931 q 829 975 746 975 l 869 975 m 1424 975 q 1503 932 1503 975 l 1433 281 q 1338 66 1418 143 q 1108 -11 1258 -11 q 975 49 975 -11 q 1003 183 975 183 q 1028 177 1008 183 q 1090 171 1047 171 q 1183 205 1153 171 q 1222 315 1214 239 l 1288 931 q 1375 975 1292 975 l 1424 975 z "},"Ń":{"ha":999,"x_min":49,"x_max":949,"o":"m 49 0 m 869 975 q 931 964 913 975 q 949 931 949 953 l 856 42 q 768 -3 851 -3 l 715 -3 q 660 5 682 -3 q 626 35 639 13 l 332 572 l 314 604 l 256 42 q 168 -3 251 -3 l 128 -3 q 67 8 85 -3 q 49 42 49 19 l 142 931 q 229 975 146 975 l 289 975 q 344 967 322 975 q 378 938 365 960 l 661 417 l 683 375 l 742 931 q 829 975 746 975 l 869 975 m 700 1265 q 761 1261 742 1265 q 781 1247 781 1257 q 773 1228 781 1238 q 725 1182 765 1219 l 619 1079 q 580 1054 604 1064 q 511 1044 556 1044 q 479 1049 488 1044 q 471 1063 471 1053 q 480 1084 471 1069 q 506 1122 489 1099 q 578 1228 547 1181 q 700 1265 603 1265 z "},"Ň":{"ha":999,"x_min":49,"x_max":949,"o":"m 49 0 m 869 975 q 931 964 913 975 q 949 931 949 953 l 856 42 q 768 -3 851 -3 l 715 -3 q 660 5 682 -3 q 626 35 639 13 l 332 572 l 314 604 l 256 42 q 168 -3 251 -3 l 128 -3 q 67 8 85 -3 q 49 42 49 19 l 142 931 q 229 975 146 975 l 289 975 q 344 967 322 975 q 378 938 365 960 l 661 417 l 683 375 l 742 931 q 829 975 746 975 l 869 975 m 736 1243 q 763 1229 763 1243 q 753 1208 763 1219 l 647 1067 q 615 1045 635 1050 q 560 1040 596 1040 l 544 1040 q 490 1045 508 1040 q 463 1067 472 1050 l 388 1208 q 383 1225 383 1219 q 410 1243 383 1243 l 440 1243 q 529 1210 507 1243 l 564 1154 l 607 1208 q 645 1235 624 1229 q 703 1243 667 1242 l 736 1243 z "},"Ņ":{"ha":999,"x_min":49,"x_max":949,"o":"m 49 0 m 869 975 q 931 964 913 975 q 949 931 949 953 l 856 42 q 768 -3 851 -3 l 715 -3 q 660 5 682 -3 q 626 35 639 13 l 332 572 l 314 604 l 256 42 q 168 -3 251 -3 l 128 -3 q 67 8 85 -3 q 49 42 49 19 l 142 931 q 229 975 146 975 l 289 975 q 344 967 322 975 q 378 938 365 960 l 661 417 l 683 375 l 742 931 q 829 975 746 975 l 869 975 m 485 -71 q 547 -132 547 -71 q 516 -222 547 -175 q 443 -301 485 -269 q 376 -333 401 -333 q 335 -326 354 -333 q 317 -303 315 -318 q 329 -276 318 -293 q 358 -215 347 -246 q 368 -132 368 -183 q 392 -87 368 -103 q 458 -71 415 -71 l 485 -71 z "},"Ṅ":{"ha":999,"x_min":49,"x_max":949,"o":"m 49 0 m 869 975 q 931 964 913 975 q 949 931 949 953 l 856 42 q 768 -3 851 -3 l 715 -3 q 660 5 682 -3 q 626 35 639 13 l 332 572 l 314 604 l 256 42 q 168 -3 251 -3 l 128 -3 q 67 8 85 -3 q 49 42 49 19 l 142 931 q 229 975 146 975 l 289 975 q 344 967 322 975 q 378 938 365 960 l 661 417 l 683 375 l 742 931 q 829 975 746 975 l 869 975 m 558 1221 q 619 1210 601 1221 q 638 1176 638 1199 l 628 1093 q 540 1049 621 1049 q 479 1060 497 1049 q 461 1093 461 1071 l 471 1176 q 558 1221 475 1221 z "},"Ŋ":{"ha":999,"x_min":49,"x_max":949,"o":"m 856 42 l 854 42 l 843 -69 q 774 -235 832 -176 q 617 -294 715 -294 q 539 -285 569 -294 q 508 -240 508 -275 q 515 -152 508 -179 q 533 -125 522 -125 q 551 -128 538 -125 q 582 -132 564 -132 q 622 -118 608 -132 q 638 -72 635 -104 l 646 1 l 314 604 l 256 42 q 168 -3 251 -3 l 128 -3 q 67 8 85 -3 q 49 42 49 19 l 142 931 q 229 975 146 975 l 289 975 q 344 967 322 975 q 378 938 365 960 l 654 428 l 683 375 l 742 931 q 829 975 746 975 l 869 975 q 931 964 913 975 q 949 931 949 953 l 856 42 z "},"ǋ":{"ha":1382,"x_min":49,"x_max":1350,"o":"m 49 0 m 869 975 q 931 964 913 975 q 949 931 949 953 l 856 42 q 768 -3 851 -3 l 715 -3 q 660 5 682 -3 q 626 35 639 13 l 332 572 l 314 604 l 256 42 q 168 -3 251 -3 l 128 -3 q 67 8 85 -3 q 49 42 49 19 l 142 931 q 229 975 146 975 l 289 975 q 344 967 322 975 q 378 938 365 960 l 661 417 l 683 375 l 742 931 q 829 975 746 975 l 869 975 m 1271 1047 q 1330 1035 1310 1047 q 1350 1004 1350 1022 l 1338 890 q 1250 846 1333 846 l 1211 846 q 1152 858 1172 846 q 1132 889 1132 871 l 1144 1003 q 1232 1047 1149 1047 l 1271 1047 m 1238 729 q 1297 717 1276 729 q 1317 686 1317 704 l 1238 -69 q 1168 -235 1226 -176 q 1011 -294 1110 -294 q 933 -285 964 -294 q 903 -240 903 -275 q 910 -152 903 -179 q 928 -125 917 -125 q 945 -128 932 -125 q 976 -132 958 -132 q 1016 -118 1003 -132 q 1032 -72 1029 -104 l 1111 685 q 1199 729 1115 729 l 1238 729 z "},"Ñ":{"ha":999,"x_min":49,"x_max":949,"o":"m 49 0 m 869 975 q 931 964 913 975 q 949 931 949 953 l 856 42 q 768 -3 851 -3 l 715 -3 q 660 5 682 -3 q 626 35 639 13 l 332 572 l 314 604 l 256 42 q 168 -3 251 -3 l 128 -3 q 67 8 85 -3 q 49 42 49 19 l 142 931 q 229 975 146 975 l 289 975 q 344 967 322 975 q 378 938 365 960 l 661 417 l 683 375 l 742 931 q 829 975 746 975 l 869 975 m 460 1210 q 520 1200 482 1210 q 567 1189 558 1190 q 656 1169 631 1171 q 701 1192 682 1169 q 739 1215 719 1215 q 757 1213 746 1215 l 772 1208 q 804 1171 804 1199 q 800 1151 804 1160 q 745 1083 785 1111 q 649 1054 706 1054 q 602 1061 632 1054 q 543 1075 572 1068 q 454 1094 479 1093 q 408 1072 428 1094 q 369 1049 389 1049 q 351 1051 363 1049 l 336 1056 q 306 1094 306 1064 q 308 1113 306 1101 q 364 1181 324 1153 q 460 1210 404 1210 z "},"O":{"ha":1015,"x_min":57,"x_max":957,"o":"m 560 983 q 855 878 753 983 q 957 575 957 774 q 828 140 957 292 q 456 -11 699 -11 q 160 93 263 -11 q 57 394 57 197 q 109 685 57 551 q 274 901 161 818 q 560 983 386 983 m 540 800 q 348 699 418 800 q 278 414 278 599 q 328 233 278 294 q 475 171 378 171 q 667 272 596 171 q 738 556 738 372 q 688 738 738 676 q 540 800 638 800 z "},"Ó":{"ha":1015,"x_min":57,"x_max":957,"o":"m 57 0 m 560 983 q 855 878 753 983 q 957 575 957 774 q 828 140 957 292 q 456 -11 699 -11 q 160 93 263 -11 q 57 394 57 197 q 109 685 57 551 q 274 901 161 818 q 560 983 386 983 m 540 800 q 348 699 418 800 q 278 414 278 599 q 328 233 278 294 q 475 171 378 171 q 667 272 596 171 q 738 556 738 372 q 688 738 738 676 q 540 800 638 800 m 700 1265 q 761 1261 742 1265 q 781 1247 781 1257 q 773 1228 781 1238 q 725 1182 765 1219 l 619 1079 q 580 1054 604 1064 q 511 1044 556 1044 q 479 1049 488 1044 q 471 1063 471 1053 q 480 1084 471 1069 q 506 1122 489 1099 q 578 1228 547 1181 q 700 1265 603 1265 z "},"Ŏ":{"ha":1015,"x_min":57,"x_max":957,"o":"m 57 0 m 560 983 q 855 878 753 983 q 957 575 957 774 q 828 140 957 292 q 456 -11 699 -11 q 160 93 263 -11 q 57 394 57 197 q 109 685 57 551 q 274 901 161 818 q 560 983 386 983 m 540 800 q 348 699 418 800 q 278 414 278 599 q 328 233 278 294 q 475 171 378 171 q 667 272 596 171 q 738 556 738 372 q 688 738 738 676 q 540 800 638 800 m 731 1239 q 763 1230 751 1239 q 775 1206 775 1221 q 744 1128 775 1165 q 663 1067 714 1090 q 554 1044 613 1044 q 456 1064 499 1044 q 389 1117 413 1083 q 365 1188 365 1150 q 419 1239 365 1239 q 443 1233 435 1239 q 463 1214 451 1228 q 499 1182 478 1193 q 568 1171 521 1171 q 638 1182 614 1171 q 674 1205 661 1193 q 690 1221 686 1217 q 731 1239 708 1239 z "},"Ô":{"ha":1015,"x_min":57,"x_max":957,"o":"m 57 0 m 560 983 q 855 878 753 983 q 957 575 957 774 q 828 140 957 292 q 456 -11 699 -11 q 160 93 263 -11 q 57 394 57 197 q 109 685 57 551 q 274 901 161 818 q 560 983 386 983 m 540 800 q 348 699 418 800 q 278 414 278 599 q 328 233 278 294 q 475 171 378 171 q 667 272 596 171 q 738 556 738 372 q 688 738 738 676 q 540 800 638 800 m 578 1243 q 632 1238 614 1243 q 660 1217 650 1233 l 735 1075 q 739 1058 739 1065 q 713 1040 739 1040 l 682 1040 q 627 1048 649 1040 q 593 1074 606 1056 l 558 1129 l 515 1075 q 476 1047 499 1054 q 419 1040 454 1040 l 386 1040 q 360 1054 360 1040 q 369 1075 360 1064 l 475 1217 q 507 1238 488 1233 q 563 1243 526 1243 l 578 1243 z "},"Ố":{"ha":1015,"x_min":57,"x_max":957,"o":"m 864 1338 q 904 1331 892 1338 q 917 1306 917 1324 q 894 1266 917 1294 q 797 1165 871 1238 q 717 1144 774 1144 q 696 1149 701 1144 q 690 1163 690 1153 q 699 1190 690 1169 q 726 1243 708 1210 l 756 1300 q 864 1338 775 1338 m 575 1243 q 619 1238 604 1243 q 643 1217 635 1233 l 711 1075 q 715 1058 715 1065 q 689 1040 715 1040 l 658 1040 q 597 1047 619 1040 q 569 1074 574 1053 l 556 1129 l 513 1075 q 474 1047 496 1054 q 417 1040 451 1040 l 383 1040 q 357 1054 357 1040 q 367 1075 357 1064 l 472 1217 q 504 1238 485 1233 q 560 1243 524 1243 l 575 1243 m 560 983 q 855 878 753 983 q 957 575 957 774 q 828 140 957 292 q 456 -11 699 -11 q 160 93 263 -11 q 57 394 57 197 q 109 685 57 551 q 274 901 161 818 q 560 983 386 983 m 540 800 q 348 699 418 800 q 278 414 278 599 q 328 233 278 294 q 475 171 378 171 q 667 272 596 171 q 738 556 738 372 q 688 738 738 676 q 540 800 638 800 z "},"Ộ":{"ha":1015,"x_min":57,"x_max":957,"o":"m 57 0 m 560 983 q 855 878 753 983 q 957 575 957 774 q 828 140 957 292 q 456 -11 699 -11 q 160 93 263 -11 q 57 394 57 197 q 109 685 57 551 q 274 901 161 818 q 560 983 386 983 m 540 800 q 348 699 418 800 q 278 414 278 599 q 328 233 278 294 q 475 171 378 171 q 667 272 596 171 q 738 556 738 372 q 688 738 738 676 q 540 800 638 800 m 578 1243 q 632 1238 614 1243 q 660 1217 650 1233 l 735 1075 q 739 1058 739 1065 q 713 1040 739 1040 l 682 1040 q 627 1048 649 1040 q 593 1074 606 1056 l 558 1129 l 515 1075 q 476 1047 499 1054 q 419 1040 454 1040 l 386 1040 q 360 1054 360 1040 q 369 1075 360 1064 l 475 1217 q 507 1238 488 1233 q 563 1243 526 1243 l 578 1243 m 439 -111 q 500 -122 482 -111 q 518 -156 518 -133 l 508 -239 q 421 -283 501 -283 q 360 -272 378 -283 q 342 -239 342 -261 l 351 -156 q 439 -111 356 -111 z "},"Ồ":{"ha":1015,"x_min":57,"x_max":957,"o":"m 661 1339 q 775 1301 763 1339 l 794 1239 q 814 1168 814 1179 q 803 1151 814 1156 q 768 1146 793 1146 q 716 1155 733 1146 q 686 1181 699 1164 l 638 1247 q 603 1295 614 1279 q 593 1317 593 1311 q 609 1334 593 1329 q 661 1339 625 1339 m 575 1243 q 619 1238 604 1243 q 643 1217 635 1233 l 711 1075 q 715 1058 715 1065 q 689 1040 715 1040 l 658 1040 q 597 1047 619 1040 q 569 1074 574 1053 l 556 1129 l 513 1075 q 474 1047 496 1054 q 417 1040 451 1040 l 383 1040 q 357 1054 357 1040 q 367 1075 357 1064 l 472 1217 q 504 1238 485 1233 q 560 1243 524 1243 l 575 1243 m 560 983 q 855 878 753 983 q 957 575 957 774 q 828 140 957 292 q 456 -11 699 -11 q 160 93 263 -11 q 57 394 57 197 q 109 685 57 551 q 274 901 161 818 q 560 983 386 983 m 540 800 q 348 699 418 800 q 278 414 278 599 q 328 233 278 294 q 475 171 378 171 q 667 272 596 171 q 738 556 738 372 q 688 738 738 676 q 540 800 638 800 z "},"Ổ":{"ha":1015,"x_min":57,"x_max":957,"o":"m 774 1244 q 765 1262 774 1256 q 744 1268 757 1268 q 697 1256 718 1268 q 672 1244 676 1244 q 651 1266 664 1244 q 638 1303 638 1288 q 676 1329 638 1317 q 753 1342 715 1342 q 841 1317 811 1342 q 871 1250 871 1293 q 856 1210 871 1228 q 815 1176 842 1192 q 781 1157 800 1167 q 754 1147 761 1147 q 713 1156 728 1147 q 697 1176 697 1164 q 706 1192 697 1185 q 726 1204 715 1200 q 764 1224 754 1217 q 774 1244 774 1231 m 575 1243 q 619 1238 604 1243 q 643 1217 635 1233 l 711 1075 q 715 1058 715 1065 q 689 1040 715 1040 l 658 1040 q 597 1047 619 1040 q 569 1074 574 1053 l 556 1129 l 513 1075 q 474 1047 496 1054 q 417 1040 451 1040 l 383 1040 q 357 1054 357 1040 q 367 1075 357 1064 l 472 1217 q 504 1238 485 1233 q 560 1243 524 1243 l 575 1243 m 560 983 q 855 878 753 983 q 957 575 957 774 q 828 140 957 292 q 456 -11 699 -11 q 160 93 263 -11 q 57 394 57 197 q 109 685 57 551 q 274 901 161 818 q 560 983 386 983 m 540 800 q 348 699 418 800 q 278 414 278 599 q 328 233 278 294 q 475 171 378 171 q 667 272 596 171 q 738 556 738 372 q 688 738 738 676 q 540 800 638 800 z "},"Ỗ":{"ha":1015,"x_min":57,"x_max":957,"o":"m 499 1411 q 554 1401 519 1411 q 596 1390 589 1392 q 676 1371 651 1372 q 718 1393 700 1371 q 753 1417 736 1417 q 769 1414 758 1417 l 783 1410 q 811 1372 811 1400 q 808 1353 811 1358 q 758 1284 794 1313 q 671 1256 722 1256 q 615 1265 650 1256 q 574 1276 581 1275 q 493 1296 518 1294 q 451 1274 469 1296 q 417 1250 433 1250 q 400 1253 411 1250 l 386 1257 q 358 1294 358 1267 q 361 1314 358 1308 q 411 1383 375 1354 q 499 1411 447 1411 m 585 1210 q 636 1205 618 1210 q 667 1183 654 1200 l 742 1075 q 746 1058 746 1065 q 719 1040 746 1040 l 689 1040 q 645 1047 661 1040 q 600 1074 629 1054 l 565 1110 l 522 1075 l 497 1063 q 460 1045 475 1050 q 426 1040 446 1040 l 393 1040 q 367 1054 367 1040 q 376 1075 367 1064 l 482 1183 q 518 1204 499 1199 q 569 1210 538 1210 l 585 1210 m 560 983 q 855 878 753 983 q 957 575 957 774 q 828 140 957 292 q 456 -11 699 -11 q 160 93 263 -11 q 57 394 57 197 q 109 685 57 551 q 274 901 161 818 q 560 983 386 983 m 540 800 q 348 699 418 800 q 278 414 278 599 q 328 233 278 294 q 475 171 378 171 q 667 272 596 171 q 738 556 738 372 q 688 738 738 676 q 540 800 638 800 z "},"Ö":{"ha":1015,"x_min":57,"x_max":957,"o":"m 57 0 m 560 983 q 855 878 753 983 q 957 575 957 774 q 828 140 957 292 q 456 -11 699 -11 q 160 93 263 -11 q 57 394 57 197 q 109 685 57 551 q 274 901 161 818 q 560 983 386 983 m 540 800 q 348 699 418 800 q 278 414 278 599 q 328 233 278 294 q 475 171 378 171 q 667 272 596 171 q 738 556 738 372 q 688 738 738 676 q 540 800 638 800 m 453 1221 q 514 1210 496 1221 q 532 1176 532 1199 l 522 1093 q 435 1049 515 1049 q 374 1060 392 1049 q 356 1093 356 1071 l 365 1176 q 453 1221 369 1221 m 703 1221 q 764 1210 746 1221 q 782 1176 782 1199 l 772 1093 q 685 1049 765 1049 q 624 1060 642 1049 q 606 1093 606 1071 l 615 1176 q 703 1221 619 1221 z "},"Ọ":{"ha":1015,"x_min":57,"x_max":957,"o":"m 57 0 m 560 983 q 855 878 753 983 q 957 575 957 774 q 828 140 957 292 q 456 -11 699 -11 q 160 93 263 -11 q 57 394 57 197 q 109 685 57 551 q 274 901 161 818 q 560 983 386 983 m 540 800 q 348 699 418 800 q 278 414 278 599 q 328 233 278 294 q 475 171 378 171 q 667 272 596 171 q 738 556 738 372 q 688 738 738 676 q 540 800 638 800 m 439 -111 q 500 -122 482 -111 q 518 -156 518 -133 l 508 -239 q 421 -283 501 -283 q 360 -272 378 -283 q 342 -239 342 -261 l 351 -156 q 439 -111 356 -111 z "},"Ò":{"ha":1015,"x_min":57,"x_max":957,"o":"m 57 0 m 560 983 q 855 878 753 983 q 957 575 957 774 q 828 140 957 292 q 456 -11 699 -11 q 160 93 263 -11 q 57 394 57 197 q 109 685 57 551 q 274 901 161 818 q 560 983 386 983 m 540 800 q 348 699 418 800 q 278 414 278 599 q 328 233 278 294 q 475 171 378 171 q 667 272 596 171 q 738 556 738 372 q 688 738 738 676 q 540 800 638 800 m 453 1265 q 567 1228 549 1265 l 613 1133 q 640 1067 640 1078 q 630 1049 640 1054 q 594 1044 619 1044 q 529 1053 550 1044 q 494 1079 508 1063 q 419 1169 460 1124 q 379 1219 392 1203 q 367 1243 367 1236 q 387 1260 367 1256 q 453 1265 407 1265 z "},"Ỏ":{"ha":1015,"x_min":57,"x_max":957,"o":"m 57 0 m 560 983 q 855 878 753 983 q 957 575 957 774 q 828 140 957 292 q 456 -11 699 -11 q 160 93 263 -11 q 57 394 57 197 q 109 685 57 551 q 274 901 161 818 q 560 983 386 983 m 540 800 q 348 699 418 800 q 278 414 278 599 q 328 233 278 294 q 475 171 378 171 q 667 272 596 171 q 738 556 738 372 q 688 738 738 676 q 540 800 638 800 m 610 1174 q 598 1196 610 1188 q 565 1204 586 1204 q 528 1196 547 1204 q 504 1188 510 1188 q 483 1209 496 1188 q 469 1246 469 1231 q 509 1274 469 1260 q 585 1289 549 1289 q 692 1259 653 1289 q 731 1182 731 1229 q 702 1116 731 1149 q 638 1060 674 1083 q 589 1038 601 1038 q 531 1047 551 1038 q 510 1067 510 1056 q 519 1085 510 1076 q 551 1108 529 1093 q 594 1141 579 1126 q 610 1174 610 1156 z "},"Ơ":{"ha":1015,"x_min":57,"x_max":982,"o":"m 842 892 q 957 575 957 788 q 828 140 957 292 q 456 -11 699 -11 q 160 93 263 -11 q 57 394 57 197 q 109 685 57 551 q 274 901 161 818 q 560 983 386 983 q 754 947 671 983 l 799 947 q 869 1003 869 947 q 853 1042 869 1017 q 840 1069 840 1060 q 858 1096 840 1085 l 906 1126 q 929 1133 917 1133 q 967 1096 953 1133 q 982 1024 982 1058 q 946 937 982 972 q 842 892 910 901 m 475 171 q 667 272 596 171 q 738 556 738 372 q 688 738 738 676 q 540 800 638 800 q 348 699 418 800 q 278 414 278 599 q 328 233 278 294 q 475 171 378 171 z "},"Ớ":{"ha":1015,"x_min":57,"x_max":982,"o":"m 547 1047 q 515 1051 524 1047 q 507 1065 507 1056 q 516 1087 507 1072 q 542 1125 525 1101 q 614 1231 583 1183 q 736 1268 639 1268 q 797 1264 778 1268 q 817 1250 817 1260 q 809 1231 817 1240 q 761 1185 801 1222 l 656 1082 q 616 1057 640 1067 q 547 1047 592 1047 m 842 892 q 957 575 957 788 q 828 140 957 292 q 456 -11 699 -11 q 160 93 263 -11 q 57 394 57 197 q 109 685 57 551 q 274 901 161 818 q 560 983 386 983 q 754 947 671 983 l 799 947 q 869 1003 869 947 q 853 1042 869 1017 q 840 1069 840 1060 q 858 1096 840 1085 l 906 1126 q 929 1133 917 1133 q 967 1096 953 1133 q 982 1024 982 1058 q 946 937 982 972 q 842 892 910 901 m 475 171 q 667 272 596 171 q 738 556 738 372 q 688 738 738 676 q 540 800 638 800 q 348 699 418 800 q 278 414 278 599 q 328 233 278 294 q 475 171 378 171 z "},"Ợ":{"ha":1015,"x_min":57,"x_max":982,"o":"m 842 892 q 957 575 957 788 q 828 140 957 292 q 456 -11 699 -11 q 160 93 263 -11 q 57 394 57 197 q 109 685 57 551 q 274 901 161 818 q 560 983 386 983 q 754 947 671 983 l 799 947 q 869 1003 869 947 q 853 1042 869 1017 q 840 1069 840 1060 q 858 1096 840 1085 l 906 1126 q 929 1133 917 1133 q 967 1096 953 1133 q 982 1024 982 1058 q 946 937 982 972 q 842 892 910 901 m 475 171 q 667 272 596 171 q 738 556 738 372 q 688 738 738 676 q 540 800 638 800 q 348 699 418 800 q 278 414 278 599 q 328 233 278 294 q 475 171 378 171 m 439 -111 q 500 -122 482 -111 q 518 -156 518 -133 l 508 -239 q 421 -283 501 -283 q 360 -272 378 -283 q 342 -239 342 -261 l 351 -156 q 439 -111 356 -111 z "},"Ờ":{"ha":1015,"x_min":57,"x_max":982,"o":"m 631 1047 q 565 1056 586 1047 q 531 1082 544 1065 q 456 1172 496 1126 q 415 1222 428 1206 q 403 1246 403 1239 q 423 1263 403 1258 q 489 1268 443 1268 q 603 1231 585 1268 l 649 1136 q 676 1069 676 1081 q 666 1052 676 1057 q 631 1047 656 1047 m 842 892 q 957 575 957 788 q 828 140 957 292 q 456 -11 699 -11 q 160 93 263 -11 q 57 394 57 197 q 109 685 57 551 q 274 901 161 818 q 560 983 386 983 q 754 947 671 983 l 799 947 q 869 1003 869 947 q 853 1042 869 1017 q 840 1069 840 1060 q 858 1096 840 1085 l 906 1126 q 929 1133 917 1133 q 967 1096 953 1133 q 982 1024 982 1058 q 946 937 982 972 q 842 892 910 901 m 475 171 q 667 272 596 171 q 738 556 738 372 q 688 738 738 676 q 540 800 638 800 q 348 699 418 800 q 278 414 278 599 q 328 233 278 294 q 475 171 378 171 z "},"Ở":{"ha":1015,"x_min":57,"x_max":982,"o":"m 540 1190 q 519 1212 532 1190 q 506 1249 506 1233 q 545 1277 506 1263 q 621 1292 585 1292 q 728 1262 689 1292 q 767 1185 767 1232 q 738 1119 767 1151 q 674 1063 710 1086 q 625 1040 638 1040 q 567 1049 588 1040 q 546 1069 546 1058 q 556 1088 546 1079 q 588 1111 565 1096 q 631 1144 615 1129 q 646 1176 646 1158 q 633 1199 646 1190 q 601 1207 621 1207 q 565 1199 583 1207 q 540 1190 546 1190 m 842 892 q 957 575 957 788 q 828 140 957 292 q 456 -11 699 -11 q 160 93 263 -11 q 57 394 57 197 q 109 685 57 551 q 274 901 161 818 q 560 983 386 983 q 754 947 671 983 l 799 947 q 869 1003 869 947 q 853 1042 869 1017 q 840 1069 840 1060 q 858 1096 840 1085 l 906 1126 q 929 1133 917 1133 q 967 1096 953 1133 q 982 1024 982 1058 q 946 937 982 972 q 842 892 910 901 m 475 171 q 667 272 596 171 q 738 556 738 372 q 688 738 738 676 q 540 800 638 800 q 348 699 418 800 q 278 414 278 599 q 328 233 278 294 q 475 171 378 171 z "},"Ỡ":{"ha":1015,"x_min":57,"x_max":982,"o":"m 393 1058 q 365 1097 365 1068 q 368 1115 365 1104 q 418 1184 382 1156 q 506 1213 454 1213 q 560 1203 525 1213 q 601 1192 594 1193 q 681 1172 657 1174 q 722 1194 704 1172 q 757 1218 740 1218 q 772 1215 761 1218 l 786 1211 q 815 1175 815 1201 q 811 1154 815 1163 q 762 1085 797 1114 q 675 1057 726 1057 q 622 1066 656 1057 q 579 1078 588 1075 q 500 1097 524 1096 q 458 1075 476 1097 q 424 1051 440 1051 q 407 1054 418 1051 l 393 1058 m 842 892 q 957 575 957 788 q 828 140 957 292 q 456 -11 699 -11 q 160 93 263 -11 q 57 394 57 197 q 109 685 57 551 q 274 901 161 818 q 560 983 386 983 q 754 947 671 983 l 799 947 q 869 1003 869 947 q 853 1042 869 1017 q 840 1069 840 1060 q 858 1096 840 1085 l 906 1126 q 929 1133 917 1133 q 967 1096 953 1133 q 982 1024 982 1058 q 946 937 982 972 q 842 892 910 901 m 475 171 q 667 272 596 171 q 738 556 738 372 q 688 738 738 676 q 540 800 638 800 q 348 699 418 800 q 278 414 278 599 q 328 233 278 294 q 475 171 378 171 z "},"Ő":{"ha":1015,"x_min":57,"x_max":957,"o":"m 57 0 m 560 983 q 855 878 753 983 q 957 575 957 774 q 828 140 957 292 q 456 -11 699 -11 q 160 93 263 -11 q 57 394 57 197 q 109 685 57 551 q 274 901 161 818 q 560 983 386 983 m 540 800 q 348 699 418 800 q 278 414 278 599 q 328 233 278 294 q 475 171 378 171 q 667 272 596 171 q 738 556 738 372 q 688 738 738 676 q 540 800 638 800 m 608 1265 q 669 1261 650 1265 q 689 1247 689 1257 q 681 1228 689 1238 q 633 1182 674 1219 l 528 1079 q 488 1054 513 1064 q 419 1044 464 1044 q 388 1049 396 1044 q 379 1063 379 1053 q 388 1084 379 1069 q 414 1122 397 1099 q 486 1228 456 1181 q 608 1265 511 1265 m 861 1265 q 922 1261 903 1265 q 942 1247 942 1257 q 934 1228 942 1238 q 886 1182 926 1219 l 781 1079 q 741 1054 765 1064 q 672 1044 717 1044 q 640 1049 649 1044 q 632 1063 632 1053 q 641 1084 632 1069 q 667 1122 650 1099 q 739 1228 708 1181 q 861 1265 764 1265 z "},"Ō":{"ha":1015,"x_min":57,"x_max":957,"o":"m 57 0 m 560 983 q 855 878 753 983 q 957 575 957 774 q 828 140 957 292 q 456 -11 699 -11 q 160 93 263 -11 q 57 394 57 197 q 109 685 57 551 q 274 901 161 818 q 560 983 386 983 m 540 800 q 348 699 418 800 q 278 414 278 599 q 328 233 278 294 q 475 171 378 171 q 667 272 596 171 q 738 556 738 372 q 688 738 738 676 q 540 800 638 800 m 731 1207 q 767 1165 767 1207 q 756 1103 767 1132 q 715 1075 746 1075 l 415 1075 q 388 1085 396 1075 q 379 1117 379 1094 q 431 1207 379 1207 l 731 1207 z "},"Ǫ":{"ha":1015,"x_min":57,"x_max":957,"o":"m 957 575 q 863 187 957 333 q 588 1 768 40 l 588 -4 q 578 -33 588 -14 q 563 -97 563 -67 q 586 -145 563 -133 q 643 -157 610 -157 q 694 -147 669 -157 q 724 -137 719 -137 q 736 -147 733 -137 q 739 -179 739 -156 q 703 -237 739 -219 q 617 -254 667 -254 q 499 -217 531 -254 q 467 -131 467 -179 q 476 -67 467 -101 q 504 -10 486 -33 q 456 -11 489 -11 q 160 93 263 -11 q 57 394 57 197 q 109 685 57 551 q 274 901 161 818 q 560 983 386 983 q 855 878 753 983 q 957 575 957 774 m 475 171 q 667 272 596 171 q 738 556 738 372 q 688 738 738 676 q 540 800 638 800 q 348 699 418 800 q 278 414 278 599 q 328 233 278 294 q 475 171 378 171 z "},"Ø":{"ha":1015,"x_min":26,"x_max":957,"o":"m 560 983 q 794 925 703 983 l 850 989 q 881 1006 865 1006 q 908 992 894 1006 l 931 972 q 947 942 947 958 q 933 914 947 928 l 878 851 q 957 575 957 749 q 828 140 957 292 q 456 -11 699 -11 q 185 69 285 -11 l 124 0 q 93 -17 110 -17 q 65 -3 79 -17 l 43 17 q 26 47 26 32 q 40 75 26 61 l 111 156 q 57 394 57 250 q 109 685 57 551 q 274 901 161 818 q 560 983 386 983 m 540 800 q 348 699 418 800 q 278 414 278 599 q 282 347 278 379 l 654 768 q 540 800 610 800 m 328 232 q 475 171 378 171 q 667 272 596 171 q 738 556 738 372 q 721 674 738 624 l 328 232 z "},"Ǿ":{"ha":1015,"x_min":26,"x_max":957,"o":"m 26 0 m 560 983 q 794 925 703 983 l 850 989 q 881 1006 865 1006 q 908 992 894 1006 l 931 972 q 947 942 947 958 q 933 914 947 928 l 878 851 q 957 575 957 749 q 828 140 957 292 q 456 -11 699 -11 q 185 69 285 -11 l 124 0 q 93 -17 110 -17 q 65 -3 79 -17 l 43 17 q 26 47 26 32 q 40 75 26 61 l 111 156 q 57 394 57 250 q 109 685 57 551 q 274 901 161 818 q 560 983 386 983 m 540 800 q 348 699 418 800 q 278 414 278 599 q 282 347 278 379 l 654 768 q 540 800 610 800 m 328 232 q 475 171 378 171 q 667 272 596 171 q 738 556 738 372 q 721 674 738 624 l 328 232 m 658 1265 q 719 1261 700 1265 q 739 1247 739 1257 q 731 1228 739 1238 q 683 1182 724 1219 l 578 1079 q 538 1054 563 1064 q 469 1044 514 1044 q 438 1049 446 1044 q 429 1063 429 1053 q 438 1084 429 1069 q 464 1122 447 1099 q 536 1228 506 1181 q 658 1265 561 1265 z "},"Õ":{"ha":1015,"x_min":57,"x_max":957,"o":"m 57 0 m 560 983 q 855 878 753 983 q 957 575 957 774 q 828 140 957 292 q 456 -11 699 -11 q 160 93 263 -11 q 57 394 57 197 q 109 685 57 551 q 274 901 161 818 q 560 983 386 983 m 540 800 q 348 699 418 800 q 278 414 278 599 q 328 233 278 294 q 475 171 378 171 q 667 272 596 171 q 738 556 738 372 q 688 738 738 676 q 540 800 638 800 m 460 1210 q 520 1200 482 1210 q 567 1189 558 1190 q 656 1169 631 1171 q 701 1192 682 1169 q 739 1215 719 1215 q 757 1213 746 1215 l 772 1208 q 804 1171 804 1199 q 800 1151 804 1160 q 745 1083 785 1111 q 649 1054 706 1054 q 602 1061 632 1054 q 543 1075 572 1068 q 454 1094 479 1093 q 408 1072 428 1094 q 369 1049 389 1049 q 351 1051 363 1049 l 336 1056 q 306 1094 306 1064 q 308 1113 306 1101 q 364 1181 324 1153 q 460 1210 404 1210 z "},"Œ":{"ha":1418,"x_min":57,"x_max":1385,"o":"m 1349 972 q 1376 959 1368 972 q 1385 917 1385 946 q 1332 790 1385 790 l 982 790 l 960 589 l 1271 589 q 1299 576 1290 589 q 1307 533 1307 563 q 1254 407 1307 407 l 942 407 l 917 182 l 1267 182 q 1294 169 1286 182 q 1303 126 1303 156 q 1250 0 1303 0 l 739 0 q 700 10 711 0 q 689 44 689 19 l 689 50 q 442 -11 581 -11 q 156 92 254 -11 q 57 392 57 196 q 117 713 57 579 q 286 915 176 846 q 546 983 396 983 q 779 919 686 983 q 799 960 785 947 q 840 972 813 972 l 1349 972 m 475 171 q 667 272 596 171 q 738 556 738 372 q 688 738 738 676 q 540 800 638 800 q 348 699 418 800 q 278 414 278 599 q 328 233 278 294 q 475 171 378 171 z "},"P":{"ha":792,"x_min":47,"x_max":803,"o":"m 501 972 q 712 919 621 972 q 803 718 803 865 q 740 497 803 575 q 599 391 678 418 q 451 364 519 364 l 294 364 l 261 42 q 174 -3 257 -3 l 126 -3 q 65 8 83 -3 q 47 42 47 19 l 139 917 q 156 959 142 946 q 200 972 171 972 l 501 972 m 340 790 l 314 547 l 447 547 q 542 578 501 547 q 582 689 582 610 q 550 767 582 744 q 474 790 518 790 l 340 790 z "},"Þ":{"ha":788,"x_min":47,"x_max":788,"o":"m 275 975 q 336 964 318 975 q 354 931 354 953 l 343 824 l 486 824 q 697 769 606 824 q 788 567 788 715 q 722 348 788 426 q 576 242 657 269 q 436 215 496 215 l 279 215 l 261 42 q 174 -3 257 -3 l 126 -3 q 65 8 83 -3 q 47 42 47 19 l 140 931 q 228 975 144 975 l 275 975 m 324 642 l 299 399 l 432 399 q 526 430 485 399 q 567 540 567 461 q 534 619 567 596 q 457 642 501 642 l 324 642 z "},"Q":{"ha":1015,"x_min":57,"x_max":957,"o":"m 561 981 q 856 877 754 981 q 957 575 957 774 q 885 242 957 379 q 689 43 814 104 l 688 38 l 885 -37 q 903 -51 897 -43 q 908 -75 908 -60 q 897 -196 908 -167 q 868 -225 885 -225 q 568 -103 857 -225 q 267 22 343 -8 q 111 160 164 65 q 57 397 58 254 q 110 686 57 554 q 276 899 163 818 q 561 981 389 981 m 542 800 q 349 699 419 800 q 278 413 278 597 q 328 228 278 292 q 475 165 378 165 q 667 268 597 165 q 738 560 738 371 q 688 739 738 678 q 542 800 639 800 z "},"R":{"ha":847,"x_min":49,"x_max":793,"o":"m 472 972 q 793 746 793 972 q 742 588 793 654 q 606 490 692 521 l 606 485 q 653 438 629 475 q 692 357 678 401 l 782 51 q 786 25 786 35 q 700 -3 782 -3 l 643 -3 q 565 26 575 -3 l 483 297 q 442 362 467 343 q 353 381 417 381 l 299 381 l 263 42 q 175 -3 258 -3 l 128 -3 q 67 8 85 -3 q 49 42 49 19 l 140 917 q 158 959 143 946 q 201 972 172 972 l 472 972 m 342 790 l 318 565 l 450 565 q 533 604 496 565 q 569 696 569 643 q 542 765 569 740 q 464 790 514 790 l 342 790 z "},"Ŕ":{"ha":847,"x_min":49,"x_max":793,"o":"m 49 0 m 472 972 q 793 746 793 972 q 742 588 793 654 q 606 490 692 521 l 606 485 q 653 438 629 475 q 692 357 678 401 l 782 51 q 786 25 786 35 q 700 -3 782 -3 l 643 -3 q 565 26 575 -3 l 483 297 q 442 362 467 343 q 353 381 417 381 l 299 381 l 263 42 q 175 -3 258 -3 l 128 -3 q 67 8 85 -3 q 49 42 49 19 l 140 917 q 158 959 143 946 q 201 972 172 972 l 472 972 m 342 790 l 318 565 l 450 565 q 533 604 496 565 q 569 696 569 643 q 542 765 569 740 q 464 790 514 790 l 342 790 m 611 1265 q 672 1261 653 1265 q 692 1247 692 1257 q 684 1228 692 1238 q 636 1182 676 1219 l 531 1079 q 491 1054 515 1064 q 422 1044 467 1044 q 390 1049 399 1044 q 382 1063 382 1053 q 391 1084 382 1069 q 417 1122 400 1099 q 489 1228 458 1181 q 611 1265 514 1265 z "},"Ř":{"ha":847,"x_min":49,"x_max":793,"o":"m 49 0 m 472 972 q 793 746 793 972 q 742 588 793 654 q 606 490 692 521 l 606 485 q 653 438 629 475 q 692 357 678 401 l 782 51 q 786 25 786 35 q 700 -3 782 -3 l 643 -3 q 565 26 575 -3 l 483 297 q 442 362 467 343 q 353 381 417 381 l 299 381 l 263 42 q 175 -3 258 -3 l 128 -3 q 67 8 85 -3 q 49 42 49 19 l 140 917 q 158 959 143 946 q 201 972 172 972 l 472 972 m 342 790 l 318 565 l 450 565 q 533 604 496 565 q 569 696 569 643 q 542 765 569 740 q 464 790 514 790 l 342 790 m 647 1243 q 674 1229 674 1243 q 664 1208 674 1219 l 558 1067 q 526 1045 546 1050 q 471 1040 507 1040 l 456 1040 q 401 1045 419 1040 q 374 1067 383 1050 l 299 1208 q 294 1225 294 1219 q 321 1243 294 1243 l 351 1243 q 440 1210 418 1243 l 475 1154 l 518 1208 q 556 1235 535 1229 q 614 1243 578 1242 l 647 1243 z "},"Ŗ":{"ha":847,"x_min":49,"x_max":793,"o":"m 49 0 m 472 972 q 793 746 793 972 q 742 588 793 654 q 606 490 692 521 l 606 485 q 653 438 629 475 q 692 357 678 401 l 782 51 q 786 25 786 35 q 700 -3 782 -3 l 643 -3 q 565 26 575 -3 l 483 297 q 442 362 467 343 q 353 381 417 381 l 299 381 l 263 42 q 175 -3 258 -3 l 128 -3 q 67 8 85 -3 q 49 42 49 19 l 140 917 q 158 959 143 946 q 201 972 172 972 l 472 972 m 342 790 l 318 565 l 450 565 q 533 604 496 565 q 569 696 569 643 q 542 765 569 740 q 464 790 514 790 l 342 790 m 394 -71 q 457 -132 457 -71 q 426 -222 457 -175 q 353 -301 394 -269 q 286 -333 311 -333 q 244 -326 264 -333 q 226 -303 225 -318 q 239 -276 228 -293 q 267 -215 257 -246 q 278 -132 278 -183 q 301 -87 278 -103 q 368 -71 325 -71 l 394 -71 z "},"Ṛ":{"ha":847,"x_min":49,"x_max":793,"o":"m 49 0 m 472 972 q 793 746 793 972 q 742 588 793 654 q 606 490 692 521 l 606 485 q 653 438 629 475 q 692 357 678 401 l 782 51 q 786 25 786 35 q 700 -3 782 -3 l 643 -3 q 565 26 575 -3 l 483 297 q 442 362 467 343 q 353 381 417 381 l 299 381 l 263 42 q 175 -3 258 -3 l 128 -3 q 67 8 85 -3 q 49 42 49 19 l 140 917 q 158 959 143 946 q 201 972 172 972 l 472 972 m 342 790 l 318 565 l 450 565 q 533 604 496 565 q 569 696 569 643 q 542 765 569 740 q 464 790 514 790 l 342 790 m 368 -111 q 429 -122 411 -111 q 447 -156 447 -133 l 438 -239 q 350 -283 431 -283 q 289 -272 307 -283 q 271 -239 271 -261 l 281 -156 q 368 -111 285 -111 z "},"S":{"ha":694,"x_min":36,"x_max":669,"o":"m 432 983 q 554 969 500 983 q 639 933 608 956 q 669 889 669 911 q 654 842 669 872 q 618 788 639 811 q 582 765 597 765 q 556 774 578 765 q 499 792 526 785 q 429 800 471 800 q 320 772 349 800 q 292 710 292 744 q 324 640 292 667 q 425 581 357 614 q 540 515 494 546 q 617 428 585 483 q 650 289 650 372 q 599 116 650 183 q 469 19 547 49 q 306 -11 390 -11 q 189 0 251 -11 q 81 35 126 11 q 36 97 36 60 q 69 251 36 251 q 110 231 79 251 q 190 188 150 204 q 283 171 229 171 q 384 194 342 171 q 426 275 426 218 q 390 358 426 326 q 279 429 354 390 q 169 495 211 465 q 98 576 128 525 q 68 700 68 626 q 119 860 68 796 q 253 953 171 924 q 432 983 336 983 z "},"Ś":{"ha":694,"x_min":36,"x_max":669,"o":"m 36 0 m 432 983 q 554 969 500 983 q 639 933 608 956 q 669 889 669 911 q 654 842 669 872 q 618 788 639 811 q 582 765 597 765 q 556 774 578 765 q 499 792 526 785 q 429 800 471 800 q 320 772 349 800 q 292 710 292 744 q 324 640 292 667 q 425 581 357 614 q 540 515 494 546 q 617 428 585 483 q 650 289 650 372 q 599 116 650 183 q 469 19 547 49 q 306 -11 390 -11 q 189 0 251 -11 q 81 35 126 11 q 36 97 36 60 q 69 251 36 251 q 110 231 79 251 q 190 188 150 204 q 283 171 229 171 q 384 194 342 171 q 426 275 426 218 q 390 358 426 326 q 279 429 354 390 q 169 495 211 465 q 98 576 128 525 q 68 700 68 626 q 119 860 68 796 q 253 953 171 924 q 432 983 336 983 m 551 1265 q 613 1261 593 1265 q 632 1247 632 1257 q 624 1228 632 1238 q 576 1182 617 1219 l 471 1079 q 431 1054 456 1064 q 363 1044 407 1044 q 331 1049 339 1044 q 322 1063 322 1053 q 331 1084 322 1069 q 357 1122 340 1099 q 429 1228 399 1181 q 551 1265 454 1265 z "},"Š":{"ha":694,"x_min":36,"x_max":669,"o":"m 36 0 m 432 983 q 554 969 500 983 q 639 933 608 956 q 669 889 669 911 q 654 842 669 872 q 618 788 639 811 q 582 765 597 765 q 556 774 578 765 q 499 792 526 785 q 429 800 471 800 q 320 772 349 800 q 292 710 292 744 q 324 640 292 667 q 425 581 357 614 q 540 515 494 546 q 617 428 585 483 q 650 289 650 372 q 599 116 650 183 q 469 19 547 49 q 306 -11 390 -11 q 189 0 251 -11 q 81 35 126 11 q 36 97 36 60 q 69 251 36 251 q 110 231 79 251 q 190 188 150 204 q 283 171 229 171 q 384 194 342 171 q 426 275 426 218 q 390 358 426 326 q 279 429 354 390 q 169 495 211 465 q 98 576 128 525 q 68 700 68 626 q 119 860 68 796 q 253 953 171 924 q 432 983 336 983 m 588 1243 q 614 1229 614 1243 q 604 1208 614 1219 l 499 1067 q 467 1045 486 1050 q 411 1040 447 1040 l 396 1040 q 342 1045 360 1040 q 314 1067 324 1050 l 239 1208 q 235 1225 235 1219 q 261 1243 235 1243 l 292 1243 q 381 1210 358 1243 l 415 1154 l 458 1208 q 497 1235 475 1229 q 554 1243 518 1242 l 588 1243 z "},"Ş":{"ha":694,"x_min":36,"x_max":669,"o":"m 425 581 q 540 515 494 546 q 617 428 585 483 q 650 289 650 372 q 568 81 650 154 q 368 -7 486 8 l 351 -49 q 419 -82 390 -56 q 449 -153 449 -108 q 401 -258 449 -222 q 269 -294 354 -294 q 173 -280 219 -294 q 126 -222 126 -265 q 146 -156 126 -156 q 174 -167 151 -156 q 219 -185 196 -178 q 269 -193 242 -193 q 295 -187 288 -193 q 304 -169 303 -182 q 296 -151 304 -158 q 271 -136 288 -144 q 246 -121 254 -128 q 238 -103 238 -114 q 274 -10 238 -93 q 110 22 183 -4 q 36 97 36 49 q 69 251 36 251 q 110 231 79 251 q 190 188 150 204 q 283 171 229 171 q 384 194 342 171 q 426 275 426 218 q 390 358 426 326 q 279 429 354 390 q 169 495 211 465 q 98 576 128 525 q 68 700 68 626 q 119 860 68 796 q 253 953 171 924 q 432 983 336 983 q 554 969 500 983 q 639 933 608 956 q 669 889 669 911 q 654 842 669 872 q 618 788 639 811 q 582 765 597 765 q 556 774 578 765 q 499 792 526 785 q 429 800 471 800 q 320 772 349 800 q 292 710 292 744 q 324 640 292 667 q 425 581 357 614 z "},"Ŝ":{"ha":694,"x_min":36,"x_max":669,"o":"m 36 0 m 432 983 q 554 969 500 983 q 639 933 608 956 q 669 889 669 911 q 654 842 669 872 q 618 788 639 811 q 582 765 597 765 q 556 774 578 765 q 499 792 526 785 q 429 800 471 800 q 320 772 349 800 q 292 710 292 744 q 324 640 292 667 q 425 581 357 614 q 540 515 494 546 q 617 428 585 483 q 650 289 650 372 q 599 116 650 183 q 469 19 547 49 q 306 -11 390 -11 q 189 0 251 -11 q 81 35 126 11 q 36 97 36 60 q 69 251 36 251 q 110 231 79 251 q 190 188 150 204 q 283 171 229 171 q 384 194 342 171 q 426 275 426 218 q 390 358 426 326 q 279 429 354 390 q 169 495 211 465 q 98 576 128 525 q 68 700 68 626 q 119 860 68 796 q 253 953 171 924 q 432 983 336 983 m 429 1243 q 483 1238 465 1243 q 511 1217 501 1233 l 586 1075 q 590 1058 590 1065 q 564 1040 590 1040 l 533 1040 q 478 1048 500 1040 q 444 1074 457 1056 l 410 1129 l 367 1075 q 328 1047 350 1054 q 271 1040 306 1040 l 238 1040 q 211 1054 211 1040 q 221 1075 211 1064 l 326 1217 q 358 1238 339 1233 q 414 1243 378 1243 l 429 1243 z "},"Ș":{"ha":694,"x_min":36,"x_max":669,"o":"m 36 0 m 432 983 q 554 969 500 983 q 639 933 608 956 q 669 889 669 911 q 654 842 669 872 q 618 788 639 811 q 582 765 597 765 q 556 774 578 765 q 499 792 526 785 q 429 800 471 800 q 320 772 349 800 q 292 710 292 744 q 324 640 292 667 q 425 581 357 614 q 540 515 494 546 q 617 428 585 483 q 650 289 650 372 q 599 116 650 183 q 469 19 547 49 q 306 -11 390 -11 q 189 0 251 -11 q 81 35 126 11 q 36 97 36 60 q 69 251 36 251 q 110 231 79 251 q 190 188 150 204 q 283 171 229 171 q 384 194 342 171 q 426 275 426 218 q 390 358 426 326 q 279 429 354 390 q 169 495 211 465 q 98 576 128 525 q 68 700 68 626 q 119 860 68 796 q 253 953 171 924 q 432 983 336 983 m 335 -71 q 397 -132 397 -71 q 366 -222 397 -175 q 293 -301 335 -269 q 226 -333 251 -333 q 185 -326 204 -333 q 167 -303 165 -318 q 179 -276 168 -293 q 208 -215 197 -246 q 218 -132 218 -183 q 242 -87 218 -103 q 308 -71 265 -71 l 335 -71 z "},"Ṣ":{"ha":694,"x_min":36,"x_max":669,"o":"m 36 0 m 432 983 q 554 969 500 983 q 639 933 608 956 q 669 889 669 911 q 654 842 669 872 q 618 788 639 811 q 582 765 597 765 q 556 774 578 765 q 499 792 526 785 q 429 800 471 800 q 320 772 349 800 q 292 710 292 744 q 324 640 292 667 q 425 581 357 614 q 540 515 494 546 q 617 428 585 483 q 650 289 650 372 q 599 116 650 183 q 469 19 547 49 q 306 -11 390 -11 q 189 0 251 -11 q 81 35 126 11 q 36 97 36 60 q 69 251 36 251 q 110 231 79 251 q 190 188 150 204 q 283 171 229 171 q 384 194 342 171 q 426 275 426 218 q 390 358 426 326 q 279 429 354 390 q 169 495 211 465 q 98 576 128 525 q 68 700 68 626 q 119 860 68 796 q 253 953 171 924 q 432 983 336 983 m 308 -111 q 369 -122 351 -111 q 388 -156 388 -133 l 378 -239 q 290 -283 371 -283 q 229 -272 247 -283 q 211 -239 211 -261 l 221 -156 q 308 -111 225 -111 z "},"ẞ":{"ha":972,"x_min":58,"x_max":932,"o":"m 553 983 q 728 974 654 983 q 874 949 803 965 q 905 903 892 944 q 918 828 918 861 q 914 807 918 811 l 732 551 q 886 457 840 514 q 932 321 932 400 q 885 144 932 219 q 756 29 838 69 q 572 -11 674 -11 q 436 7 500 -11 q 372 76 372 25 q 382 176 372 144 q 406 207 392 207 q 433 191 410 207 q 486 163 456 175 q 557 151 517 151 q 678 194 632 151 q 724 311 724 236 q 594 428 724 417 l 540 428 q 509 471 522 428 q 496 549 496 514 q 500 569 496 565 l 658 792 q 529 800 589 800 q 390 747 440 800 q 332 593 339 694 l 274 42 q 186 -3 269 -3 l 138 -3 q 58 40 58 -3 l 115 586 q 235 876 132 768 q 553 983 339 983 z "},"Ə":{"ha":933,"x_min":78,"x_max":868,"o":"m 471 983 q 770 883 672 983 q 868 601 868 783 q 807 255 868 392 q 644 55 746 118 q 417 -8 543 -8 q 210 38 286 -8 q 106 148 135 83 q 78 276 78 213 q 131 467 78 392 q 269 578 185 543 q 446 614 353 614 q 660 604 556 614 q 601 774 656 728 q 444 821 547 821 q 317 800 375 821 q 200 749 258 779 q 160 732 164 732 q 151 735 154 732 q 149 751 149 739 q 153 801 150 758 q 160 858 156 843 q 276 953 179 924 q 471 983 374 983 m 514 476 q 333 424 388 476 q 278 303 278 371 q 319 191 278 228 q 431 154 360 154 q 576 240 522 154 q 650 476 629 326 l 514 476 z "},"T":{"ha":763,"x_min":47,"x_max":794,"o":"m 758 972 q 786 959 778 972 q 794 917 794 946 q 742 790 794 790 l 519 790 l 440 42 q 353 -3 436 -3 l 304 -3 q 225 40 225 -3 l 304 790 l 83 790 q 56 803 64 790 q 47 846 47 817 q 100 972 47 972 l 758 972 z "},"Ŧ":{"ha":763,"x_min":47,"x_max":794,"o":"m 758 972 q 786 959 778 972 q 794 917 794 946 q 742 790 794 790 l 519 790 l 494 553 l 636 553 q 672 511 672 553 q 662 449 672 478 q 621 421 651 421 l 481 421 l 440 42 q 353 -3 436 -3 l 304 -3 q 225 40 225 -3 l 265 421 l 126 421 q 99 431 107 421 q 90 463 90 440 q 142 553 90 553 l 279 553 l 304 790 l 83 790 q 56 803 64 790 q 47 846 47 817 q 100 972 47 972 l 758 972 z "},"Ť":{"ha":763,"x_min":47,"x_max":794,"o":"m 47 0 m 758 972 q 786 959 778 972 q 794 917 794 946 q 742 790 794 790 l 519 790 l 440 42 q 353 -3 436 -3 l 304 -3 q 225 40 225 -3 l 304 790 l 83 790 q 56 803 64 790 q 47 846 47 817 q 100 972 47 972 l 758 972 m 615 1243 q 642 1229 642 1243 q 632 1208 642 1219 l 526 1067 q 494 1045 514 1050 q 439 1040 475 1040 l 424 1040 q 369 1045 388 1040 q 342 1067 351 1050 l 267 1208 q 263 1225 263 1219 q 289 1243 263 1243 l 319 1243 q 408 1210 386 1243 l 443 1154 l 486 1208 q 524 1235 503 1229 q 582 1243 546 1242 l 615 1243 z "},"Ţ":{"ha":763,"x_min":47,"x_max":794,"o":"m 758 972 q 786 959 778 972 q 794 917 794 946 q 742 790 794 790 l 519 790 l 440 42 q 371 -3 436 4 l 353 -49 q 421 -82 392 -56 q 450 -153 450 -108 q 403 -258 450 -222 q 271 -294 356 -294 q 174 -280 221 -294 q 128 -222 128 -265 q 147 -156 128 -156 q 175 -167 153 -156 q 220 -185 197 -178 q 271 -193 243 -193 q 297 -187 289 -193 q 306 -169 304 -182 q 297 -151 306 -158 q 272 -136 289 -144 q 247 -121 256 -128 q 239 -103 239 -114 q 279 -1 239 -93 q 225 40 225 4 l 304 790 l 83 790 q 56 803 64 790 q 47 846 47 817 q 100 972 47 972 l 758 972 z "},"Ț":{"ha":763,"x_min":47,"x_max":794,"o":"m 47 0 m 758 972 q 786 959 778 972 q 794 917 794 946 q 742 790 794 790 l 519 790 l 440 42 q 353 -3 436 -3 l 304 -3 q 225 40 225 -3 l 304 790 l 83 790 q 56 803 64 790 q 47 846 47 817 q 100 972 47 972 l 758 972 m 336 -71 q 399 -132 399 -71 q 367 -222 399 -175 q 294 -301 336 -269 q 228 -333 253 -333 q 186 -326 206 -333 q 168 -303 167 -318 q 181 -276 169 -293 q 209 -215 199 -246 q 219 -132 219 -183 q 243 -87 219 -103 q 310 -71 267 -71 l 336 -71 z "},"Ṭ":{"ha":763,"x_min":47,"x_max":794,"o":"m 47 0 m 758 972 q 786 959 778 972 q 794 917 794 946 q 742 790 794 790 l 519 790 l 440 42 q 353 -3 436 -3 l 304 -3 q 225 40 225 -3 l 304 790 l 83 790 q 56 803 64 790 q 47 846 47 817 q 100 972 47 972 l 758 972 m 310 -111 q 371 -122 353 -111 q 389 -156 389 -133 l 379 -239 q 292 -283 372 -283 q 231 -272 249 -283 q 213 -239 213 -261 l 222 -156 q 310 -111 226 -111 z "},"U":{"ha":989,"x_min":71,"x_max":942,"o":"m 864 975 q 924 964 907 975 q 942 931 942 953 l 879 325 q 747 77 863 165 q 440 -11 631 -11 q 167 65 264 -11 q 71 279 71 140 q 93 519 71 306 l 136 931 q 225 975 140 975 l 272 975 q 333 964 315 975 q 350 931 350 953 q 288 318 288 332 q 335 212 288 253 q 460 171 382 171 q 602 218 543 171 q 668 339 661 265 l 729 931 q 818 975 733 975 l 864 975 z "},"Ú":{"ha":989,"x_min":71,"x_max":942,"o":"m 71 0 m 864 975 q 924 964 907 975 q 942 931 942 953 l 879 325 q 747 77 863 165 q 440 -11 631 -11 q 167 65 264 -11 q 71 279 71 140 q 93 519 71 306 l 136 931 q 225 975 140 975 l 272 975 q 333 964 315 975 q 350 931 350 953 q 288 318 288 332 q 335 212 288 253 q 460 171 382 171 q 602 218 543 171 q 668 339 661 265 l 729 931 q 818 975 733 975 l 864 975 m 700 1265 q 761 1261 742 1265 q 781 1247 781 1257 q 773 1228 781 1238 q 725 1182 765 1219 l 619 1079 q 580 1054 604 1064 q 511 1044 556 1044 q 479 1049 488 1044 q 471 1063 471 1053 q 480 1084 471 1069 q 506 1122 489 1099 q 578 1228 547 1181 q 700 1265 603 1265 z "},"Ŭ":{"ha":989,"x_min":71,"x_max":942,"o":"m 71 0 m 864 975 q 924 964 907 975 q 942 931 942 953 l 879 325 q 747 77 863 165 q 440 -11 631 -11 q 167 65 264 -11 q 71 279 71 140 q 93 519 71 306 l 136 931 q 225 975 140 975 l 272 975 q 333 964 315 975 q 350 931 350 953 q 288 318 288 332 q 335 212 288 253 q 460 171 382 171 q 602 218 543 171 q 668 339 661 265 l 729 931 q 818 975 733 975 l 864 975 m 731 1239 q 763 1230 751 1239 q 775 1206 775 1221 q 744 1128 775 1165 q 663 1067 714 1090 q 554 1044 613 1044 q 456 1064 499 1044 q 389 1117 413 1083 q 365 1188 365 1150 q 419 1239 365 1239 q 443 1233 435 1239 q 463 1214 451 1228 q 499 1182 478 1193 q 568 1171 521 1171 q 638 1182 614 1171 q 674 1205 661 1193 q 690 1221 686 1217 q 731 1239 708 1239 z "},"Û":{"ha":989,"x_min":71,"x_max":942,"o":"m 71 0 m 864 975 q 924 964 907 975 q 942 931 942 953 l 879 325 q 747 77 863 165 q 440 -11 631 -11 q 167 65 264 -11 q 71 279 71 140 q 93 519 71 306 l 136 931 q 225 975 140 975 l 272 975 q 333 964 315 975 q 350 931 350 953 q 288 318 288 332 q 335 212 288 253 q 460 171 382 171 q 602 218 543 171 q 668 339 661 265 l 729 931 q 818 975 733 975 l 864 975 m 578 1243 q 632 1238 614 1243 q 660 1217 650 1233 l 735 1075 q 739 1058 739 1065 q 713 1040 739 1040 l 682 1040 q 627 1048 649 1040 q 593 1074 606 1056 l 558 1129 l 515 1075 q 476 1047 499 1054 q 419 1040 454 1040 l 386 1040 q 360 1054 360 1040 q 369 1075 360 1064 l 475 1217 q 507 1238 488 1233 q 563 1243 526 1243 l 578 1243 z "},"Ü":{"ha":989,"x_min":71,"x_max":942,"o":"m 71 0 m 864 975 q 924 964 907 975 q 942 931 942 953 l 879 325 q 747 77 863 165 q 440 -11 631 -11 q 167 65 264 -11 q 71 279 71 140 q 93 519 71 306 l 136 931 q 225 975 140 975 l 272 975 q 333 964 315 975 q 350 931 350 953 q 288 318 288 332 q 335 212 288 253 q 460 171 382 171 q 602 218 543 171 q 668 339 661 265 l 729 931 q 818 975 733 975 l 864 975 m 453 1221 q 514 1210 496 1221 q 532 1176 532 1199 l 522 1093 q 435 1049 515 1049 q 374 1060 392 1049 q 356 1093 356 1071 l 365 1176 q 453 1221 369 1221 m 703 1221 q 764 1210 746 1221 q 782 1176 782 1199 l 772 1093 q 685 1049 765 1049 q 624 1060 642 1049 q 606 1093 606 1071 l 615 1176 q 703 1221 619 1221 z "},"Ụ":{"ha":989,"x_min":71,"x_max":942,"o":"m 71 0 m 864 975 q 924 964 907 975 q 942 931 942 953 l 879 325 q 747 77 863 165 q 440 -11 631 -11 q 167 65 264 -11 q 71 279 71 140 q 93 519 71 306 l 136 931 q 225 975 140 975 l 272 975 q 333 964 315 975 q 350 931 350 953 q 288 318 288 332 q 335 212 288 253 q 460 171 382 171 q 602 218 543 171 q 668 339 661 265 l 729 931 q 818 975 733 975 l 864 975 m 425 -111 q 486 -122 468 -111 q 504 -156 504 -133 l 494 -239 q 407 -283 488 -283 q 346 -272 364 -283 q 328 -239 328 -261 l 338 -156 q 425 -111 342 -111 z "},"Ù":{"ha":989,"x_min":71,"x_max":942,"o":"m 71 0 m 864 975 q 924 964 907 975 q 942 931 942 953 l 879 325 q 747 77 863 165 q 440 -11 631 -11 q 167 65 264 -11 q 71 279 71 140 q 93 519 71 306 l 136 931 q 225 975 140 975 l 272 975 q 333 964 315 975 q 350 931 350 953 q 288 318 288 332 q 335 212 288 253 q 460 171 382 171 q 602 218 543 171 q 668 339 661 265 l 729 931 q 818 975 733 975 l 864 975 m 453 1265 q 567 1228 549 1265 l 613 1133 q 640 1067 640 1078 q 630 1049 640 1054 q 594 1044 619 1044 q 529 1053 550 1044 q 494 1079 508 1063 q 419 1169 460 1124 q 379 1219 392 1203 q 367 1243 367 1236 q 387 1260 367 1256 q 453 1265 407 1265 z "},"Ủ":{"ha":989,"x_min":71,"x_max":942,"o":"m 71 0 m 864 975 q 924 964 907 975 q 942 931 942 953 l 879 325 q 747 77 863 165 q 440 -11 631 -11 q 167 65 264 -11 q 71 279 71 140 q 93 519 71 306 l 136 931 q 225 975 140 975 l 272 975 q 333 964 315 975 q 350 931 350 953 q 288 318 288 332 q 335 212 288 253 q 460 171 382 171 q 602 218 543 171 q 668 339 661 265 l 729 931 q 818 975 733 975 l 864 975 m 610 1174 q 598 1196 610 1188 q 565 1204 586 1204 q 528 1196 547 1204 q 504 1188 510 1188 q 483 1209 496 1188 q 469 1246 469 1231 q 509 1274 469 1260 q 585 1289 549 1289 q 692 1259 653 1289 q 731 1182 731 1229 q 702 1116 731 1149 q 638 1060 674 1083 q 589 1038 601 1038 q 531 1047 551 1038 q 510 1067 510 1056 q 519 1085 510 1076 q 551 1108 529 1093 q 594 1141 579 1126 q 610 1174 610 1156 z "},"Ư":{"ha":989,"x_min":71,"x_max":1082,"o":"m 1082 1051 q 1045 965 1082 1000 q 940 919 1008 929 l 879 325 q 747 77 863 165 q 440 -11 631 -11 q 167 65 264 -11 q 71 279 71 140 q 93 519 71 306 l 136 931 q 225 975 140 975 l 272 975 q 333 964 315 975 q 350 931 350 953 q 288 318 288 332 q 335 212 288 253 q 460 171 382 171 q 602 218 543 171 q 668 339 661 265 l 729 931 q 818 975 733 975 l 899 975 q 969 1031 969 975 q 953 1069 969 1044 q 940 1097 940 1088 q 958 1124 940 1113 l 1006 1154 q 1029 1161 1017 1161 q 1067 1124 1053 1161 q 1082 1051 1082 1086 z "},"Ứ":{"ha":989,"x_min":71,"x_max":1082,"o":"m 511 1044 q 479 1049 488 1044 q 471 1063 471 1053 q 480 1084 471 1069 q 506 1122 489 1099 q 578 1228 547 1181 q 700 1265 603 1265 q 761 1261 742 1265 q 781 1247 781 1257 q 773 1228 781 1238 q 725 1182 765 1219 l 619 1079 q 580 1054 604 1064 q 511 1044 556 1044 m 1082 1051 q 1045 965 1082 1000 q 940 919 1008 929 l 879 325 q 747 77 863 165 q 440 -11 631 -11 q 167 65 264 -11 q 71 279 71 140 q 93 519 71 306 l 136 931 q 225 975 140 975 l 272 975 q 333 964 315 975 q 350 931 350 953 q 288 318 288 332 q 335 212 288 253 q 460 171 382 171 q 602 218 543 171 q 668 339 661 265 l 729 931 q 818 975 733 975 l 899 975 q 969 1031 969 975 q 953 1069 969 1044 q 940 1097 940 1088 q 958 1124 940 1113 l 1006 1154 q 1029 1161 1017 1161 q 1067 1124 1053 1161 q 1082 1051 1082 1086 z "},"Ự":{"ha":989,"x_min":71,"x_max":1082,"o":"m 1082 1051 q 1045 965 1082 1000 q 940 919 1008 929 l 879 325 q 747 77 863 165 q 440 -11 631 -11 q 167 65 264 -11 q 71 279 71 140 q 93 519 71 306 l 136 931 q 225 975 140 975 l 272 975 q 333 964 315 975 q 350 931 350 953 q 288 318 288 332 q 335 212 288 253 q 460 171 382 171 q 602 218 543 171 q 668 339 661 265 l 729 931 q 818 975 733 975 l 899 975 q 969 1031 969 975 q 953 1069 969 1044 q 940 1097 940 1088 q 958 1124 940 1113 l 1006 1154 q 1029 1161 1017 1161 q 1067 1124 1053 1161 q 1082 1051 1082 1086 m 425 -111 q 486 -122 468 -111 q 504 -156 504 -133 l 494 -239 q 407 -283 488 -283 q 346 -272 364 -283 q 328 -239 328 -261 l 338 -156 q 425 -111 342 -111 z "},"Ừ":{"ha":989,"x_min":71,"x_max":1082,"o":"m 594 1044 q 529 1053 550 1044 q 494 1079 508 1063 q 419 1169 460 1124 q 379 1219 392 1203 q 367 1243 367 1236 q 387 1260 367 1256 q 453 1265 407 1265 q 567 1228 549 1265 l 613 1133 q 640 1067 640 1078 q 630 1049 640 1054 q 594 1044 619 1044 m 1082 1051 q 1045 965 1082 1000 q 940 919 1008 929 l 879 325 q 747 77 863 165 q 440 -11 631 -11 q 167 65 264 -11 q 71 279 71 140 q 93 519 71 306 l 136 931 q 225 975 140 975 l 272 975 q 333 964 315 975 q 350 931 350 953 q 288 318 288 332 q 335 212 288 253 q 460 171 382 171 q 602 218 543 171 q 668 339 661 265 l 729 931 q 818 975 733 975 l 899 975 q 969 1031 969 975 q 953 1069 969 1044 q 940 1097 940 1088 q 958 1124 940 1113 l 1006 1154 q 1029 1161 1017 1161 q 1067 1124 1053 1161 q 1082 1051 1082 1086 z "},"Ử":{"ha":989,"x_min":71,"x_max":1082,"o":"m 504 1188 q 483 1209 496 1188 q 469 1246 469 1231 q 509 1274 469 1260 q 585 1289 549 1289 q 692 1259 653 1289 q 731 1182 731 1229 q 702 1116 731 1149 q 638 1060 674 1083 q 589 1038 601 1038 q 531 1047 551 1038 q 510 1067 510 1056 q 519 1085 510 1076 q 551 1108 529 1093 q 594 1141 579 1126 q 610 1174 610 1156 q 598 1196 610 1188 q 565 1204 586 1204 q 528 1196 547 1204 q 504 1188 510 1188 m 1082 1051 q 1045 965 1082 1000 q 940 919 1008 929 l 879 325 q 747 77 863 165 q 440 -11 631 -11 q 167 65 264 -11 q 71 279 71 140 q 93 519 71 306 l 136 931 q 225 975 140 975 l 272 975 q 333 964 315 975 q 350 931 350 953 q 288 318 288 332 q 335 212 288 253 q 460 171 382 171 q 602 218 543 171 q 668 339 661 265 l 729 931 q 818 975 733 975 l 899 975 q 969 1031 969 975 q 953 1069 969 1044 q 940 1097 940 1088 q 958 1124 940 1113 l 1006 1154 q 1029 1161 1017 1161 q 1067 1124 1053 1161 q 1082 1051 1082 1086 z "},"Ữ":{"ha":989,"x_min":71,"x_max":1082,"o":"m 336 1056 q 306 1094 306 1064 q 308 1113 306 1101 q 364 1181 324 1153 q 460 1210 404 1210 q 520 1200 482 1210 q 567 1189 558 1190 q 656 1169 631 1171 q 701 1192 682 1169 q 739 1215 719 1215 q 757 1213 746 1215 l 772 1208 q 804 1171 804 1199 q 800 1151 804 1160 q 745 1083 785 1111 q 649 1054 706 1054 q 602 1061 632 1054 q 543 1075 572 1068 q 454 1094 479 1093 q 408 1072 428 1094 q 369 1049 389 1049 q 351 1051 363 1049 l 336 1056 m 1082 1051 q 1045 965 1082 1000 q 940 919 1008 929 l 879 325 q 747 77 863 165 q 440 -11 631 -11 q 167 65 264 -11 q 71 279 71 140 q 93 519 71 306 l 136 931 q 225 975 140 975 l 272 975 q 333 964 315 975 q 350 931 350 953 q 288 318 288 332 q 335 212 288 253 q 460 171 382 171 q 602 218 543 171 q 668 339 661 265 l 729 931 q 818 975 733 975 l 899 975 q 969 1031 969 975 q 953 1069 969 1044 q 940 1097 940 1088 q 958 1124 940 1113 l 1006 1154 q 1029 1161 1017 1161 q 1067 1124 1053 1161 q 1082 1051 1082 1086 z "},"Ű":{"ha":989,"x_min":71,"x_max":942,"o":"m 71 0 m 864 975 q 924 964 907 975 q 942 931 942 953 l 879 325 q 747 77 863 165 q 440 -11 631 -11 q 167 65 264 -11 q 71 279 71 140 q 93 519 71 306 l 136 931 q 225 975 140 975 l 272 975 q 333 964 315 975 q 350 931 350 953 q 288 318 288 332 q 335 212 288 253 q 460 171 382 171 q 602 218 543 171 q 668 339 661 265 l 729 931 q 818 975 733 975 l 864 975 m 608 1265 q 669 1261 650 1265 q 689 1247 689 1257 q 681 1228 689 1238 q 633 1182 674 1219 l 528 1079 q 488 1054 513 1064 q 419 1044 464 1044 q 388 1049 396 1044 q 379 1063 379 1053 q 388 1084 379 1069 q 414 1122 397 1099 q 486 1228 456 1181 q 608 1265 511 1265 m 861 1265 q 922 1261 903 1265 q 942 1247 942 1257 q 934 1228 942 1238 q 886 1182 926 1219 l 781 1079 q 741 1054 765 1064 q 672 1044 717 1044 q 640 1049 649 1044 q 632 1063 632 1053 q 641 1084 632 1069 q 667 1122 650 1099 q 739 1228 708 1181 q 861 1265 764 1265 z "},"Ū":{"ha":989,"x_min":71,"x_max":942,"o":"m 71 0 m 864 975 q 924 964 907 975 q 942 931 942 953 l 879 325 q 747 77 863 165 q 440 -11 631 -11 q 167 65 264 -11 q 71 279 71 140 q 93 519 71 306 l 136 931 q 225 975 140 975 l 272 975 q 333 964 315 975 q 350 931 350 953 q 288 318 288 332 q 335 212 288 253 q 460 171 382 171 q 602 218 543 171 q 668 339 661 265 l 729 931 q 818 975 733 975 l 864 975 m 731 1207 q 767 1165 767 1207 q 756 1103 767 1132 q 715 1075 746 1075 l 415 1075 q 388 1085 396 1075 q 379 1117 379 1094 q 431 1207 379 1207 l 731 1207 z "},"Ų":{"ha":989,"x_min":71,"x_max":942,"o":"m 864 975 q 924 964 907 975 q 942 931 942 953 l 879 325 q 783 109 865 193 q 563 0 701 25 l 563 -4 q 553 -33 563 -14 q 538 -97 538 -67 q 561 -145 538 -133 q 618 -157 585 -157 q 669 -147 644 -157 q 699 -137 694 -137 q 711 -147 708 -137 q 714 -179 714 -156 q 678 -237 714 -219 q 592 -254 642 -254 q 474 -217 506 -254 q 442 -131 442 -179 q 451 -67 442 -101 q 479 -10 461 -33 q 440 -11 467 -11 q 167 65 264 -11 q 71 279 71 140 q 93 519 71 306 l 136 931 q 225 975 140 975 l 272 975 q 333 964 315 975 q 350 931 350 953 q 288 318 288 332 q 335 212 288 253 q 460 171 382 171 q 602 218 543 171 q 668 339 661 265 l 729 931 q 818 975 733 975 l 864 975 z "},"Ů":{"ha":989,"x_min":71,"x_max":942,"o":"m 71 0 m 864 975 q 924 964 907 975 q 942 931 942 953 l 879 325 q 747 77 863 165 q 440 -11 631 -11 q 167 65 264 -11 q 71 279 71 140 q 93 519 71 306 l 136 931 q 225 975 140 975 l 272 975 q 333 964 315 975 q 350 931 350 953 q 288 318 288 332 q 335 212 288 253 q 460 171 382 171 q 602 218 543 171 q 668 339 661 265 l 729 931 q 818 975 733 975 l 864 975 m 583 1286 q 672 1251 638 1286 q 707 1163 707 1215 q 666 1053 707 1097 q 554 1010 625 1010 q 465 1045 500 1010 q 429 1133 429 1081 q 472 1242 429 1199 q 583 1286 514 1286 m 574 1197 q 535 1180 551 1197 q 518 1140 518 1163 q 531 1108 518 1121 q 564 1096 544 1096 q 603 1112 586 1096 q 619 1150 619 1128 q 606 1183 619 1169 q 574 1197 593 1197 z "},"Ũ":{"ha":989,"x_min":71,"x_max":942,"o":"m 71 0 m 864 975 q 924 964 907 975 q 942 931 942 953 l 879 325 q 747 77 863 165 q 440 -11 631 -11 q 167 65 264 -11 q 71 279 71 140 q 93 519 71 306 l 136 931 q 225 975 140 975 l 272 975 q 333 964 315 975 q 350 931 350 953 q 288 318 288 332 q 335 212 288 253 q 460 171 382 171 q 602 218 543 171 q 668 339 661 265 l 729 931 q 818 975 733 975 l 864 975 m 460 1210 q 520 1200 482 1210 q 567 1189 558 1190 q 656 1169 631 1171 q 701 1192 682 1169 q 739 1215 719 1215 q 757 1213 746 1215 l 772 1208 q 804 1171 804 1199 q 800 1151 804 1160 q 745 1083 785 1111 q 649 1054 706 1054 q 602 1061 632 1054 q 543 1075 572 1068 q 454 1094 479 1093 q 408 1072 428 1094 q 369 1049 389 1049 q 351 1051 363 1049 l 336 1056 q 306 1094 306 1064 q 308 1113 306 1101 q 364 1181 324 1153 q 460 1210 404 1210 z "},"V":{"ha":857,"x_min":54,"x_max":890,"o":"m 811 975 q 868 969 846 975 q 890 942 890 963 q 885 919 890 931 l 492 26 q 411 -3 479 -3 l 339 -3 q 264 26 271 -3 l 93 767 q 54 935 54 931 q 79 967 54 958 q 142 975 104 975 l 188 975 q 265 935 256 975 l 390 335 l 400 285 l 406 285 l 428 336 l 682 935 q 768 975 699 975 l 811 975 z "},"W":{"ha":1225,"x_min":40,"x_max":1278,"o":"m 1194 975 q 1278 940 1278 975 q 1247 846 1278 933 q 1192 692 1215 758 l 953 26 q 925 5 947 13 q 874 -3 903 -3 l 772 -3 q 720 5 740 -3 q 699 26 700 13 l 639 481 l 622 601 l 578 476 l 421 26 q 394 5 415 13 q 342 -3 372 -3 l 242 -3 q 168 26 171 -3 l 40 929 q 60 963 40 951 q 131 975 81 975 l 167 975 q 256 932 250 975 l 313 485 l 335 285 l 403 485 l 565 946 q 590 969 571 963 q 644 975 610 975 l 697 975 q 751 969 732 975 q 771 946 769 963 l 832 485 l 858 275 l 926 485 l 1082 932 q 1179 975 1096 975 l 1194 975 z "},"Ẃ":{"ha":1225,"x_min":40,"x_max":1278,"o":"m 40 0 m 1194 975 q 1278 940 1278 975 q 1247 846 1278 933 q 1192 692 1215 758 l 953 26 q 925 5 947 13 q 874 -3 903 -3 l 772 -3 q 720 5 740 -3 q 699 26 700 13 l 639 481 l 622 601 l 578 476 l 421 26 q 394 5 415 13 q 342 -3 372 -3 l 242 -3 q 168 26 171 -3 l 40 929 q 60 963 40 951 q 131 975 81 975 l 167 975 q 256 932 250 975 l 313 485 l 335 285 l 403 485 l 565 946 q 590 969 571 963 q 644 975 610 975 l 697 975 q 751 969 732 975 q 771 946 769 963 l 832 485 l 858 275 l 926 485 l 1082 932 q 1179 975 1096 975 l 1194 975 m 821 1265 q 882 1261 863 1265 q 901 1247 901 1257 q 894 1228 901 1238 q 846 1182 886 1219 l 740 1079 q 701 1054 725 1064 q 632 1044 676 1044 q 600 1049 608 1044 q 592 1063 592 1053 q 601 1084 592 1069 q 626 1122 610 1099 q 699 1228 668 1181 q 821 1265 724 1265 z "},"Ŵ":{"ha":1225,"x_min":40,"x_max":1278,"o":"m 40 0 m 1194 975 q 1278 940 1278 975 q 1247 846 1278 933 q 1192 692 1215 758 l 953 26 q 925 5 947 13 q 874 -3 903 -3 l 772 -3 q 720 5 740 -3 q 699 26 700 13 l 639 481 l 622 601 l 578 476 l 421 26 q 394 5 415 13 q 342 -3 372 -3 l 242 -3 q 168 26 171 -3 l 40 929 q 60 963 40 951 q 131 975 81 975 l 167 975 q 256 932 250 975 l 313 485 l 335 285 l 403 485 l 565 946 q 590 969 571 963 q 644 975 610 975 l 697 975 q 751 969 732 975 q 771 946 769 963 l 832 485 l 858 275 l 926 485 l 1082 932 q 1179 975 1096 975 l 1194 975 m 699 1243 q 753 1238 735 1243 q 781 1217 771 1233 l 856 1075 q 860 1058 860 1065 q 833 1040 860 1040 l 803 1040 q 748 1048 769 1040 q 714 1074 726 1056 l 679 1129 l 636 1075 q 597 1047 619 1054 q 540 1040 575 1040 l 507 1040 q 481 1054 481 1040 q 490 1075 481 1064 l 596 1217 q 628 1238 608 1233 q 683 1243 647 1243 l 699 1243 z "},"Ẅ":{"ha":1225,"x_min":40,"x_max":1278,"o":"m 40 0 m 1194 975 q 1278 940 1278 975 q 1247 846 1278 933 q 1192 692 1215 758 l 953 26 q 925 5 947 13 q 874 -3 903 -3 l 772 -3 q 720 5 740 -3 q 699 26 700 13 l 639 481 l 622 601 l 578 476 l 421 26 q 394 5 415 13 q 342 -3 372 -3 l 242 -3 q 168 26 171 -3 l 40 929 q 60 963 40 951 q 131 975 81 975 l 167 975 q 256 932 250 975 l 313 485 l 335 285 l 403 485 l 565 946 q 590 969 571 963 q 644 975 610 975 l 697 975 q 751 969 732 975 q 771 946 769 963 l 832 485 l 858 275 l 926 485 l 1082 932 q 1179 975 1096 975 l 1194 975 m 574 1221 q 635 1210 617 1221 q 653 1176 653 1199 l 643 1093 q 556 1049 636 1049 q 494 1060 513 1049 q 476 1093 476 1071 l 486 1176 q 574 1221 490 1221 m 824 1221 q 885 1210 867 1221 q 903 1176 903 1199 l 893 1093 q 806 1049 886 1049 q 744 1060 763 1049 q 726 1093 726 1071 l 736 1176 q 824 1221 740 1221 z "},"Ẁ":{"ha":1225,"x_min":40,"x_max":1278,"o":"m 40 0 m 1194 975 q 1278 940 1278 975 q 1247 846 1278 933 q 1192 692 1215 758 l 953 26 q 925 5 947 13 q 874 -3 903 -3 l 772 -3 q 720 5 740 -3 q 699 26 700 13 l 639 481 l 622 601 l 578 476 l 421 26 q 394 5 415 13 q 342 -3 372 -3 l 242 -3 q 168 26 171 -3 l 40 929 q 60 963 40 951 q 131 975 81 975 l 167 975 q 256 932 250 975 l 313 485 l 335 285 l 403 485 l 565 946 q 590 969 571 963 q 644 975 610 975 l 697 975 q 751 969 732 975 q 771 946 769 963 l 832 485 l 858 275 l 926 485 l 1082 932 q 1179 975 1096 975 l 1194 975 m 574 1265 q 688 1228 669 1265 l 733 1133 q 761 1067 761 1078 q 751 1049 761 1054 q 715 1044 740 1044 q 650 1053 671 1044 q 615 1079 629 1063 q 540 1169 581 1124 q 500 1219 513 1203 q 488 1243 488 1236 q 508 1260 488 1256 q 574 1265 528 1265 z "},"X":{"ha":849,"x_min":-43,"x_max":860,"o":"m 778 975 q 838 970 815 975 q 860 947 860 965 q 846 914 860 933 l 540 504 l 771 58 q 778 32 778 42 q 753 4 778 11 q 690 -3 729 -3 l 636 -3 q 581 3 599 -3 q 556 24 563 8 l 401 322 l 179 24 q 147 2 165 7 q 92 -3 128 -3 l 39 -3 q -21 2 1 -3 q -43 25 -43 7 q -28 58 -43 39 l 304 507 l 93 914 q 85 942 85 931 q 108 969 85 963 q 174 975 131 975 l 231 975 q 283 969 264 975 q 311 949 303 964 l 443 690 l 636 949 q 669 970 649 965 q 724 975 689 975 l 778 975 z "},"Y":{"ha":776,"x_min":44,"x_max":835,"o":"m 750 975 q 835 947 835 975 q 819 913 835 935 l 496 463 l 451 42 q 364 -3 447 -3 l 317 -3 q 256 8 274 -3 q 238 42 238 19 l 282 467 l 53 913 q 44 942 44 929 q 67 969 44 963 q 133 975 90 975 l 193 975 q 274 949 261 975 l 413 651 l 614 949 q 700 975 632 975 l 750 975 z "},"Ý":{"ha":776,"x_min":44,"x_max":835,"o":"m 44 0 m 750 975 q 835 947 835 975 q 819 913 835 935 l 496 463 l 451 42 q 364 -3 447 -3 l 317 -3 q 256 8 274 -3 q 238 42 238 19 l 282 467 l 53 913 q 44 942 44 929 q 67 969 44 963 q 133 975 90 975 l 193 975 q 274 949 261 975 l 413 651 l 614 949 q 700 975 632 975 l 750 975 m 585 1265 q 646 1261 626 1265 q 665 1247 665 1257 q 658 1228 665 1238 q 610 1182 650 1219 l 504 1079 q 465 1054 489 1064 q 396 1044 440 1044 q 364 1049 372 1044 q 356 1063 356 1053 q 365 1084 356 1069 q 390 1122 374 1099 q 463 1228 432 1181 q 585 1265 488 1265 z "},"Ŷ":{"ha":776,"x_min":44,"x_max":835,"o":"m 44 0 m 750 975 q 835 947 835 975 q 819 913 835 935 l 496 463 l 451 42 q 364 -3 447 -3 l 317 -3 q 256 8 274 -3 q 238 42 238 19 l 282 467 l 53 913 q 44 942 44 929 q 67 969 44 963 q 133 975 90 975 l 193 975 q 274 949 261 975 l 413 651 l 614 949 q 700 975 632 975 l 750 975 m 463 1243 q 517 1238 499 1243 q 544 1217 535 1233 l 619 1075 q 624 1058 624 1065 q 597 1040 624 1040 l 567 1040 q 512 1048 533 1040 q 478 1074 490 1056 l 443 1129 l 400 1075 q 361 1047 383 1054 q 304 1040 339 1040 l 271 1040 q 244 1054 244 1040 q 254 1075 244 1064 l 360 1217 q 392 1238 372 1233 q 447 1243 411 1243 l 463 1243 z "},"Ÿ":{"ha":776,"x_min":44,"x_max":835,"o":"m 44 0 m 750 975 q 835 947 835 975 q 819 913 835 935 l 496 463 l 451 42 q 364 -3 447 -3 l 317 -3 q 256 8 274 -3 q 238 42 238 19 l 282 467 l 53 913 q 44 942 44 929 q 67 969 44 963 q 133 975 90 975 l 193 975 q 274 949 261 975 l 413 651 l 614 949 q 700 975 632 975 l 750 975 m 338 1221 q 399 1210 381 1221 q 417 1176 417 1199 l 407 1093 q 319 1049 400 1049 q 258 1060 276 1049 q 240 1093 240 1071 l 250 1176 q 338 1221 254 1221 m 588 1221 q 649 1210 631 1221 q 667 1176 667 1199 l 657 1093 q 569 1049 650 1049 q 508 1060 526 1049 q 490 1093 490 1071 l 500 1176 q 588 1221 504 1221 z "},"Ỵ":{"ha":776,"x_min":44,"x_max":835,"o":"m 44 0 m 750 975 q 835 947 835 975 q 819 913 835 935 l 496 463 l 451 42 q 364 -3 447 -3 l 317 -3 q 256 8 274 -3 q 238 42 238 19 l 282 467 l 53 913 q 44 942 44 929 q 67 969 44 963 q 133 975 90 975 l 193 975 q 274 949 261 975 l 413 651 l 614 949 q 700 975 632 975 l 750 975 m 326 -111 q 388 -122 369 -111 q 406 -156 406 -133 l 396 -239 q 308 -283 389 -283 q 247 -272 265 -283 q 229 -239 229 -261 l 239 -156 q 326 -111 243 -111 z "},"Ỳ":{"ha":776,"x_min":44,"x_max":835,"o":"m 44 0 m 750 975 q 835 947 835 975 q 819 913 835 935 l 496 463 l 451 42 q 364 -3 447 -3 l 317 -3 q 256 8 274 -3 q 238 42 238 19 l 282 467 l 53 913 q 44 942 44 929 q 67 969 44 963 q 133 975 90 975 l 193 975 q 274 949 261 975 l 413 651 l 614 949 q 700 975 632 975 l 750 975 m 338 1265 q 451 1228 433 1265 l 497 1133 q 525 1067 525 1078 q 515 1049 525 1054 q 479 1044 504 1044 q 414 1053 435 1044 q 379 1079 393 1063 q 304 1169 344 1124 q 264 1219 276 1203 q 251 1243 251 1236 q 272 1260 251 1256 q 338 1265 292 1265 z "},"Ỷ":{"ha":776,"x_min":44,"x_max":835,"o":"m 44 0 m 750 975 q 835 947 835 975 q 819 913 835 935 l 496 463 l 451 42 q 364 -3 447 -3 l 317 -3 q 256 8 274 -3 q 238 42 238 19 l 282 467 l 53 913 q 44 942 44 929 q 67 969 44 963 q 133 975 90 975 l 193 975 q 274 949 261 975 l 413 651 l 614 949 q 700 975 632 975 l 750 975 m 494 1174 q 483 1196 494 1188 q 450 1204 471 1204 q 413 1196 432 1204 q 389 1188 394 1188 q 367 1209 381 1188 q 354 1246 354 1231 q 394 1274 354 1260 q 469 1289 433 1289 q 576 1259 538 1289 q 615 1182 615 1229 q 587 1116 615 1149 q 522 1060 558 1083 q 474 1038 486 1038 q 415 1047 436 1038 q 394 1067 394 1056 q 404 1085 394 1076 q 436 1108 414 1093 q 479 1141 464 1126 q 494 1174 494 1156 z "},"Ỹ":{"ha":776,"x_min":44,"x_max":835,"o":"m 44 0 m 750 975 q 835 947 835 975 q 819 913 835 935 l 496 463 l 451 42 q 364 -3 447 -3 l 317 -3 q 256 8 274 -3 q 238 42 238 19 l 282 467 l 53 913 q 44 942 44 929 q 67 969 44 963 q 133 975 90 975 l 193 975 q 274 949 261 975 l 413 651 l 614 949 q 700 975 632 975 l 750 975 m 344 1210 q 405 1200 367 1210 q 451 1189 443 1190 q 540 1169 515 1171 q 586 1192 567 1169 q 624 1215 604 1215 q 642 1213 631 1215 l 657 1208 q 689 1171 689 1199 q 685 1151 689 1160 q 630 1083 669 1111 q 533 1054 590 1054 q 487 1061 517 1054 q 428 1075 457 1068 q 339 1094 364 1093 q 293 1072 313 1094 q 254 1049 274 1049 q 236 1051 247 1049 l 221 1056 q 190 1094 190 1064 q 193 1113 190 1101 q 249 1181 208 1153 q 344 1210 289 1210 z "},"Z":{"ha":856,"x_min":1,"x_max":839,"o":"m 794 972 q 826 929 813 972 q 839 851 839 886 q 835 831 839 835 l 304 182 l 728 182 q 756 169 747 182 q 764 126 764 156 q 711 0 764 0 l 46 0 q 15 43 28 0 q 1 121 1 86 q 6 142 1 138 l 535 790 l 149 790 q 121 803 129 790 q 113 846 113 817 q 165 972 113 972 l 794 972 z "},"Ź":{"ha":856,"x_min":1,"x_max":839,"o":"m 1 0 m 794 972 q 826 929 813 972 q 839 851 839 886 q 835 831 839 835 l 304 182 l 728 182 q 756 169 747 182 q 764 126 764 156 q 711 0 764 0 l 46 0 q 15 43 28 0 q 1 121 1 86 q 6 142 1 138 l 535 790 l 149 790 q 121 803 129 790 q 113 846 113 817 q 165 972 113 972 l 794 972 m 611 1265 q 672 1261 653 1265 q 692 1247 692 1257 q 684 1228 692 1238 q 636 1182 676 1219 l 531 1079 q 491 1054 515 1064 q 422 1044 467 1044 q 390 1049 399 1044 q 382 1063 382 1053 q 391 1084 382 1069 q 417 1122 400 1099 q 489 1228 458 1181 q 611 1265 514 1265 z "},"Ž":{"ha":856,"x_min":1,"x_max":839,"o":"m 1 0 m 794 972 q 826 929 813 972 q 839 851 839 886 q 835 831 839 835 l 304 182 l 728 182 q 756 169 747 182 q 764 126 764 156 q 711 0 764 0 l 46 0 q 15 43 28 0 q 1 121 1 86 q 6 142 1 138 l 535 790 l 149 790 q 121 803 129 790 q 113 846 113 817 q 165 972 113 972 l 794 972 m 647 1243 q 674 1229 674 1243 q 664 1208 674 1219 l 558 1067 q 526 1045 546 1050 q 471 1040 507 1040 l 456 1040 q 401 1045 419 1040 q 374 1067 383 1050 l 299 1208 q 294 1225 294 1219 q 321 1243 294 1243 l 351 1243 q 440 1210 418 1243 l 475 1154 l 518 1208 q 556 1235 535 1229 q 614 1243 578 1242 l 647 1243 z "},"Ż":{"ha":856,"x_min":1,"x_max":839,"o":"m 1 0 m 794 972 q 826 929 813 972 q 839 851 839 886 q 835 831 839 835 l 304 182 l 728 182 q 756 169 747 182 q 764 126 764 156 q 711 0 764 0 l 46 0 q 15 43 28 0 q 1 121 1 86 q 6 142 1 138 l 535 790 l 149 790 q 121 803 129 790 q 113 846 113 817 q 165 972 113 972 l 794 972 m 469 1221 q 531 1210 513 1221 q 549 1176 549 1199 l 539 1093 q 451 1049 532 1049 q 390 1060 408 1049 q 372 1093 372 1071 l 382 1176 q 469 1221 386 1221 z "},"Ẓ":{"ha":856,"x_min":1,"x_max":839,"o":"m 1 0 m 794 972 q 826 929 813 972 q 839 851 839 886 q 835 831 839 835 l 304 182 l 728 182 q 756 169 747 182 q 764 126 764 156 q 711 0 764 0 l 46 0 q 15 43 28 0 q 1 121 1 86 q 6 142 1 138 l 535 790 l 149 790 q 121 803 129 790 q 113 846 113 817 q 165 972 113 972 l 794 972 m 364 -111 q 425 -122 407 -111 q 443 -156 443 -133 l 433 -239 q 346 -283 426 -283 q 285 -272 303 -283 q 267 -239 267 -261 l 276 -156 q 364 -111 281 -111 z "},"a":{"ha":757,"x_min":33,"x_max":739,"o":"m 728 160 q 737 157 735 160 q 739 144 739 154 q 729 61 739 118 q 686 8 724 26 q 607 -11 649 -11 q 447 94 475 -11 q 367 17 417 47 q 258 -12 317 -12 q 94 66 156 -12 q 33 289 33 144 q 72 522 33 421 q 181 680 111 624 q 342 736 251 736 q 437 714 394 736 q 510 663 479 692 q 525 703 518 692 q 549 722 532 715 q 600 728 565 728 l 617 728 q 697 693 697 728 l 685 571 q 646 196 646 210 q 656 162 646 172 q 688 151 665 151 q 712 156 700 151 q 728 160 724 160 m 474 499 l 481 536 q 389 574 438 574 q 280 503 318 574 q 242 301 242 433 q 336 156 242 156 q 444 236 393 156 l 454 335 q 467 465 461 429 l 474 499 z "},"á":{"ha":757,"x_min":33,"x_max":739,"o":"m 33 0 m 728 160 q 737 157 735 160 q 739 144 739 154 q 729 61 739 118 q 686 8 724 26 q 607 -11 649 -11 q 447 94 475 -11 q 367 17 417 47 q 258 -12 317 -12 q 94 66 156 -12 q 33 289 33 144 q 72 522 33 421 q 181 680 111 624 q 342 736 251 736 q 437 714 394 736 q 510 663 479 692 q 525 703 518 692 q 549 722 532 715 q 600 728 565 728 l 617 728 q 697 693 697 728 l 685 571 q 646 196 646 210 q 656 162 646 172 q 688 151 665 151 q 712 156 700 151 q 728 160 724 160 m 474 499 l 481 536 q 389 574 438 574 q 280 503 318 574 q 242 301 242 433 q 336 156 242 156 q 444 236 393 156 l 454 335 q 467 465 461 429 l 474 499 m 560 1019 q 621 1015 601 1019 q 640 1001 640 1011 q 633 983 640 992 q 585 936 625 974 l 479 833 q 440 808 464 818 q 371 799 415 799 q 339 803 347 799 q 331 817 331 807 q 340 838 331 824 q 365 876 349 853 q 438 982 407 935 q 560 1019 463 1019 z "},"ă":{"ha":757,"x_min":33,"x_max":739,"o":"m 33 0 m 728 160 q 737 157 735 160 q 739 144 739 154 q 729 61 739 118 q 686 8 724 26 q 607 -11 649 -11 q 447 94 475 -11 q 367 17 417 47 q 258 -12 317 -12 q 94 66 156 -12 q 33 289 33 144 q 72 522 33 421 q 181 680 111 624 q 342 736 251 736 q 437 714 394 736 q 510 663 479 692 q 525 703 518 692 q 549 722 532 715 q 600 728 565 728 l 617 728 q 697 693 697 728 l 685 571 q 646 196 646 210 q 656 162 646 172 q 688 151 665 151 q 712 156 700 151 q 728 160 724 160 m 474 499 l 481 536 q 389 574 438 574 q 280 503 318 574 q 242 301 242 433 q 336 156 242 156 q 444 236 393 156 l 454 335 q 467 465 461 429 l 474 499 m 590 993 q 623 984 611 993 q 635 960 635 975 q 604 882 635 919 q 523 822 574 844 q 414 799 472 799 q 315 818 358 799 q 249 871 272 838 q 225 942 225 904 q 279 993 225 993 q 303 988 294 993 q 322 968 311 982 q 359 936 338 947 q 428 925 381 925 q 497 936 474 925 q 533 959 521 947 q 550 975 546 971 q 590 993 568 993 z "},"ắ":{"ha":757,"x_min":33,"x_max":739,"o":"m 33 0 m 728 160 q 737 157 735 160 q 739 144 739 154 q 729 61 739 118 q 686 8 724 26 q 607 -11 649 -11 q 447 94 475 -11 q 367 17 417 47 q 258 -12 317 -12 q 94 66 156 -12 q 33 289 33 144 q 72 522 33 421 q 181 680 111 624 q 342 736 251 736 q 437 714 394 736 q 510 663 479 692 q 525 703 518 692 q 549 722 532 715 q 600 728 565 728 l 617 728 q 697 693 697 728 l 685 571 q 646 196 646 210 q 656 162 646 172 q 688 151 665 151 q 712 156 700 151 q 728 160 724 160 m 474 499 l 481 536 q 389 574 438 574 q 280 503 318 574 q 242 301 242 433 q 336 156 242 156 q 444 236 393 156 l 454 335 q 467 465 461 429 l 474 499 m 590 993 q 623 984 611 993 q 635 960 635 975 q 604 882 635 919 q 523 822 574 844 q 414 799 472 799 q 315 818 358 799 q 249 871 272 838 q 225 942 225 904 q 279 993 225 993 q 303 988 294 993 q 322 968 311 982 q 359 936 338 947 q 428 925 381 925 q 497 936 474 925 q 533 959 521 947 q 550 975 546 971 q 590 993 568 993 m 586 1246 q 647 1242 628 1246 q 667 1228 667 1238 q 659 1209 667 1218 q 611 1163 651 1200 l 506 1060 q 466 1035 490 1044 q 397 1025 442 1025 q 365 1029 374 1025 q 357 1043 357 1033 q 366 1065 357 1050 q 392 1103 375 1079 q 464 1208 433 1161 q 586 1246 489 1246 z "},"ặ":{"ha":757,"x_min":33,"x_max":739,"o":"m 33 0 m 728 160 q 737 157 735 160 q 739 144 739 154 q 729 61 739 118 q 686 8 724 26 q 607 -11 649 -11 q 447 94 475 -11 q 367 17 417 47 q 258 -12 317 -12 q 94 66 156 -12 q 33 289 33 144 q 72 522 33 421 q 181 680 111 624 q 342 736 251 736 q 437 714 394 736 q 510 663 479 692 q 525 703 518 692 q 549 722 532 715 q 600 728 565 728 l 617 728 q 697 693 697 728 l 685 571 q 646 196 646 210 q 656 162 646 172 q 688 151 665 151 q 712 156 700 151 q 728 160 724 160 m 474 499 l 481 536 q 389 574 438 574 q 280 503 318 574 q 242 301 242 433 q 336 156 242 156 q 444 236 393 156 l 454 335 q 467 465 461 429 l 474 499 m 590 993 q 623 984 611 993 q 635 960 635 975 q 604 882 635 919 q 523 822 574 844 q 414 799 472 799 q 315 818 358 799 q 249 871 272 838 q 225 942 225 904 q 279 993 225 993 q 303 988 294 993 q 322 968 311 982 q 359 936 338 947 q 428 925 381 925 q 497 936 474 925 q 533 959 521 947 q 550 975 546 971 q 590 993 568 993 m 306 -111 q 367 -122 349 -111 q 385 -156 385 -133 l 375 -239 q 288 -283 368 -283 q 226 -272 244 -283 q 208 -239 208 -261 l 218 -156 q 306 -111 222 -111 z "},"ằ":{"ha":757,"x_min":33,"x_max":739,"o":"m 33 0 m 728 160 q 737 157 735 160 q 739 144 739 154 q 729 61 739 118 q 686 8 724 26 q 607 -11 649 -11 q 447 94 475 -11 q 367 17 417 47 q 258 -12 317 -12 q 94 66 156 -12 q 33 289 33 144 q 72 522 33 421 q 181 680 111 624 q 342 736 251 736 q 437 714 394 736 q 510 663 479 692 q 525 703 518 692 q 549 722 532 715 q 600 728 565 728 l 617 728 q 697 693 697 728 l 685 571 q 646 196 646 210 q 656 162 646 172 q 688 151 665 151 q 712 156 700 151 q 728 160 724 160 m 474 499 l 481 536 q 389 574 438 574 q 280 503 318 574 q 242 301 242 433 q 336 156 242 156 q 444 236 393 156 l 454 335 q 467 465 461 429 l 474 499 m 590 993 q 623 984 611 993 q 635 960 635 975 q 604 882 635 919 q 523 822 574 844 q 414 799 472 799 q 315 818 358 799 q 249 871 272 838 q 225 942 225 904 q 279 993 225 993 q 303 988 294 993 q 322 968 311 982 q 359 936 338 947 q 428 925 381 925 q 497 936 474 925 q 533 959 521 947 q 550 975 546 971 q 590 993 568 993 m 339 1246 q 453 1208 435 1246 l 499 1114 q 526 1047 526 1058 q 516 1030 526 1035 q 481 1025 506 1025 q 415 1034 436 1025 q 381 1060 394 1043 q 306 1150 346 1104 q 265 1200 278 1183 q 253 1224 253 1217 q 273 1241 253 1236 q 339 1246 293 1246 z "},"ẳ":{"ha":757,"x_min":33,"x_max":739,"o":"m 33 0 m 728 160 q 737 157 735 160 q 739 144 739 154 q 729 61 739 118 q 686 8 724 26 q 607 -11 649 -11 q 447 94 475 -11 q 367 17 417 47 q 258 -12 317 -12 q 94 66 156 -12 q 33 289 33 144 q 72 522 33 421 q 181 680 111 624 q 342 736 251 736 q 437 714 394 736 q 510 663 479 692 q 525 703 518 692 q 549 722 532 715 q 600 728 565 728 l 617 728 q 697 693 697 728 l 685 571 q 646 196 646 210 q 656 162 646 172 q 688 151 665 151 q 712 156 700 151 q 728 160 724 160 m 474 499 l 481 536 q 389 574 438 574 q 280 503 318 574 q 242 301 242 433 q 336 156 242 156 q 444 236 393 156 l 454 335 q 467 465 461 429 l 474 499 m 590 993 q 623 984 611 993 q 635 960 635 975 q 604 882 635 919 q 523 822 574 844 q 414 799 472 799 q 315 818 358 799 q 249 871 272 838 q 225 942 225 904 q 279 993 225 993 q 303 988 294 993 q 322 968 311 982 q 359 936 338 947 q 428 925 381 925 q 497 936 474 925 q 533 959 521 947 q 550 975 546 971 q 590 993 568 993 m 496 1154 q 484 1176 496 1168 q 451 1185 472 1185 q 415 1176 433 1185 q 390 1168 396 1168 q 369 1190 382 1168 q 356 1226 356 1211 q 395 1255 356 1240 q 471 1269 435 1269 q 578 1240 539 1269 q 617 1163 617 1210 q 588 1097 617 1129 q 524 1041 560 1064 q 475 1018 488 1018 q 417 1027 438 1018 q 396 1047 396 1036 q 406 1065 396 1057 q 438 1089 415 1074 q 481 1122 465 1107 q 496 1154 496 1136 z "},"ẵ":{"ha":757,"x_min":33,"x_max":739,"o":"m 246 1054 q 218 1092 218 1064 q 221 1111 218 1106 q 271 1180 235 1151 q 358 1208 307 1208 q 414 1199 379 1208 q 456 1188 449 1189 q 536 1168 511 1169 q 578 1190 560 1168 q 613 1214 596 1214 q 629 1211 618 1214 l 643 1207 q 671 1169 671 1197 q 668 1150 671 1156 q 618 1081 654 1110 q 531 1053 582 1053 q 475 1063 510 1053 q 433 1074 440 1072 q 353 1093 378 1092 q 311 1071 329 1093 q 276 1047 293 1047 q 260 1050 271 1047 l 246 1054 m 590 993 q 623 984 611 993 q 635 960 635 975 q 604 882 635 919 q 523 822 574 844 q 414 799 472 799 q 315 818 358 799 q 249 871 272 838 q 225 942 225 904 q 279 993 225 993 q 303 988 294 993 q 322 968 311 982 q 359 936 338 947 q 428 925 381 925 q 497 936 474 925 q 533 959 521 947 q 550 975 546 971 q 590 993 568 993 m 728 160 q 737 157 735 160 q 739 144 739 154 q 729 61 739 118 q 686 8 724 26 q 607 -11 649 -11 q 447 94 475 -11 q 367 17 417 47 q 258 -12 317 -12 q 94 66 156 -12 q 33 289 33 144 q 72 522 33 421 q 181 680 111 624 q 342 736 251 736 q 437 714 394 736 q 510 663 479 692 q 525 703 518 692 q 549 722 532 715 q 600 728 565 728 l 617 728 q 697 693 697 728 l 685 571 q 646 196 646 210 q 656 162 646 172 q 688 151 665 151 q 712 156 700 151 q 728 160 724 160 m 474 499 l 481 536 q 389 574 438 574 q 280 503 318 574 q 242 301 242 433 q 336 156 242 156 q 444 236 393 156 l 454 335 q 467 465 461 429 l 474 499 z "},"â":{"ha":757,"x_min":33,"x_max":739,"o":"m 33 0 m 728 160 q 737 157 735 160 q 739 144 739 154 q 729 61 739 118 q 686 8 724 26 q 607 -11 649 -11 q 447 94 475 -11 q 367 17 417 47 q 258 -12 317 -12 q 94 66 156 -12 q 33 289 33 144 q 72 522 33 421 q 181 680 111 624 q 342 736 251 736 q 437 714 394 736 q 510 663 479 692 q 525 703 518 692 q 549 722 532 715 q 600 728 565 728 l 617 728 q 697 693 697 728 l 685 571 q 646 196 646 210 q 656 162 646 172 q 688 151 665 151 q 712 156 700 151 q 728 160 724 160 m 474 499 l 481 536 q 389 574 438 574 q 280 503 318 574 q 242 301 242 433 q 336 156 242 156 q 444 236 393 156 l 454 335 q 467 465 461 429 l 474 499 m 438 997 q 492 992 474 997 q 519 971 510 988 l 594 829 q 599 813 599 819 q 572 794 599 794 l 542 794 q 487 802 508 794 q 453 828 465 810 l 418 883 l 375 829 q 336 801 358 808 q 279 794 314 794 l 246 794 q 219 808 219 794 q 229 829 219 818 l 335 971 q 367 992 347 988 q 422 997 386 997 l 438 997 z "},"ấ":{"ha":757,"x_min":33,"x_max":844,"o":"m 764 1199 q 825 1194 806 1199 q 844 1181 844 1190 q 837 1162 844 1171 q 789 1115 829 1153 l 683 1013 q 644 988 668 997 q 575 978 619 978 q 543 982 551 978 q 535 996 535 986 q 544 1017 535 1003 q 569 1056 553 1032 q 642 1161 611 1114 q 764 1199 667 1199 m 243 794 q 217 808 217 794 q 226 829 217 818 l 332 971 q 364 992 344 988 q 419 997 383 997 l 435 997 q 479 992 464 997 q 503 971 494 988 l 571 829 q 575 813 575 819 q 549 794 575 794 l 518 794 q 456 801 479 794 q 429 828 433 807 l 415 883 l 372 829 q 333 801 356 808 q 276 794 311 794 l 243 794 m 728 160 q 737 157 735 160 q 739 144 739 154 q 729 61 739 118 q 686 8 724 26 q 607 -11 649 -11 q 447 94 475 -11 q 367 17 417 47 q 258 -12 317 -12 q 94 66 156 -12 q 33 289 33 144 q 72 522 33 421 q 181 680 111 624 q 342 736 251 736 q 437 714 394 736 q 510 663 479 692 q 525 703 518 692 q 549 722 532 715 q 600 728 565 728 l 617 728 q 697 693 697 728 l 685 571 q 646 196 646 210 q 656 162 646 172 q 688 151 665 151 q 712 156 700 151 q 728 160 724 160 m 474 499 l 481 536 q 389 574 438 574 q 280 503 318 574 q 242 301 242 433 q 336 156 242 156 q 444 236 393 156 l 454 335 q 467 465 461 429 l 474 499 z "},"ậ":{"ha":757,"x_min":33,"x_max":739,"o":"m 33 0 m 728 160 q 737 157 735 160 q 739 144 739 154 q 729 61 739 118 q 686 8 724 26 q 607 -11 649 -11 q 447 94 475 -11 q 367 17 417 47 q 258 -12 317 -12 q 94 66 156 -12 q 33 289 33 144 q 72 522 33 421 q 181 680 111 624 q 342 736 251 736 q 437 714 394 736 q 510 663 479 692 q 525 703 518 692 q 549 722 532 715 q 600 728 565 728 l 617 728 q 697 693 697 728 l 685 571 q 646 196 646 210 q 656 162 646 172 q 688 151 665 151 q 712 156 700 151 q 728 160 724 160 m 474 499 l 481 536 q 389 574 438 574 q 280 503 318 574 q 242 301 242 433 q 336 156 242 156 q 444 236 393 156 l 454 335 q 467 465 461 429 l 474 499 m 438 997 q 492 992 474 997 q 519 971 510 988 l 594 829 q 599 813 599 819 q 572 794 599 794 l 542 794 q 487 802 508 794 q 453 828 465 810 l 418 883 l 375 829 q 336 801 358 808 q 279 794 314 794 l 246 794 q 219 808 219 794 q 229 829 219 818 l 335 971 q 367 992 347 988 q 422 997 386 997 l 438 997 m 306 -111 q 367 -122 349 -111 q 385 -156 385 -133 l 375 -239 q 288 -283 368 -283 q 226 -272 244 -283 q 208 -239 208 -261 l 218 -156 q 306 -111 222 -111 z "},"ầ":{"ha":757,"x_min":33,"x_max":739,"o":"m 658 978 q 593 987 614 978 q 558 1013 572 996 q 483 1103 524 1057 q 443 1153 456 1136 q 431 1176 431 1169 q 451 1194 431 1189 q 517 1199 471 1199 q 631 1161 613 1199 l 676 1067 q 704 1000 704 1011 q 694 983 704 988 q 658 978 683 978 m 243 794 q 217 808 217 794 q 226 829 217 818 l 332 971 q 364 992 344 988 q 419 997 383 997 l 435 997 q 479 992 464 997 q 503 971 494 988 l 571 829 q 575 813 575 819 q 549 794 575 794 l 518 794 q 456 801 479 794 q 429 828 433 807 l 415 883 l 372 829 q 333 801 356 808 q 276 794 311 794 l 243 794 m 728 160 q 737 157 735 160 q 739 144 739 154 q 729 61 739 118 q 686 8 724 26 q 607 -11 649 -11 q 447 94 475 -11 q 367 17 417 47 q 258 -12 317 -12 q 94 66 156 -12 q 33 289 33 144 q 72 522 33 421 q 181 680 111 624 q 342 736 251 736 q 437 714 394 736 q 510 663 479 692 q 525 703 518 692 q 549 722 532 715 q 600 728 565 728 l 617 728 q 697 693 697 728 l 685 571 q 646 196 646 210 q 656 162 646 172 q 688 151 665 151 q 712 156 700 151 q 728 160 724 160 m 474 499 l 481 536 q 389 574 438 574 q 280 503 318 574 q 242 301 242 433 q 336 156 242 156 q 444 236 393 156 l 454 335 q 467 465 461 429 l 474 499 z "},"ẩ":{"ha":757,"x_min":33,"x_max":794,"o":"m 649 1222 q 756 1192 717 1222 q 794 1115 794 1163 q 766 1049 794 1082 q 701 994 738 1017 q 653 971 665 971 q 594 980 615 971 q 574 1000 574 989 q 583 1018 574 1010 q 615 1042 593 1026 q 658 1074 643 1060 q 674 1107 674 1089 q 661 1129 674 1121 q 629 1138 649 1138 q 592 1129 611 1138 q 568 1121 574 1121 q 547 1142 560 1121 q 533 1179 533 1164 q 573 1208 533 1193 q 649 1222 613 1222 m 243 794 q 217 808 217 794 q 226 829 217 818 l 332 971 q 364 992 344 988 q 419 997 383 997 l 435 997 q 479 992 464 997 q 503 971 494 988 l 571 829 q 575 813 575 819 q 549 794 575 794 l 518 794 q 456 801 479 794 q 429 828 433 807 l 415 883 l 372 829 q 333 801 356 808 q 276 794 311 794 l 243 794 m 728 160 q 737 157 735 160 q 739 144 739 154 q 729 61 739 118 q 686 8 724 26 q 607 -11 649 -11 q 447 94 475 -11 q 367 17 417 47 q 258 -12 317 -12 q 94 66 156 -12 q 33 289 33 144 q 72 522 33 421 q 181 680 111 624 q 342 736 251 736 q 437 714 394 736 q 510 663 479 692 q 525 703 518 692 q 549 722 532 715 q 600 728 565 728 l 617 728 q 697 693 697 728 l 685 571 q 646 196 646 210 q 656 162 646 172 q 688 151 665 151 q 712 156 700 151 q 728 160 724 160 m 474 499 l 481 536 q 389 574 438 574 q 280 503 318 574 q 242 301 242 433 q 336 156 242 156 q 444 236 393 156 l 454 335 q 467 465 461 429 l 474 499 z "},"ẫ":{"ha":757,"x_min":33,"x_max":739,"o":"m 254 1063 q 226 1100 226 1072 q 229 1119 226 1114 q 279 1188 243 1160 q 367 1217 315 1217 q 422 1207 388 1217 q 464 1196 457 1197 q 544 1176 519 1178 q 586 1199 568 1176 q 621 1222 604 1222 q 638 1219 626 1222 l 651 1215 q 679 1178 679 1206 q 676 1158 679 1164 q 626 1090 663 1118 q 539 1061 590 1061 q 483 1071 518 1061 q 442 1082 449 1081 q 361 1101 386 1100 q 319 1079 338 1101 q 285 1056 301 1056 q 268 1058 279 1056 l 254 1063 m 247 794 q 221 808 221 794 q 231 829 221 818 l 336 971 q 368 992 349 988 q 424 997 388 997 l 439 997 q 493 992 475 997 q 521 971 511 988 l 596 829 q 600 813 600 819 q 574 794 600 794 l 543 794 q 488 802 510 794 q 454 828 467 810 l 419 883 l 376 829 q 338 801 360 808 q 281 794 315 794 l 247 794 m 728 160 q 737 157 735 160 q 739 144 739 154 q 729 61 739 118 q 686 8 724 26 q 607 -11 649 -11 q 447 94 475 -11 q 367 17 417 47 q 258 -12 317 -12 q 94 66 156 -12 q 33 289 33 144 q 72 522 33 421 q 181 680 111 624 q 342 736 251 736 q 437 714 394 736 q 510 663 479 692 q 525 703 518 692 q 549 722 532 715 q 600 728 565 728 l 617 728 q 697 693 697 728 l 685 571 q 646 196 646 210 q 656 162 646 172 q 688 151 665 151 q 712 156 700 151 q 728 160 724 160 m 474 499 l 481 536 q 389 574 438 574 q 280 503 318 574 q 242 301 242 433 q 336 156 242 156 q 444 236 393 156 l 454 335 q 467 465 461 429 l 474 499 z "},"ä":{"ha":757,"x_min":33,"x_max":739,"o":"m 33 0 m 728 160 q 737 157 735 160 q 739 144 739 154 q 729 61 739 118 q 686 8 724 26 q 607 -11 649 -11 q 447 94 475 -11 q 367 17 417 47 q 258 -12 317 -12 q 94 66 156 -12 q 33 289 33 144 q 72 522 33 421 q 181 680 111 624 q 342 736 251 736 q 437 714 394 736 q 510 663 479 692 q 525 703 518 692 q 549 722 532 715 q 600 728 565 728 l 617 728 q 697 693 697 728 l 685 571 q 646 196 646 210 q 656 162 646 172 q 688 151 665 151 q 712 156 700 151 q 728 160 724 160 m 474 499 l 481 536 q 389 574 438 574 q 280 503 318 574 q 242 301 242 433 q 336 156 242 156 q 444 236 393 156 l 454 335 q 467 465 461 429 l 474 499 m 313 975 q 374 964 356 975 q 392 931 392 953 l 382 847 q 294 803 375 803 q 233 814 251 803 q 215 847 215 825 l 225 931 q 313 975 229 975 m 563 975 q 624 964 606 975 q 642 931 642 953 l 632 847 q 544 803 625 803 q 483 814 501 803 q 465 847 465 825 l 475 931 q 563 975 479 975 z "},"ạ":{"ha":757,"x_min":33,"x_max":739,"o":"m 33 0 m 728 160 q 737 157 735 160 q 739 144 739 154 q 729 61 739 118 q 686 8 724 26 q 607 -11 649 -11 q 447 94 475 -11 q 367 17 417 47 q 258 -12 317 -12 q 94 66 156 -12 q 33 289 33 144 q 72 522 33 421 q 181 680 111 624 q 342 736 251 736 q 437 714 394 736 q 510 663 479 692 q 525 703 518 692 q 549 722 532 715 q 600 728 565 728 l 617 728 q 697 693 697 728 l 685 571 q 646 196 646 210 q 656 162 646 172 q 688 151 665 151 q 712 156 700 151 q 728 160 724 160 m 474 499 l 481 536 q 389 574 438 574 q 280 503 318 574 q 242 301 242 433 q 336 156 242 156 q 444 236 393 156 l 454 335 q 467 465 461 429 l 474 499 m 306 -111 q 367 -122 349 -111 q 385 -156 385 -133 l 375 -239 q 288 -283 368 -283 q 226 -272 244 -283 q 208 -239 208 -261 l 218 -156 q 306 -111 222 -111 z "},"à":{"ha":757,"x_min":33,"x_max":739,"o":"m 33 0 m 728 160 q 737 157 735 160 q 739 144 739 154 q 729 61 739 118 q 686 8 724 26 q 607 -11 649 -11 q 447 94 475 -11 q 367 17 417 47 q 258 -12 317 -12 q 94 66 156 -12 q 33 289 33 144 q 72 522 33 421 q 181 680 111 624 q 342 736 251 736 q 437 714 394 736 q 510 663 479 692 q 525 703 518 692 q 549 722 532 715 q 600 728 565 728 l 617 728 q 697 693 697 728 l 685 571 q 646 196 646 210 q 656 162 646 172 q 688 151 665 151 q 712 156 700 151 q 728 160 724 160 m 474 499 l 481 536 q 389 574 438 574 q 280 503 318 574 q 242 301 242 433 q 336 156 242 156 q 444 236 393 156 l 454 335 q 467 465 461 429 l 474 499 m 313 1019 q 426 982 408 1019 l 472 888 q 500 821 500 832 q 490 803 500 808 q 454 799 479 799 q 389 808 410 799 q 354 833 368 817 q 279 924 319 878 q 239 974 251 957 q 226 997 226 990 q 247 1015 226 1010 q 313 1019 267 1019 z "},"ả":{"ha":757,"x_min":33,"x_max":739,"o":"m 33 0 m 728 160 q 737 157 735 160 q 739 144 739 154 q 729 61 739 118 q 686 8 724 26 q 607 -11 649 -11 q 447 94 475 -11 q 367 17 417 47 q 258 -12 317 -12 q 94 66 156 -12 q 33 289 33 144 q 72 522 33 421 q 181 680 111 624 q 342 736 251 736 q 437 714 394 736 q 510 663 479 692 q 525 703 518 692 q 549 722 532 715 q 600 728 565 728 l 617 728 q 697 693 697 728 l 685 571 q 646 196 646 210 q 656 162 646 172 q 688 151 665 151 q 712 156 700 151 q 728 160 724 160 m 474 499 l 481 536 q 389 574 438 574 q 280 503 318 574 q 242 301 242 433 q 336 156 242 156 q 444 236 393 156 l 454 335 q 467 465 461 429 l 474 499 m 469 928 q 458 950 469 942 q 425 958 446 958 q 388 950 407 958 q 364 942 369 942 q 342 963 356 942 q 329 1000 329 985 q 369 1028 329 1014 q 444 1043 408 1043 q 551 1013 513 1043 q 590 936 590 983 q 562 870 590 903 q 497 815 533 838 q 449 792 461 792 q 390 801 411 792 q 369 821 369 810 q 379 839 369 831 q 411 863 389 847 q 454 895 439 881 q 469 928 469 910 z "},"ā":{"ha":757,"x_min":33,"x_max":739,"o":"m 33 0 m 728 160 q 737 157 735 160 q 739 144 739 154 q 729 61 739 118 q 686 8 724 26 q 607 -11 649 -11 q 447 94 475 -11 q 367 17 417 47 q 258 -12 317 -12 q 94 66 156 -12 q 33 289 33 144 q 72 522 33 421 q 181 680 111 624 q 342 736 251 736 q 437 714 394 736 q 510 663 479 692 q 525 703 518 692 q 549 722 532 715 q 600 728 565 728 l 617 728 q 697 693 697 728 l 685 571 q 646 196 646 210 q 656 162 646 172 q 688 151 665 151 q 712 156 700 151 q 728 160 724 160 m 474 499 l 481 536 q 389 574 438 574 q 280 503 318 574 q 242 301 242 433 q 336 156 242 156 q 444 236 393 156 l 454 335 q 467 465 461 429 l 474 499 m 590 961 q 626 919 626 961 q 616 858 626 886 q 575 829 606 829 l 275 829 q 247 839 256 829 q 239 871 239 849 q 290 961 239 961 l 590 961 z "},"ą":{"ha":757,"x_min":33,"x_max":815,"o":"m 800 -137 q 813 -147 810 -137 q 815 -179 815 -156 q 779 -237 815 -219 q 693 -254 743 -254 q 575 -217 607 -254 q 543 -131 543 -179 q 553 -67 543 -101 q 581 -10 563 -33 q 447 94 474 -1 q 367 17 417 47 q 258 -12 317 -12 q 94 66 156 -12 q 33 289 33 144 q 72 522 33 421 q 181 680 111 624 q 342 736 251 736 q 437 714 394 736 q 510 663 479 692 q 525 703 518 692 q 549 722 532 715 q 600 728 565 728 l 617 728 q 697 693 697 728 l 685 571 q 646 196 646 210 q 656 162 646 172 q 688 151 665 151 q 712 156 700 151 q 728 160 724 160 q 737 157 735 160 q 739 144 739 154 q 729 61 739 118 q 664 -3 722 17 l 664 -4 q 654 -33 664 -14 q 639 -97 639 -67 q 663 -145 639 -133 q 719 -157 686 -157 q 771 -147 746 -157 q 800 -137 796 -137 m 474 499 l 481 536 q 389 574 438 574 q 280 503 318 574 q 242 301 242 433 q 336 156 242 156 q 444 236 393 156 l 454 335 q 467 465 461 429 l 474 499 z "},"å":{"ha":757,"x_min":33,"x_max":739,"o":"m 33 0 m 728 160 q 737 157 735 160 q 739 144 739 154 q 729 61 739 118 q 686 8 724 26 q 607 -11 649 -11 q 447 94 475 -11 q 367 17 417 47 q 258 -12 317 -12 q 94 66 156 -12 q 33 289 33 144 q 72 522 33 421 q 181 680 111 624 q 342 736 251 736 q 437 714 394 736 q 510 663 479 692 q 525 703 518 692 q 549 722 532 715 q 600 728 565 728 l 617 728 q 697 693 697 728 l 685 571 q 646 196 646 210 q 656 162 646 172 q 688 151 665 151 q 712 156 700 151 q 728 160 724 160 m 474 499 l 481 536 q 389 574 438 574 q 280 503 318 574 q 242 301 242 433 q 336 156 242 156 q 444 236 393 156 l 454 335 q 467 465 461 429 l 474 499 m 443 1040 q 532 1005 497 1040 q 567 917 567 969 q 526 808 567 851 q 414 764 485 764 q 324 799 360 764 q 289 888 289 835 q 331 997 289 953 q 443 1040 374 1040 m 433 951 q 394 934 411 951 q 378 894 378 917 q 391 863 378 875 q 424 850 404 850 q 463 866 446 850 q 479 904 479 882 q 466 938 479 924 q 433 951 453 951 z "},"ǻ":{"ha":757,"x_min":33,"x_max":739,"o":"m 33 0 m 728 160 q 737 157 735 160 q 739 144 739 154 q 729 61 739 118 q 686 8 724 26 q 607 -11 649 -11 q 447 94 475 -11 q 367 17 417 47 q 258 -12 317 -12 q 94 66 156 -12 q 33 289 33 144 q 72 522 33 421 q 181 680 111 624 q 342 736 251 736 q 437 714 394 736 q 510 663 479 692 q 525 703 518 692 q 549 722 532 715 q 600 728 565 728 l 617 728 q 697 693 697 728 l 685 571 q 646 196 646 210 q 656 162 646 172 q 688 151 665 151 q 712 156 700 151 q 728 160 724 160 m 474 499 l 481 536 q 389 574 438 574 q 280 503 318 574 q 242 301 242 433 q 336 156 242 156 q 444 236 393 156 l 454 335 q 467 465 461 429 l 474 499 m 443 1040 q 532 1005 497 1040 q 567 917 567 969 q 526 808 567 851 q 414 764 485 764 q 324 799 360 764 q 289 888 289 835 q 331 997 289 953 q 443 1040 374 1040 m 433 951 q 394 934 411 951 q 378 894 378 917 q 391 863 378 875 q 424 850 404 850 q 463 866 446 850 q 479 904 479 882 q 466 938 479 924 q 433 951 453 951 m 601 1283 q 663 1279 643 1283 q 682 1265 682 1275 q 674 1247 682 1256 q 626 1200 667 1238 l 521 1097 q 481 1072 506 1082 q 413 1063 457 1063 q 381 1067 389 1063 q 372 1081 372 1071 q 381 1102 372 1088 q 407 1140 390 1117 q 479 1246 449 1199 q 601 1283 504 1283 z "},"ã":{"ha":757,"x_min":33,"x_max":739,"o":"m 33 0 m 728 160 q 737 157 735 160 q 739 144 739 154 q 729 61 739 118 q 686 8 724 26 q 607 -11 649 -11 q 447 94 475 -11 q 367 17 417 47 q 258 -12 317 -12 q 94 66 156 -12 q 33 289 33 144 q 72 522 33 421 q 181 680 111 624 q 342 736 251 736 q 437 714 394 736 q 510 663 479 692 q 525 703 518 692 q 549 722 532 715 q 600 728 565 728 l 617 728 q 697 693 697 728 l 685 571 q 646 196 646 210 q 656 162 646 172 q 688 151 665 151 q 712 156 700 151 q 728 160 724 160 m 474 499 l 481 536 q 389 574 438 574 q 280 503 318 574 q 242 301 242 433 q 336 156 242 156 q 444 236 393 156 l 454 335 q 467 465 461 429 l 474 499 m 319 964 q 380 954 342 964 q 426 943 418 944 q 515 924 490 925 q 561 946 542 924 q 599 969 579 969 q 617 967 606 969 l 632 963 q 664 925 664 953 q 660 906 664 914 q 605 837 644 865 q 508 808 565 808 q 462 815 492 808 q 403 829 432 822 q 314 849 339 847 q 268 826 288 849 q 229 803 249 803 q 211 806 222 803 l 196 810 q 165 849 165 818 q 168 867 165 856 q 224 935 183 907 q 319 964 264 964 z "},"æ":{"ha":1151,"x_min":35,"x_max":1093,"o":"m 1093 536 q 1049 392 1093 449 q 938 308 1006 335 q 794 282 869 282 q 650 292 718 282 q 692 181 656 211 q 796 151 728 151 q 983 201 879 151 q 1011 213 1006 213 q 1019 209 1017 213 q 1022 193 1022 206 q 1018 144 1021 186 q 1011 86 1015 101 q 921 12 996 35 q 769 -11 846 -11 q 511 81 594 -11 q 398 17 468 46 q 249 -11 328 -11 q 90 37 144 -11 q 35 169 35 85 q 122 361 35 285 q 456 439 208 438 q 489 540 468 497 q 444 568 471 561 q 368 575 417 575 q 217 540 303 575 q 185 531 190 531 q 145 570 165 531 q 125 636 125 610 q 165 683 125 660 q 268 722 204 707 q 400 738 332 738 q 619 686 547 738 q 824 738 704 738 q 988 705 928 738 q 1071 626 1049 672 q 1093 536 1093 581 m 726 419 q 854 447 815 419 q 893 510 893 474 q 871 559 893 543 q 810 575 849 575 q 712 533 749 575 q 660 419 675 490 l 726 419 m 306 151 q 384 167 343 151 q 449 211 425 183 q 442 294 442 256 l 442 311 q 242 204 242 308 q 258 166 242 181 q 306 151 275 151 z "},"ǽ":{"ha":1151,"x_min":35,"x_max":1093,"o":"m 35 0 m 1093 536 q 1049 392 1093 449 q 938 308 1006 335 q 794 282 869 282 q 650 292 718 282 q 692 181 656 211 q 796 151 728 151 q 983 201 879 151 q 1011 213 1006 213 q 1019 209 1017 213 q 1022 193 1022 206 q 1018 144 1021 186 q 1011 86 1015 101 q 921 12 996 35 q 769 -11 846 -11 q 511 81 594 -11 q 398 17 468 46 q 249 -11 328 -11 q 90 37 144 -11 q 35 169 35 85 q 122 361 35 285 q 456 439 208 438 q 489 540 468 497 q 444 568 471 561 q 368 575 417 575 q 217 540 303 575 q 185 531 190 531 q 145 570 165 531 q 125 636 125 610 q 165 683 125 660 q 268 722 204 707 q 400 738 332 738 q 619 686 547 738 q 824 738 704 738 q 988 705 928 738 q 1071 626 1049 672 q 1093 536 1093 581 m 726 419 q 854 447 815 419 q 893 510 893 474 q 871 559 893 543 q 810 575 849 575 q 712 533 749 575 q 660 419 675 490 l 726 419 m 306 151 q 384 167 343 151 q 449 211 425 183 q 442 294 442 256 l 442 311 q 242 204 242 308 q 258 166 242 181 q 306 151 275 151 m 726 1019 q 788 1015 768 1019 q 807 1001 807 1011 q 799 983 807 992 q 751 936 792 974 l 646 833 q 606 808 631 818 q 538 799 582 799 q 506 803 514 799 q 497 817 497 807 q 506 838 497 824 q 532 876 515 853 q 604 982 574 935 q 726 1019 629 1019 z "},"b":{"ha":790,"x_min":36,"x_max":728,"o":"m 265 1047 q 324 1035 304 1047 q 344 1004 344 1022 l 307 658 q 382 717 339 696 q 475 738 425 738 q 659 659 590 738 q 728 436 728 581 q 685 203 728 304 q 567 45 643 101 q 392 -11 490 -11 q 224 61 299 -11 q 208 22 215 33 q 184 3 200 10 q 133 -3 168 -3 l 117 -3 q 36 32 36 -3 l 139 1003 q 226 1047 143 1047 l 265 1047 m 397 569 q 290 492 342 569 l 271 310 l 254 188 q 344 151 296 151 q 474 222 428 151 q 519 424 519 292 q 490 534 519 499 q 397 569 461 569 z "},"c":{"ha":674,"x_min":46,"x_max":654,"o":"m 435 738 q 581 716 510 738 q 654 642 653 694 q 641 602 654 628 q 610 556 628 576 q 578 536 592 536 q 556 546 572 536 q 506 567 531 560 q 442 575 482 575 q 258 304 258 575 q 290 189 258 226 q 388 151 321 151 q 481 164 440 151 q 560 196 522 176 q 589 207 582 207 q 597 203 594 207 q 599 188 599 200 q 595 134 599 172 q 588 81 592 96 q 501 11 571 33 q 361 -11 431 -11 q 124 62 201 -11 q 46 283 46 135 q 138 611 46 485 q 435 738 229 738 z "},"ć":{"ha":674,"x_min":46,"x_max":654,"o":"m 46 0 m 435 738 q 581 716 510 738 q 654 642 653 694 q 641 602 654 628 q 610 556 628 576 q 578 536 592 536 q 556 546 572 536 q 506 567 531 560 q 442 575 482 575 q 258 304 258 575 q 290 189 258 226 q 388 151 321 151 q 481 164 440 151 q 560 196 522 176 q 589 207 582 207 q 597 203 594 207 q 599 188 599 200 q 595 134 599 172 q 588 81 592 96 q 501 11 571 33 q 361 -11 431 -11 q 124 62 201 -11 q 46 283 46 135 q 138 611 46 485 q 435 738 229 738 m 563 1019 q 624 1015 604 1019 q 643 1001 643 1011 q 635 983 643 992 q 588 936 628 974 l 482 833 q 442 808 467 818 q 374 799 418 799 q 342 803 350 799 q 333 817 333 807 q 342 838 333 824 q 368 876 351 853 q 440 982 410 935 q 563 1019 465 1019 z "},"č":{"ha":674,"x_min":46,"x_max":654,"o":"m 46 0 m 435 738 q 581 716 510 738 q 654 642 653 694 q 641 602 654 628 q 610 556 628 576 q 578 536 592 536 q 556 546 572 536 q 506 567 531 560 q 442 575 482 575 q 258 304 258 575 q 290 189 258 226 q 388 151 321 151 q 481 164 440 151 q 560 196 522 176 q 589 207 582 207 q 597 203 594 207 q 599 188 599 200 q 595 134 599 172 q 588 81 592 96 q 501 11 571 33 q 361 -11 431 -11 q 124 62 201 -11 q 46 283 46 135 q 138 611 46 485 q 435 738 229 738 m 599 997 q 625 983 625 997 q 615 963 625 974 l 510 821 q 478 799 497 804 q 422 794 458 794 l 407 794 q 353 799 371 794 q 325 821 335 804 l 250 963 q 246 979 246 974 q 272 997 246 997 l 303 997 q 392 964 369 997 l 426 908 l 469 963 q 508 990 486 983 q 565 997 529 996 l 599 997 z "},"ç":{"ha":674,"x_min":46,"x_max":654,"o":"m 442 575 q 258 304 258 575 q 290 189 258 226 q 388 151 321 151 q 481 164 440 151 q 560 196 522 176 q 589 207 582 207 q 597 203 594 207 q 599 188 599 200 q 595 134 599 172 q 588 81 592 96 q 511 15 572 38 q 381 -11 450 -7 l 365 -49 q 433 -82 404 -56 q 463 -153 463 -108 q 415 -258 463 -222 q 283 -294 368 -294 q 187 -280 233 -294 q 140 -222 140 -265 q 160 -156 140 -156 q 188 -167 165 -156 q 233 -185 210 -178 q 283 -193 256 -193 q 309 -187 301 -193 q 318 -169 317 -182 q 310 -151 318 -158 q 285 -136 301 -144 q 260 -121 268 -128 q 251 -103 251 -114 q 289 -7 251 -93 q 106 81 165 8 q 46 283 46 153 q 138 611 46 485 q 435 738 229 738 q 581 716 510 738 q 654 642 653 694 q 641 602 654 628 q 610 556 628 576 q 578 536 592 536 q 556 546 572 536 q 506 567 531 560 q 442 575 482 575 z "},"ĉ":{"ha":674,"x_min":46,"x_max":654,"o":"m 46 0 m 435 738 q 581 716 510 738 q 654 642 653 694 q 641 602 654 628 q 610 556 628 576 q 578 536 592 536 q 556 546 572 536 q 506 567 531 560 q 442 575 482 575 q 258 304 258 575 q 290 189 258 226 q 388 151 321 151 q 481 164 440 151 q 560 196 522 176 q 589 207 582 207 q 597 203 594 207 q 599 188 599 200 q 595 134 599 172 q 588 81 592 96 q 501 11 571 33 q 361 -11 431 -11 q 124 62 201 -11 q 46 283 46 135 q 138 611 46 485 q 435 738 229 738 m 440 997 q 494 992 476 997 q 522 971 513 988 l 597 829 q 601 813 601 819 q 575 794 601 794 l 544 794 q 490 802 511 794 q 456 828 468 810 l 421 883 l 378 829 q 339 801 361 808 q 282 794 317 794 l 249 794 q 222 808 222 794 q 232 829 222 818 l 338 971 q 369 992 350 988 q 425 997 389 997 l 440 997 z "},"ċ":{"ha":674,"x_min":46,"x_max":654,"o":"m 46 0 m 435 738 q 581 716 510 738 q 654 642 653 694 q 641 602 654 628 q 610 556 628 576 q 578 536 592 536 q 556 546 572 536 q 506 567 531 560 q 442 575 482 575 q 258 304 258 575 q 290 189 258 226 q 388 151 321 151 q 481 164 440 151 q 560 196 522 176 q 589 207 582 207 q 597 203 594 207 q 599 188 599 200 q 595 134 599 172 q 588 81 592 96 q 501 11 571 33 q 361 -11 431 -11 q 124 62 201 -11 q 46 283 46 135 q 138 611 46 485 q 435 738 229 738 m 421 975 q 482 964 464 975 q 500 931 500 953 l 490 847 q 403 803 483 803 q 342 814 360 803 q 324 847 324 825 l 333 931 q 421 975 338 975 z "},"d":{"ha":785,"x_min":36,"x_max":756,"o":"m 744 160 q 753 157 751 160 q 756 144 756 154 q 746 61 756 118 q 703 8 740 26 q 624 -11 665 -11 q 518 15 558 -11 q 464 96 478 40 q 384 18 433 47 q 275 -11 335 -11 q 101 67 165 -11 q 36 290 36 146 q 77 524 36 422 q 191 681 118 625 q 358 738 264 738 q 507 681 438 738 l 542 1003 q 629 1047 546 1047 l 668 1047 q 727 1035 707 1047 q 747 1004 747 1022 q 704 605 733 881 q 663 197 675 329 q 672 163 663 174 q 704 151 682 151 q 728 156 717 151 q 744 160 740 160 m 493 542 q 406 575 451 575 q 287 505 329 575 q 244 303 244 435 q 353 157 244 157 q 463 239 411 157 l 493 542 z "},"ð":{"ha":790,"x_min":56,"x_max":740,"o":"m 499 993 q 553 976 532 993 q 596 925 574 958 l 600 918 l 696 931 q 726 913 713 931 q 740 876 740 896 q 710 850 740 854 l 644 842 q 711 663 685 768 q 738 447 738 558 q 639 108 738 226 q 358 -11 540 -11 q 133 67 210 -11 q 56 296 56 146 q 156 622 56 507 q 436 738 257 738 q 507 732 463 738 q 471 818 494 769 q 385 807 393 807 q 351 823 365 807 q 338 860 338 839 q 369 888 338 882 l 429 896 q 416 916 424 906 q 401 938 408 926 q 392 965 392 954 q 413 983 392 979 q 499 993 444 988 m 419 575 q 305 506 346 575 q 264 304 264 436 q 375 151 264 151 q 488 222 447 151 q 528 422 528 292 q 501 537 528 499 q 419 575 475 575 z "},"ď":{"ha":785,"x_min":36,"x_max":982,"o":"m 36 0 m 744 160 q 753 157 751 160 q 756 144 756 154 q 746 61 756 118 q 703 8 740 26 q 624 -11 665 -11 q 518 15 558 -11 q 464 96 478 40 q 384 18 433 47 q 275 -11 335 -11 q 101 67 165 -11 q 36 290 36 146 q 77 524 36 422 q 191 681 118 625 q 358 738 264 738 q 507 681 438 738 l 542 1003 q 629 1047 546 1047 l 668 1047 q 727 1035 707 1047 q 747 1004 747 1022 q 704 605 733 881 q 663 197 675 329 q 672 163 663 174 q 704 151 682 151 q 728 156 717 151 q 744 160 740 160 m 493 542 q 406 575 451 575 q 287 505 329 575 q 244 303 244 435 q 353 157 244 157 q 463 239 411 157 l 493 542 m 919 1044 q 982 983 982 1044 q 956 893 982 940 q 894 814 929 846 q 839 782 860 782 q 798 790 817 782 q 779 811 779 797 q 785 844 779 817 q 798 906 793 876 q 803 983 803 935 q 826 1028 803 1013 q 893 1044 850 1044 l 919 1044 z "},"đ":{"ha":785,"x_min":36,"x_max":806,"o":"m 726 810 l 722 769 q 663 197 663 208 q 672 163 663 174 q 704 151 682 151 q 728 156 717 151 q 744 160 740 160 q 753 157 751 160 q 756 144 756 154 q 746 61 756 118 q 703 8 740 26 q 624 -11 665 -11 q 518 15 558 -11 q 464 96 478 40 q 384 18 433 47 q 275 -11 335 -11 q 101 67 165 -11 q 36 290 36 146 q 77 524 36 422 q 191 681 118 625 q 358 738 264 738 q 507 681 438 738 l 521 810 l 454 810 q 426 819 435 810 q 418 851 418 829 q 469 942 418 942 l 535 942 l 542 1003 q 629 1047 546 1047 l 668 1047 q 727 1035 707 1047 q 747 1004 747 1022 l 740 942 l 769 942 q 806 900 806 942 q 795 838 806 867 q 754 810 785 810 l 726 810 m 493 542 q 406 575 451 575 q 287 505 329 575 q 244 303 244 435 q 353 157 244 157 q 463 239 411 157 l 493 542 z "},"ḍ":{"ha":785,"x_min":36,"x_max":756,"o":"m 36 0 m 744 160 q 753 157 751 160 q 756 144 756 154 q 746 61 756 118 q 703 8 740 26 q 624 -11 665 -11 q 518 15 558 -11 q 464 96 478 40 q 384 18 433 47 q 275 -11 335 -11 q 101 67 165 -11 q 36 290 36 146 q 77 524 36 422 q 191 681 118 625 q 358 738 264 738 q 507 681 438 738 l 542 1003 q 629 1047 546 1047 l 668 1047 q 727 1035 707 1047 q 747 1004 747 1022 q 704 605 733 881 q 663 197 675 329 q 672 163 663 174 q 704 151 682 151 q 728 156 717 151 q 744 160 740 160 m 493 542 q 406 575 451 575 q 287 505 329 575 q 244 303 244 435 q 353 157 244 157 q 463 239 411 157 l 493 542 m 333 -111 q 394 -122 376 -111 q 413 -156 413 -133 l 403 -239 q 315 -283 396 -283 q 254 -272 272 -283 q 236 -239 236 -261 l 246 -156 q 333 -111 250 -111 z "},"ǳ":{"ha":1464,"x_min":36,"x_max":1440,"o":"m 36 0 m 744 160 q 753 157 751 160 q 756 144 756 154 q 746 61 756 118 q 703 8 740 26 q 624 -11 665 -11 q 518 15 558 -11 q 464 96 478 40 q 384 18 433 47 q 275 -11 335 -11 q 101 67 165 -11 q 36 290 36 146 q 77 524 36 422 q 191 681 118 625 q 358 738 264 738 q 507 681 438 738 l 542 1003 q 629 1047 546 1047 l 668 1047 q 727 1035 707 1047 q 747 1004 747 1022 q 704 605 733 881 q 663 197 675 329 q 672 163 663 174 q 704 151 682 151 q 728 156 717 151 q 744 160 740 160 m 493 542 q 406 575 451 575 q 287 505 329 575 q 244 303 244 435 q 353 157 244 157 q 463 239 411 157 l 493 542 m 1407 726 q 1430 691 1419 726 q 1440 625 1440 656 q 1435 599 1440 604 l 1072 163 l 1360 163 q 1388 151 1379 163 q 1396 113 1396 139 q 1343 0 1396 0 l 828 0 q 805 35 815 0 q 794 101 794 71 q 800 128 794 122 l 1163 564 l 901 564 q 874 576 882 564 q 865 614 865 588 q 918 726 865 726 l 1407 726 z "},"ǆ":{"ha":1464,"x_min":36,"x_max":1440,"o":"m 36 0 m 744 160 q 753 157 751 160 q 756 144 756 154 q 746 61 756 118 q 703 8 740 26 q 624 -11 665 -11 q 518 15 558 -11 q 464 96 478 40 q 384 18 433 47 q 275 -11 335 -11 q 101 67 165 -11 q 36 290 36 146 q 77 524 36 422 q 191 681 118 625 q 358 738 264 738 q 507 681 438 738 l 542 1003 q 629 1047 546 1047 l 668 1047 q 727 1035 707 1047 q 747 1004 747 1022 q 704 605 733 881 q 663 197 675 329 q 672 163 663 174 q 704 151 682 151 q 728 156 717 151 q 744 160 740 160 m 493 542 q 406 575 451 575 q 287 505 329 575 q 244 303 244 435 q 353 157 244 157 q 463 239 411 157 l 493 542 m 1407 726 q 1430 691 1419 726 q 1440 625 1440 656 q 1435 599 1440 604 l 1072 163 l 1360 163 q 1388 151 1379 163 q 1396 113 1396 139 q 1343 0 1396 0 l 828 0 q 805 35 815 0 q 794 101 794 71 q 800 128 794 122 l 1163 564 l 901 564 q 874 576 882 564 q 865 614 865 588 q 918 726 865 726 l 1407 726 m 1367 997 q 1393 983 1393 997 q 1383 963 1393 974 l 1278 821 q 1246 799 1265 804 q 1190 794 1226 794 l 1175 794 q 1121 799 1139 794 q 1093 821 1103 804 l 1018 963 q 1014 979 1014 974 q 1040 997 1014 997 l 1071 997 q 1160 964 1138 997 l 1194 908 l 1238 963 q 1276 990 1254 983 q 1333 997 1297 996 l 1367 997 z "},"e":{"ha":749,"x_min":46,"x_max":697,"o":"m 697 536 q 653 392 697 449 q 542 308 610 335 q 399 282 474 282 q 254 292 322 282 q 296 181 260 211 q 400 151 332 151 q 588 201 483 151 q 615 213 610 213 q 624 209 621 213 q 626 193 626 206 q 622 144 625 186 q 615 86 619 101 q 525 12 600 35 q 374 -11 450 -11 q 127 69 208 -11 q 46 294 46 150 q 153 629 46 521 q 428 738 260 738 q 592 705 532 738 q 675 626 653 672 q 697 536 697 581 m 331 419 q 458 447 419 419 q 497 510 497 474 q 475 559 497 543 q 414 575 453 575 q 316 533 353 575 q 264 419 279 490 l 331 419 z "},"é":{"ha":749,"x_min":46,"x_max":697,"o":"m 46 0 m 697 536 q 653 392 697 449 q 542 308 610 335 q 399 282 474 282 q 254 292 322 282 q 296 181 260 211 q 400 151 332 151 q 588 201 483 151 q 615 213 610 213 q 624 209 621 213 q 626 193 626 206 q 622 144 625 186 q 615 86 619 101 q 525 12 600 35 q 374 -11 450 -11 q 127 69 208 -11 q 46 294 46 150 q 153 629 46 521 q 428 738 260 738 q 592 705 532 738 q 675 626 653 672 q 697 536 697 581 m 331 419 q 458 447 419 419 q 497 510 497 474 q 475 559 497 543 q 414 575 453 575 q 316 533 353 575 q 264 419 279 490 l 331 419 m 572 1019 q 633 1015 614 1019 q 653 1001 653 1011 q 645 983 653 992 q 597 936 638 974 l 492 833 q 452 808 476 818 q 383 799 428 799 q 351 803 360 799 q 343 817 343 807 q 352 838 343 824 q 378 876 361 853 q 450 982 419 935 q 572 1019 475 1019 z "},"ĕ":{"ha":749,"x_min":46,"x_max":697,"o":"m 46 0 m 697 536 q 653 392 697 449 q 542 308 610 335 q 399 282 474 282 q 254 292 322 282 q 296 181 260 211 q 400 151 332 151 q 588 201 483 151 q 615 213 610 213 q 624 209 621 213 q 626 193 626 206 q 622 144 625 186 q 615 86 619 101 q 525 12 600 35 q 374 -11 450 -11 q 127 69 208 -11 q 46 294 46 150 q 153 629 46 521 q 428 738 260 738 q 592 705 532 738 q 675 626 653 672 q 697 536 697 581 m 331 419 q 458 447 419 419 q 497 510 497 474 q 475 559 497 543 q 414 575 453 575 q 316 533 353 575 q 264 419 279 490 l 331 419 m 603 993 q 635 984 624 993 q 647 960 647 975 q 617 882 647 919 q 535 822 586 844 q 426 799 485 799 q 328 818 371 799 q 261 871 285 838 q 238 942 238 904 q 292 993 238 993 q 315 988 307 993 q 335 968 324 982 q 372 936 350 947 q 440 925 393 925 q 510 936 486 925 q 546 959 533 947 q 563 975 558 971 q 603 993 581 993 z "},"ě":{"ha":749,"x_min":46,"x_max":697,"o":"m 46 0 m 697 536 q 653 392 697 449 q 542 308 610 335 q 399 282 474 282 q 254 292 322 282 q 296 181 260 211 q 400 151 332 151 q 588 201 483 151 q 615 213 610 213 q 624 209 621 213 q 626 193 626 206 q 622 144 625 186 q 615 86 619 101 q 525 12 600 35 q 374 -11 450 -11 q 127 69 208 -11 q 46 294 46 150 q 153 629 46 521 q 428 738 260 738 q 592 705 532 738 q 675 626 653 672 q 697 536 697 581 m 331 419 q 458 447 419 419 q 497 510 497 474 q 475 559 497 543 q 414 575 453 575 q 316 533 353 575 q 264 419 279 490 l 331 419 m 608 997 q 635 983 635 997 q 625 963 635 974 l 519 821 q 488 799 507 804 q 432 794 468 794 l 417 794 q 363 799 381 794 q 335 821 344 804 l 260 963 q 256 979 256 974 q 282 997 256 997 l 313 997 q 401 964 379 997 l 436 908 l 479 963 q 517 990 496 983 q 575 997 539 996 l 608 997 z "},"ê":{"ha":749,"x_min":46,"x_max":697,"o":"m 46 0 m 697 536 q 653 392 697 449 q 542 308 610 335 q 399 282 474 282 q 254 292 322 282 q 296 181 260 211 q 400 151 332 151 q 588 201 483 151 q 615 213 610 213 q 624 209 621 213 q 626 193 626 206 q 622 144 625 186 q 615 86 619 101 q 525 12 600 35 q 374 -11 450 -11 q 127 69 208 -11 q 46 294 46 150 q 153 629 46 521 q 428 738 260 738 q 592 705 532 738 q 675 626 653 672 q 697 536 697 581 m 331 419 q 458 447 419 419 q 497 510 497 474 q 475 559 497 543 q 414 575 453 575 q 316 533 353 575 q 264 419 279 490 l 331 419 m 450 997 q 504 992 486 997 q 532 971 522 988 l 607 829 q 611 813 611 819 q 585 794 611 794 l 554 794 q 499 802 521 794 q 465 828 478 810 l 431 883 l 388 829 q 349 801 371 808 q 292 794 326 794 l 258 794 q 232 808 232 794 q 242 829 232 818 l 347 971 q 379 992 360 988 q 435 997 399 997 l 450 997 z "},"ế":{"ha":749,"x_min":46,"x_max":857,"o":"m 776 1199 q 838 1194 818 1199 q 857 1181 857 1190 q 849 1162 857 1171 q 801 1115 842 1153 l 696 1013 q 656 988 681 997 q 588 978 632 978 q 556 982 564 978 q 547 996 547 986 q 556 1017 547 1003 q 582 1056 565 1032 q 654 1161 624 1114 q 776 1199 679 1199 m 256 794 q 229 808 229 794 q 239 829 229 818 l 344 971 q 376 992 357 988 q 432 997 396 997 l 447 997 q 492 992 476 997 q 515 971 507 988 l 583 829 q 588 813 588 819 q 561 794 588 794 l 531 794 q 469 801 492 794 q 442 828 446 807 l 428 883 l 385 829 q 346 801 368 808 q 289 794 324 794 l 256 794 m 428 738 q 592 705 532 738 q 675 626 653 672 q 697 536 697 581 q 653 392 697 449 q 542 308 610 335 q 399 282 474 282 q 254 292 322 282 q 296 181 260 211 q 400 151 332 151 q 588 201 483 151 q 615 213 610 213 q 624 209 621 213 q 626 193 626 206 q 622 144 625 186 q 615 86 619 101 q 525 12 600 35 q 374 -11 450 -11 q 127 69 208 -11 q 46 294 46 150 q 153 629 46 521 q 428 738 260 738 m 331 419 q 458 447 419 419 q 497 510 497 474 q 475 559 497 543 q 414 575 453 575 q 316 533 353 575 q 264 419 279 490 l 331 419 z "},"ệ":{"ha":749,"x_min":46,"x_max":697,"o":"m 46 0 m 697 536 q 653 392 697 449 q 542 308 610 335 q 399 282 474 282 q 254 292 322 282 q 296 181 260 211 q 400 151 332 151 q 588 201 483 151 q 615 213 610 213 q 624 209 621 213 q 626 193 626 206 q 622 144 625 186 q 615 86 619 101 q 525 12 600 35 q 374 -11 450 -11 q 127 69 208 -11 q 46 294 46 150 q 153 629 46 521 q 428 738 260 738 q 592 705 532 738 q 675 626 653 672 q 697 536 697 581 m 331 419 q 458 447 419 419 q 497 510 497 474 q 475 559 497 543 q 414 575 453 575 q 316 533 353 575 q 264 419 279 490 l 331 419 m 450 997 q 504 992 486 997 q 532 971 522 988 l 607 829 q 611 813 611 819 q 585 794 611 794 l 554 794 q 499 802 521 794 q 465 828 478 810 l 431 883 l 388 829 q 349 801 371 808 q 292 794 326 794 l 258 794 q 232 808 232 794 q 242 829 232 818 l 347 971 q 379 992 360 988 q 435 997 399 997 l 450 997 m 360 -111 q 421 -122 403 -111 q 439 -156 439 -133 l 429 -239 q 342 -283 422 -283 q 281 -272 299 -283 q 263 -239 263 -261 l 272 -156 q 360 -111 276 -111 z "},"ề":{"ha":749,"x_min":46,"x_max":717,"o":"m 689 1067 q 717 1000 717 1011 q 706 983 717 988 q 671 978 696 978 q 606 987 626 978 q 571 1013 585 996 q 496 1103 536 1057 q 456 1153 468 1136 q 443 1176 443 1169 q 463 1194 443 1189 q 529 1199 483 1199 q 643 1161 625 1199 l 689 1067 m 256 794 q 229 808 229 794 q 239 829 229 818 l 344 971 q 376 992 357 988 q 432 997 396 997 l 447 997 q 492 992 476 997 q 515 971 507 988 l 583 829 q 588 813 588 819 q 561 794 588 794 l 531 794 q 469 801 492 794 q 442 828 446 807 l 428 883 l 385 829 q 346 801 368 808 q 289 794 324 794 l 256 794 m 428 738 q 592 705 532 738 q 675 626 653 672 q 697 536 697 581 q 653 392 697 449 q 542 308 610 335 q 399 282 474 282 q 254 292 322 282 q 296 181 260 211 q 400 151 332 151 q 588 201 483 151 q 615 213 610 213 q 624 209 621 213 q 626 193 626 206 q 622 144 625 186 q 615 86 619 101 q 525 12 600 35 q 374 -11 450 -11 q 127 69 208 -11 q 46 294 46 150 q 153 629 46 521 q 428 738 260 738 m 331 419 q 458 447 419 419 q 497 510 497 474 q 475 559 497 543 q 414 575 453 575 q 316 533 353 575 q 264 419 279 490 l 331 419 z "},"ể":{"ha":749,"x_min":46,"x_max":807,"o":"m 661 1222 q 768 1192 729 1222 q 807 1115 807 1163 q 778 1049 807 1082 q 714 994 750 1017 q 665 971 678 971 q 607 980 628 971 q 586 1000 586 989 q 596 1018 586 1010 q 628 1042 606 1026 q 671 1074 656 1060 q 686 1107 686 1089 q 674 1129 686 1121 q 642 1138 661 1138 q 605 1129 624 1138 q 581 1121 586 1121 q 559 1142 572 1121 q 546 1179 546 1164 q 585 1208 546 1193 q 661 1222 625 1222 m 256 794 q 229 808 229 794 q 239 829 229 818 l 344 971 q 376 992 357 988 q 432 997 396 997 l 447 997 q 492 992 476 997 q 515 971 507 988 l 583 829 q 588 813 588 819 q 561 794 588 794 l 531 794 q 469 801 492 794 q 442 828 446 807 l 428 883 l 385 829 q 346 801 368 808 q 289 794 324 794 l 256 794 m 428 738 q 592 705 532 738 q 675 626 653 672 q 697 536 697 581 q 653 392 697 449 q 542 308 610 335 q 399 282 474 282 q 254 292 322 282 q 296 181 260 211 q 400 151 332 151 q 588 201 483 151 q 615 213 610 213 q 624 209 621 213 q 626 193 626 206 q 622 144 625 186 q 615 86 619 101 q 525 12 600 35 q 374 -11 450 -11 q 127 69 208 -11 q 46 294 46 150 q 153 629 46 521 q 428 738 260 738 m 331 419 q 458 447 419 419 q 497 510 497 474 q 475 559 497 543 q 414 575 453 575 q 316 533 353 575 q 264 419 279 490 l 331 419 z "},"ễ":{"ha":749,"x_min":46,"x_max":697,"o":"m 267 1063 q 239 1100 239 1072 q 242 1119 239 1114 q 292 1188 256 1160 q 379 1217 328 1217 q 435 1207 400 1217 q 476 1196 469 1197 q 557 1176 532 1178 q 599 1199 581 1176 q 633 1222 617 1222 q 650 1219 639 1222 l 664 1215 q 692 1178 692 1206 q 689 1158 692 1164 q 639 1090 675 1118 q 551 1061 603 1061 q 496 1071 531 1061 q 454 1082 461 1081 q 374 1101 399 1100 q 332 1079 350 1101 q 297 1056 314 1056 q 281 1058 292 1056 l 267 1063 m 260 794 q 233 808 233 794 q 243 829 233 818 l 349 971 q 381 992 361 988 q 436 997 400 997 l 451 997 q 506 992 488 997 q 533 971 524 988 l 608 829 q 613 813 613 819 q 586 794 613 794 l 556 794 q 501 802 522 794 q 467 828 479 810 l 432 883 l 389 829 q 350 801 372 808 q 293 794 328 794 l 260 794 m 697 536 q 653 392 697 449 q 542 308 610 335 q 399 282 474 282 q 254 292 322 282 q 296 181 260 211 q 400 151 332 151 q 588 201 483 151 q 615 213 610 213 q 624 209 621 213 q 626 193 626 206 q 622 144 625 186 q 615 86 619 101 q 525 12 600 35 q 374 -11 450 -11 q 127 69 208 -11 q 46 294 46 150 q 153 629 46 521 q 428 738 260 738 q 592 705 532 738 q 675 626 653 672 q 697 536 697 581 m 331 419 q 458 447 419 419 q 497 510 497 474 q 475 559 497 543 q 414 575 453 575 q 316 533 353 575 q 264 419 279 490 l 331 419 z "},"ë":{"ha":749,"x_min":46,"x_max":697,"o":"m 46 0 m 697 536 q 653 392 697 449 q 542 308 610 335 q 399 282 474 282 q 254 292 322 282 q 296 181 260 211 q 400 151 332 151 q 588 201 483 151 q 615 213 610 213 q 624 209 621 213 q 626 193 626 206 q 622 144 625 186 q 615 86 619 101 q 525 12 600 35 q 374 -11 450 -11 q 127 69 208 -11 q 46 294 46 150 q 153 629 46 521 q 428 738 260 738 q 592 705 532 738 q 675 626 653 672 q 697 536 697 581 m 331 419 q 458 447 419 419 q 497 510 497 474 q 475 559 497 543 q 414 575 453 575 q 316 533 353 575 q 264 419 279 490 l 331 419 m 325 975 q 386 964 368 975 q 404 931 404 953 l 394 847 q 307 803 388 803 q 246 814 264 803 q 228 847 228 825 l 238 931 q 325 975 242 975 m 575 975 q 636 964 618 975 q 654 931 654 953 l 644 847 q 557 803 638 803 q 496 814 514 803 q 478 847 478 825 l 488 931 q 575 975 492 975 z "},"ė":{"ha":749,"x_min":46,"x_max":697,"o":"m 46 0 m 697 536 q 653 392 697 449 q 542 308 610 335 q 399 282 474 282 q 254 292 322 282 q 296 181 260 211 q 400 151 332 151 q 588 201 483 151 q 615 213 610 213 q 624 209 621 213 q 626 193 626 206 q 622 144 625 186 q 615 86 619 101 q 525 12 600 35 q 374 -11 450 -11 q 127 69 208 -11 q 46 294 46 150 q 153 629 46 521 q 428 738 260 738 q 592 705 532 738 q 675 626 653 672 q 697 536 697 581 m 331 419 q 458 447 419 419 q 497 510 497 474 q 475 559 497 543 q 414 575 453 575 q 316 533 353 575 q 264 419 279 490 l 331 419 m 431 975 q 492 964 474 975 q 510 931 510 953 l 500 847 q 413 803 493 803 q 351 814 369 803 q 333 847 333 825 l 343 931 q 431 975 347 975 z "},"ẹ":{"ha":749,"x_min":46,"x_max":697,"o":"m 46 0 m 697 536 q 653 392 697 449 q 542 308 610 335 q 399 282 474 282 q 254 292 322 282 q 296 181 260 211 q 400 151 332 151 q 588 201 483 151 q 615 213 610 213 q 624 209 621 213 q 626 193 626 206 q 622 144 625 186 q 615 86 619 101 q 525 12 600 35 q 374 -11 450 -11 q 127 69 208 -11 q 46 294 46 150 q 153 629 46 521 q 428 738 260 738 q 592 705 532 738 q 675 626 653 672 q 697 536 697 581 m 331 419 q 458 447 419 419 q 497 510 497 474 q 475 559 497 543 q 414 575 453 575 q 316 533 353 575 q 264 419 279 490 l 331 419 m 360 -111 q 421 -122 403 -111 q 439 -156 439 -133 l 429 -239 q 342 -283 422 -283 q 281 -272 299 -283 q 263 -239 263 -261 l 272 -156 q 360 -111 276 -111 z "},"è":{"ha":749,"x_min":46,"x_max":697,"o":"m 46 0 m 697 536 q 653 392 697 449 q 542 308 610 335 q 399 282 474 282 q 254 292 322 282 q 296 181 260 211 q 400 151 332 151 q 588 201 483 151 q 615 213 610 213 q 624 209 621 213 q 626 193 626 206 q 622 144 625 186 q 615 86 619 101 q 525 12 600 35 q 374 -11 450 -11 q 127 69 208 -11 q 46 294 46 150 q 153 629 46 521 q 428 738 260 738 q 592 705 532 738 q 675 626 653 672 q 697 536 697 581 m 331 419 q 458 447 419 419 q 497 510 497 474 q 475 559 497 543 q 414 575 453 575 q 316 533 353 575 q 264 419 279 490 l 331 419 m 325 1019 q 439 982 421 1019 l 485 888 q 513 821 513 832 q 502 803 513 808 q 467 799 492 799 q 401 808 422 799 q 367 833 381 817 q 292 924 332 878 q 251 974 264 957 q 239 997 239 990 q 259 1015 239 1010 q 325 1019 279 1019 z "},"ẻ":{"ha":749,"x_min":46,"x_max":697,"o":"m 46 0 m 697 536 q 653 392 697 449 q 542 308 610 335 q 399 282 474 282 q 254 292 322 282 q 296 181 260 211 q 400 151 332 151 q 588 201 483 151 q 615 213 610 213 q 624 209 621 213 q 626 193 626 206 q 622 144 625 186 q 615 86 619 101 q 525 12 600 35 q 374 -11 450 -11 q 127 69 208 -11 q 46 294 46 150 q 153 629 46 521 q 428 738 260 738 q 592 705 532 738 q 675 626 653 672 q 697 536 697 581 m 331 419 q 458 447 419 419 q 497 510 497 474 q 475 559 497 543 q 414 575 453 575 q 316 533 353 575 q 264 419 279 490 l 331 419 m 482 928 q 470 950 482 942 q 438 958 458 958 q 401 950 419 958 q 376 942 382 942 q 355 963 368 942 q 342 1000 342 985 q 381 1028 342 1014 q 457 1043 421 1043 q 564 1013 525 1043 q 603 936 603 983 q 574 870 603 903 q 510 815 546 838 q 461 792 474 792 q 403 801 424 792 q 382 821 382 810 q 392 839 382 831 q 424 863 401 847 q 467 895 451 881 q 482 928 482 910 z "},"ē":{"ha":749,"x_min":46,"x_max":697,"o":"m 46 0 m 697 536 q 653 392 697 449 q 542 308 610 335 q 399 282 474 282 q 254 292 322 282 q 296 181 260 211 q 400 151 332 151 q 588 201 483 151 q 615 213 610 213 q 624 209 621 213 q 626 193 626 206 q 622 144 625 186 q 615 86 619 101 q 525 12 600 35 q 374 -11 450 -11 q 127 69 208 -11 q 46 294 46 150 q 153 629 46 521 q 428 738 260 738 q 592 705 532 738 q 675 626 653 672 q 697 536 697 581 m 331 419 q 458 447 419 419 q 497 510 497 474 q 475 559 497 543 q 414 575 453 575 q 316 533 353 575 q 264 419 279 490 l 331 419 m 603 961 q 639 919 639 961 q 628 858 639 886 q 588 829 618 829 l 288 829 q 260 839 268 829 q 251 871 251 849 q 303 961 251 961 l 603 961 z "},"ę":{"ha":749,"x_min":46,"x_max":697,"o":"m 621 -137 q 633 -147 631 -137 q 636 -179 636 -156 q 600 -237 636 -219 q 514 -254 564 -254 q 396 -217 428 -254 q 364 -131 364 -179 q 374 -68 364 -103 q 401 -10 383 -33 q 374 -11 392 -11 q 127 69 208 -11 q 46 294 46 150 q 153 629 46 521 q 428 738 260 738 q 592 705 532 738 q 675 626 653 672 q 697 536 697 581 q 653 392 697 449 q 542 308 610 335 q 399 282 474 282 q 254 292 322 282 q 296 181 260 211 q 400 151 332 151 q 588 201 483 151 q 615 213 610 213 q 624 209 621 213 q 626 193 626 206 q 622 144 625 186 q 615 86 619 101 q 570 33 606 54 q 485 1 535 11 l 485 -4 q 475 -33 485 -14 q 460 -97 460 -67 q 483 -145 460 -133 q 540 -157 507 -157 q 592 -147 567 -157 q 621 -137 617 -137 m 414 575 q 316 533 353 575 q 264 419 279 490 l 331 419 q 458 447 419 419 q 497 510 497 474 q 475 559 497 543 q 414 575 453 575 z "},"ẽ":{"ha":749,"x_min":46,"x_max":697,"o":"m 46 0 m 697 536 q 653 392 697 449 q 542 308 610 335 q 399 282 474 282 q 254 292 322 282 q 296 181 260 211 q 400 151 332 151 q 588 201 483 151 q 615 213 610 213 q 624 209 621 213 q 626 193 626 206 q 622 144 625 186 q 615 86 619 101 q 525 12 600 35 q 374 -11 450 -11 q 127 69 208 -11 q 46 294 46 150 q 153 629 46 521 q 428 738 260 738 q 592 705 532 738 q 675 626 653 672 q 697 536 697 581 m 331 419 q 458 447 419 419 q 497 510 497 474 q 475 559 497 543 q 414 575 453 575 q 316 533 353 575 q 264 419 279 490 l 331 419 m 332 964 q 392 954 354 964 q 439 943 431 944 q 528 924 503 925 q 574 946 554 924 q 611 969 592 969 q 629 967 618 969 l 644 963 q 676 925 676 953 q 672 906 676 914 q 617 837 657 865 q 521 808 578 808 q 474 815 504 808 q 415 829 444 822 q 326 849 351 847 q 281 826 300 849 q 242 803 261 803 q 224 806 235 803 l 208 810 q 178 849 178 818 q 181 867 178 856 q 236 935 196 907 q 332 964 276 964 z "},"f":{"ha":451,"x_min":47,"x_max":499,"o":"m 365 1056 q 499 992 499 1056 q 481 928 499 969 q 447 886 464 886 q 429 890 440 886 q 401 893 418 893 q 362 878 375 893 q 346 833 349 864 l 333 726 l 417 726 q 435 720 431 726 q 439 699 439 714 q 417 608 439 653 q 358 564 396 564 l 317 564 l 263 42 q 175 -3 258 -3 l 136 -3 q 77 10 97 -3 q 57 40 57 22 l 111 564 l 83 564 q 56 576 64 564 q 47 614 47 588 q 100 726 47 726 l 129 726 l 139 831 q 208 997 149 938 q 365 1056 267 1056 z "},"g":{"ha":758,"x_min":44,"x_max":721,"o":"m 640 729 q 721 694 721 729 l 664 129 q 556 -190 642 -85 q 310 -294 471 -294 q 127 -267 201 -294 q 53 -196 53 -239 q 81 -75 53 -75 q 115 -91 85 -75 q 183 -119 144 -107 q 268 -132 221 -132 q 394 -86 347 -132 q 449 46 440 -40 l 453 88 q 377 28 421 50 q 283 6 333 6 q 109 81 174 6 q 44 296 44 157 q 85 526 44 426 q 199 682 126 626 q 367 738 272 738 q 461 715 418 738 q 533 665 504 693 q 549 705 542 693 q 573 723 557 717 q 624 729 589 729 l 640 729 m 492 451 q 504 539 496 500 q 414 575 460 575 q 295 506 338 575 q 253 308 253 438 q 361 174 253 174 q 469 254 418 174 l 488 417 l 492 451 z "},"ğ":{"ha":758,"x_min":44,"x_max":721,"o":"m 44 0 m 640 729 q 721 694 721 729 l 664 129 q 556 -190 642 -85 q 310 -294 471 -294 q 127 -267 201 -294 q 53 -196 53 -239 q 81 -75 53 -75 q 115 -91 85 -75 q 183 -119 144 -107 q 268 -132 221 -132 q 394 -86 347 -132 q 449 46 440 -40 l 453 88 q 377 28 421 50 q 283 6 333 6 q 109 81 174 6 q 44 296 44 157 q 85 526 44 426 q 199 682 126 626 q 367 738 272 738 q 461 715 418 738 q 533 665 504 693 q 549 705 542 693 q 573 723 557 717 q 624 729 589 729 l 640 729 m 492 451 q 504 539 496 500 q 414 575 460 575 q 295 506 338 575 q 253 308 253 438 q 361 174 253 174 q 469 254 418 174 l 488 417 l 492 451 m 615 993 q 648 984 636 993 q 660 960 660 975 q 629 882 660 919 q 548 822 599 844 q 439 799 497 799 q 340 818 383 799 q 274 871 297 838 q 250 942 250 904 q 304 993 250 993 q 328 988 319 993 q 347 968 336 982 q 384 936 363 947 q 453 925 406 925 q 522 936 499 925 q 558 959 546 947 q 575 975 571 971 q 615 993 593 993 z "},"ĝ":{"ha":758,"x_min":44,"x_max":721,"o":"m 44 0 m 640 729 q 721 694 721 729 l 664 129 q 556 -190 642 -85 q 310 -294 471 -294 q 127 -267 201 -294 q 53 -196 53 -239 q 81 -75 53 -75 q 115 -91 85 -75 q 183 -119 144 -107 q 268 -132 221 -132 q 394 -86 347 -132 q 449 46 440 -40 l 453 88 q 377 28 421 50 q 283 6 333 6 q 109 81 174 6 q 44 296 44 157 q 85 526 44 426 q 199 682 126 626 q 367 738 272 738 q 461 715 418 738 q 533 665 504 693 q 549 705 542 693 q 573 723 557 717 q 624 729 589 729 l 640 729 m 492 451 q 504 539 496 500 q 414 575 460 575 q 295 506 338 575 q 253 308 253 438 q 361 174 253 174 q 469 254 418 174 l 488 417 l 492 451 m 463 997 q 517 992 499 997 q 544 971 535 988 l 619 829 q 624 813 624 819 q 597 794 624 794 l 567 794 q 512 802 533 794 q 478 828 490 810 l 443 883 l 400 829 q 361 801 383 808 q 304 794 339 794 l 271 794 q 244 808 244 794 q 254 829 244 818 l 360 971 q 392 992 372 988 q 447 997 411 997 l 463 997 z "},"ģ":{"ha":758,"x_min":44,"x_max":721,"o":"m 44 0 m 640 729 q 721 694 721 729 l 664 129 q 556 -190 642 -85 q 310 -294 471 -294 q 127 -267 201 -294 q 53 -196 53 -239 q 81 -75 53 -75 q 115 -91 85 -75 q 183 -119 144 -107 q 268 -132 221 -132 q 394 -86 347 -132 q 449 46 440 -40 l 453 88 q 377 28 421 50 q 283 6 333 6 q 109 81 174 6 q 44 296 44 157 q 85 526 44 426 q 199 682 126 626 q 367 738 272 738 q 461 715 418 738 q 533 665 504 693 q 549 705 542 693 q 573 723 557 717 q 624 729 589 729 l 640 729 m 492 451 q 504 539 496 500 q 414 575 460 575 q 295 506 338 575 q 253 308 253 438 q 361 174 253 174 q 469 254 418 174 l 488 417 l 492 451 m 422 799 q 360 860 360 799 q 391 950 360 903 q 464 1029 422 997 q 531 1061 506 1061 q 572 1053 553 1061 q 590 1031 592 1046 q 578 1004 589 1021 q 549 942 560 974 q 539 860 539 911 q 515 815 539 831 q 449 799 492 799 l 422 799 z "},"ġ":{"ha":758,"x_min":44,"x_max":721,"o":"m 44 0 m 640 729 q 721 694 721 729 l 664 129 q 556 -190 642 -85 q 310 -294 471 -294 q 127 -267 201 -294 q 53 -196 53 -239 q 81 -75 53 -75 q 115 -91 85 -75 q 183 -119 144 -107 q 268 -132 221 -132 q 394 -86 347 -132 q 449 46 440 -40 l 453 88 q 377 28 421 50 q 283 6 333 6 q 109 81 174 6 q 44 296 44 157 q 85 526 44 426 q 199 682 126 626 q 367 738 272 738 q 461 715 418 738 q 533 665 504 693 q 549 705 542 693 q 573 723 557 717 q 624 729 589 729 l 640 729 m 492 451 q 504 539 496 500 q 414 575 460 575 q 295 506 338 575 q 253 308 253 438 q 361 174 253 174 q 469 254 418 174 l 488 417 l 492 451 m 443 975 q 504 964 486 975 q 522 931 522 953 l 513 847 q 425 803 506 803 q 364 814 382 803 q 346 847 346 825 l 356 931 q 443 975 360 975 z "},"h":{"ha":785,"x_min":31,"x_max":746,"o":"m 258 1047 q 317 1035 297 1047 q 338 1004 338 1022 l 300 643 q 393 710 338 683 q 504 738 449 738 q 642 694 597 738 q 688 561 688 651 q 668 360 688 540 q 653 197 653 217 q 663 163 653 174 q 694 151 672 151 q 719 156 707 151 q 735 160 731 160 q 744 157 742 160 q 746 144 746 154 q 736 61 746 118 q 693 8 731 26 q 614 -11 656 -11 q 488 31 531 -11 q 446 165 446 74 q 465 368 446 196 q 478 499 478 486 q 460 551 478 533 q 403 568 442 568 q 283 489 339 568 l 236 42 q 149 -3 232 -3 l 110 -3 q 51 10 71 -3 q 31 40 31 22 l 132 1003 q 219 1047 136 1047 l 258 1047 z "},"ħ":{"ha":785,"x_min":31,"x_max":746,"o":"m 735 160 q 744 157 742 160 q 746 144 746 154 q 736 61 746 118 q 693 8 731 26 q 614 -11 656 -11 q 488 31 531 -11 q 446 165 446 74 q 465 368 446 196 q 478 499 478 486 q 460 551 478 533 q 403 568 442 568 q 283 489 339 568 l 236 42 q 149 -3 232 -3 l 110 -3 q 51 10 71 -3 q 31 40 31 22 l 111 810 l 89 810 q 61 819 69 810 q 53 851 53 829 q 104 942 53 942 l 125 942 l 132 1003 q 219 1047 136 1047 l 258 1047 q 317 1035 297 1047 q 338 1004 338 1022 l 331 942 l 404 942 q 440 900 440 942 q 430 838 440 867 q 389 810 419 810 l 317 810 l 300 643 q 393 710 338 683 q 504 738 449 738 q 642 694 597 738 q 688 561 688 651 q 668 360 688 540 q 653 197 653 217 q 663 163 653 174 q 694 151 672 151 q 719 156 707 151 q 735 160 731 160 z "},"ĥ":{"ha":785,"x_min":31,"x_max":746,"o":"m 31 0 m 258 1047 q 317 1035 297 1047 q 338 1004 338 1022 l 300 643 q 393 710 338 683 q 504 738 449 738 q 642 694 597 738 q 688 561 688 651 q 668 360 688 540 q 653 197 653 217 q 663 163 653 174 q 694 151 672 151 q 719 156 707 151 q 735 160 731 160 q 744 157 742 160 q 746 144 746 154 q 736 61 746 118 q 693 8 731 26 q 614 -11 656 -11 q 488 31 531 -11 q 446 165 446 74 q 465 368 446 196 q 478 499 478 486 q 460 551 478 533 q 403 568 442 568 q 283 489 339 568 l 236 42 q 149 -3 232 -3 l 110 -3 q 51 10 71 -3 q 31 40 31 22 l 132 1003 q 219 1047 136 1047 l 258 1047 m 272 1285 q 326 1280 308 1285 q 354 1258 344 1275 l 429 1117 q 433 1100 433 1107 q 407 1082 433 1082 l 376 1082 q 322 1090 343 1082 q 288 1115 300 1097 l 253 1171 l 210 1117 q 171 1089 193 1096 q 114 1082 149 1082 l 81 1082 q 54 1096 54 1082 q 64 1117 54 1106 l 169 1258 q 201 1280 182 1275 q 257 1285 221 1285 l 272 1285 z "},"ḥ":{"ha":785,"x_min":31,"x_max":746,"o":"m 31 0 m 258 1047 q 317 1035 297 1047 q 338 1004 338 1022 l 300 643 q 393 710 338 683 q 504 738 449 738 q 642 694 597 738 q 688 561 688 651 q 668 360 688 540 q 653 197 653 217 q 663 163 653 174 q 694 151 672 151 q 719 156 707 151 q 735 160 731 160 q 744 157 742 160 q 746 144 746 154 q 736 61 746 118 q 693 8 731 26 q 614 -11 656 -11 q 488 31 531 -11 q 446 165 446 74 q 465 368 446 196 q 478 499 478 486 q 460 551 478 533 q 403 568 442 568 q 283 489 339 568 l 236 42 q 149 -3 232 -3 l 110 -3 q 51 10 71 -3 q 31 40 31 22 l 132 1003 q 219 1047 136 1047 l 258 1047 m 347 -111 q 408 -122 390 -111 q 426 -156 426 -133 l 417 -239 q 329 -283 410 -283 q 268 -272 286 -283 q 250 -239 250 -261 l 260 -156 q 347 -111 264 -111 z "},"i":{"ha":368,"x_min":40,"x_max":340,"o":"m 253 1047 q 312 1035 292 1047 q 332 1004 332 1022 l 319 890 q 232 846 315 846 l 193 846 q 134 858 154 846 q 114 889 114 871 l 126 1003 q 214 1047 131 1047 l 253 1047 m 219 729 q 278 717 258 729 q 299 686 299 704 q 272 445 290 611 q 247 197 254 279 q 257 163 247 174 q 289 151 267 151 q 313 156 301 151 q 329 160 325 160 q 338 157 336 160 q 340 144 340 154 q 331 61 340 118 q 288 8 325 26 q 208 -11 250 -11 q 83 31 125 -11 q 40 165 40 74 q 63 400 40 190 q 93 685 85 610 q 181 729 97 729 l 219 729 z "},"ı":{"ha":368,"x_min":40,"x_max":340,"o":"m 219 729 q 278 717 258 729 q 299 686 299 704 q 272 445 290 611 q 247 197 254 279 q 257 163 247 174 q 289 151 267 151 q 313 156 301 151 q 329 160 325 160 q 338 157 336 160 q 340 144 340 154 q 331 61 340 118 q 288 8 325 26 q 208 -11 250 -11 q 83 31 125 -11 q 40 165 40 74 q 63 400 40 190 q 93 685 85 610 q 181 729 97 729 l 219 729 z "},"í":{"ha":368,"x_min":40,"x_max":431,"o":"m 40 0 m 219 729 q 278 717 258 729 q 299 686 299 704 q 272 445 290 611 q 247 197 254 279 q 257 163 247 174 q 289 151 267 151 q 313 156 301 151 q 329 160 325 160 q 338 157 336 160 q 340 144 340 154 q 331 61 340 118 q 288 8 325 26 q 208 -11 250 -11 q 83 31 125 -11 q 40 165 40 74 q 63 400 40 190 q 93 685 85 610 q 181 729 97 729 l 219 729 m 350 1019 q 411 1015 392 1019 q 431 1001 431 1011 q 423 983 431 992 q 375 936 415 974 l 269 833 q 230 808 254 818 q 161 799 206 799 q 129 803 138 799 q 121 817 121 807 q 130 838 121 824 q 156 876 139 853 q 228 982 197 935 q 350 1019 253 1019 z "},"ĭ":{"ha":368,"x_min":15,"x_max":425,"o":"m 15 0 m 219 729 q 278 717 258 729 q 299 686 299 704 q 272 445 290 611 q 247 197 254 279 q 257 163 247 174 q 289 151 267 151 q 313 156 301 151 q 329 160 325 160 q 338 157 336 160 q 340 144 340 154 q 331 61 340 118 q 288 8 325 26 q 208 -11 250 -11 q 83 31 125 -11 q 40 165 40 74 q 63 400 40 190 q 93 685 85 610 q 181 729 97 729 l 219 729 m 381 993 q 413 984 401 993 q 425 960 425 975 q 394 882 425 919 q 313 822 364 844 q 204 799 263 799 q 106 818 149 799 q 39 871 63 838 q 15 942 15 904 q 69 993 15 993 q 93 988 85 993 q 113 968 101 982 q 149 936 128 947 q 218 925 171 925 q 288 936 264 925 q 324 959 311 947 q 340 975 336 971 q 381 993 358 993 z "},"î":{"ha":368,"x_min":10,"x_max":389,"o":"m 10 0 m 219 729 q 278 717 258 729 q 299 686 299 704 q 272 445 290 611 q 247 197 254 279 q 257 163 247 174 q 289 151 267 151 q 313 156 301 151 q 329 160 325 160 q 338 157 336 160 q 340 144 340 154 q 331 61 340 118 q 288 8 325 26 q 208 -11 250 -11 q 83 31 125 -11 q 40 165 40 74 q 63 400 40 190 q 93 685 85 610 q 181 729 97 729 l 219 729 m 228 997 q 282 992 264 997 q 310 971 300 988 l 385 829 q 389 813 389 819 q 363 794 389 794 l 332 794 q 277 802 299 794 q 243 828 256 810 l 208 883 l 165 829 q 126 801 149 808 q 69 794 104 794 l 36 794 q 10 808 10 794 q 19 829 10 818 l 125 971 q 157 992 138 988 q 213 997 176 997 l 228 997 z "},"ï":{"ha":368,"x_min":6,"x_max":432,"o":"m 6 0 m 219 729 q 278 717 258 729 q 299 686 299 704 q 272 445 290 611 q 247 197 254 279 q 257 163 247 174 q 289 151 267 151 q 313 156 301 151 q 329 160 325 160 q 338 157 336 160 q 340 144 340 154 q 331 61 340 118 q 288 8 325 26 q 208 -11 250 -11 q 83 31 125 -11 q 40 165 40 74 q 63 400 40 190 q 93 685 85 610 q 181 729 97 729 l 219 729 m 103 975 q 164 964 146 975 q 182 931 182 953 l 172 847 q 85 803 165 803 q 24 814 42 803 q 6 847 6 825 l 15 931 q 103 975 19 975 m 353 975 q 414 964 396 975 q 432 931 432 953 l 422 847 q 335 803 415 803 q 274 814 292 803 q 256 847 256 825 l 265 931 q 353 975 269 975 z "},"ị":{"ha":368,"x_min":28,"x_max":340,"o":"m 28 0 m 253 1047 q 312 1035 292 1047 q 332 1004 332 1022 l 319 890 q 232 846 315 846 l 193 846 q 134 858 154 846 q 114 889 114 871 l 126 1003 q 214 1047 131 1047 l 253 1047 m 219 729 q 278 717 258 729 q 299 686 299 704 q 272 445 290 611 q 247 197 254 279 q 257 163 247 174 q 289 151 267 151 q 313 156 301 151 q 329 160 325 160 q 338 157 336 160 q 340 144 340 154 q 331 61 340 118 q 288 8 325 26 q 208 -11 250 -11 q 83 31 125 -11 q 40 165 40 74 q 63 400 40 190 q 93 685 85 610 q 181 729 97 729 l 219 729 m 125 -111 q 186 -122 168 -111 q 204 -156 204 -133 l 194 -239 q 107 -283 188 -283 q 46 -272 64 -283 q 28 -239 28 -261 l 38 -156 q 125 -111 42 -111 z "},"ì":{"ha":368,"x_min":17,"x_max":340,"o":"m 17 0 m 219 729 q 278 717 258 729 q 299 686 299 704 q 272 445 290 611 q 247 197 254 279 q 257 163 247 174 q 289 151 267 151 q 313 156 301 151 q 329 160 325 160 q 338 157 336 160 q 340 144 340 154 q 331 61 340 118 q 288 8 325 26 q 208 -11 250 -11 q 83 31 125 -11 q 40 165 40 74 q 63 400 40 190 q 93 685 85 610 q 181 729 97 729 l 219 729 m 103 1019 q 217 982 199 1019 l 263 888 q 290 821 290 832 q 280 803 290 808 q 244 799 269 799 q 179 808 200 799 q 144 833 158 817 q 69 924 110 878 q 29 974 42 957 q 17 997 17 990 q 37 1015 17 1010 q 103 1019 57 1019 z "},"ỉ":{"ha":368,"x_min":40,"x_max":381,"o":"m 40 0 m 219 729 q 278 717 258 729 q 299 686 299 704 q 272 445 290 611 q 247 197 254 279 q 257 163 247 174 q 289 151 267 151 q 313 156 301 151 q 329 160 325 160 q 338 157 336 160 q 340 144 340 154 q 331 61 340 118 q 288 8 325 26 q 208 -11 250 -11 q 83 31 125 -11 q 40 165 40 74 q 63 400 40 190 q 93 685 85 610 q 181 729 97 729 l 219 729 m 260 928 q 248 950 260 942 q 215 958 236 958 q 178 950 197 958 q 154 942 160 942 q 133 963 146 942 q 119 1000 119 985 q 159 1028 119 1014 q 235 1043 199 1043 q 342 1013 303 1043 q 381 936 381 983 q 352 870 381 903 q 288 815 324 838 q 239 792 251 792 q 181 801 201 792 q 160 821 160 810 q 169 839 160 831 q 201 863 179 847 q 244 895 229 881 q 260 928 260 910 z "}}}
